<?xml version="1.0" encoding="utf-8"?>
<!-- Generator: Adobe Illustrator 18.1.1, SVG Export Plug-In . SVG Version: 6.00 Build 0)  -->
<!DOCTYPE svg PUBLIC "-//W3C//DTD SVG 1.1//EN" "http://www.w3.org/Graphics/SVG/1.1/DTD/svg11.dtd">
<svg version="1.1" id="Layer_1" xmlns="http://www.w3.org/2000/svg" xmlns:xlink="http://www.w3.org/1999/xlink" x="0px" y="0px"
	 viewBox="526 404 86 100" enable-background="new 526 404 86 100" xml:space="preserve">
<g>
	<ellipse cx="569.8" cy="455.6" rx="34.1" ry="33.8"/>
	<ellipse fill="#FFFFFF" stroke="#000000" stroke-miterlimit="10" cx="569.7" cy="455.6" rx="31.3" ry="31"/>
	<line fill="none" stroke="#000000" stroke-miterlimit="10" x1="569.7" y1="424.6" x2="569.7" y2="486.6"/>
	<line fill="none" stroke="#000000" stroke-miterlimit="10" x1="538.4" y1="455.5" x2="601" y2="455.5"/>
	<line fill="none" stroke="#000000" stroke-miterlimit="10" x1="547.6" y1="477.5" x2="591.7" y2="433.4"/>
	<line fill="none" stroke="#000000" stroke-miterlimit="10" x1="591.8" y1="477.4" x2="547.7" y2="433.3"/>
	<line fill="none" stroke="#000000" stroke-width="2" stroke-miterlimit="10" x1="598.5" y1="467.8" x2="541" y2="443.1"/>
	<line fill="none" stroke="#000000" stroke-width="2" stroke-miterlimit="10" x1="540.8" y1="467.8" x2="598.3" y2="443.1"/>
	<line fill="none" stroke="#000000" stroke-width="2" stroke-miterlimit="10" x1="582" y1="484" x2="557.6" y2="427"/>
	<line fill="none" stroke="#000000" stroke-width="2" stroke-miterlimit="10" x1="557.2" y1="484.1" x2="581.7" y2="427"/>
	<ellipse cx="569.5" cy="421.9" rx="2" ry="2.1"/>
	<ellipse cx="569.5" cy="489.4" rx="2" ry="2.1"/>
	<ellipse cx="604" cy="455.5" rx="2" ry="2.1"/>
	<ellipse cx="536" cy="455.8" rx="2" ry="2.1"/>
	<ellipse cx="594" cy="431.9" rx="2" ry="2.1"/>
	<ellipse cx="594" cy="479.2" rx="2" ry="2.1"/>
	<ellipse cx="546.3" cy="431.1" rx="2" ry="2.1"/>
	<ellipse cx="545.8" cy="479.4" rx="2" ry="2.1"/>
	<ellipse cx="569.6" cy="455.5" rx="1.1" ry="1.1"/>
</g>
</svg>
