<?xml version="1.0" encoding="utf-8"?>
<!-- Generator: Adobe Illustrator 18.1.1, SVG Export Plug-In . SVG Version: 6.00 Build 0)  -->
<!DOCTYPE svg PUBLIC "-//W3C//DTD SVG 1.1//EN" "http://www.w3.org/Graphics/SVG/1.1/DTD/svg11.dtd">
<svg version="1.1" id="Layer_1" xmlns="http://www.w3.org/2000/svg" xmlns:xlink="http://www.w3.org/1999/xlink" x="0px" y="0px"
	 viewBox="0 0 1224 792" enable-background="new 0 0 1224 792" xml:space="preserve">
<ellipse cx="601.5" cy="394.3" rx="291" ry="288.3"/>
<ellipse fill="#FFFFFF" stroke="#000000" stroke-miterlimit="10" cx="600.6" cy="394.4" rx="267" ry="264.5"/>
<line fill="none" stroke="#000000" stroke-miterlimit="10" x1="600.6" y1="129.9" x2="600.6" y2="658.9"/>
<line fill="none" stroke="#000000" stroke-miterlimit="10" x1="333.6" y1="393.3" x2="867.5" y2="393.3"/>
<line fill="none" stroke="#000000" stroke-miterlimit="10" x1="412" y1="581.7" x2="788.2" y2="205.5"/>
<line fill="none" stroke="#000000" stroke-miterlimit="10" x1="789.2" y1="580.6" x2="413" y2="204.4"/>
<line fill="none" stroke="#000000" stroke-width="2" stroke-miterlimit="10" x1="846.2" y1="498.3" x2="356" y2="288.2"/>
<line fill="none" stroke="#000000" stroke-width="2" stroke-miterlimit="10" x1="353.9" y1="498.2" x2="844.9" y2="287.8"/>
<line fill="none" stroke="#000000" stroke-width="2" stroke-miterlimit="10" x1="706.1" y1="637.1" x2="497.6" y2="150.3"/>
<line fill="none" stroke="#000000" stroke-width="2" stroke-miterlimit="10" x1="494.5" y1="637.2" x2="703" y2="150.4"/>
<ellipse cx="598.8" cy="106.9" rx="17.2" ry="18"/>
<ellipse cx="598.8" cy="682.5" rx="17.2" ry="18"/>
<ellipse cx="893.1" cy="393.6" rx="17.2" ry="18"/>
<ellipse cx="313.3" cy="396" rx="17.2" ry="18"/>
<ellipse cx="808.1" cy="192.4" rx="17.2" ry="18"/>
<ellipse cx="808.1" cy="595.6" rx="17.2" ry="18"/>
<ellipse cx="401.1" cy="185.4" rx="17.2" ry="18"/>
<ellipse cx="397.1" cy="597.6" rx="17.2" ry="18"/>
<ellipse cx="599.9" cy="393.3" rx="9.3" ry="9.7"/>
</svg>
