<?xml version="1.0" encoding="utf-8"?>
<!-- Generator: Adobe Illustrator 18.1.1, SVG Export Plug-In . SVG Version: 6.00 Build 0)  -->
<!DOCTYPE svg PUBLIC "-//W3C//DTD SVG 1.1//EN" "http://www.w3.org/Graphics/SVG/1.1/DTD/svg11.dtd">
<svg version="1.1" id="Layer_1" xmlns="http://www.w3.org/2000/svg" xmlns:xlink="http://www.w3.org/1999/xlink" x="0px" y="0px"
	 viewBox="1 221 787 389.9" enable-background="new 1 221 787 389.9" xml:space="preserve">
<polygon fill="#010101" points="392.9,222.1 376.9,283.7 405.8,283.7 "/>
<polygon fill="#010101" points="289.4,457.8 281.4,488.9 296,488.9 "/>
<rect x="373.9" y="286.8" fill="#010101" width="34.9" height="23.7"/>
<rect x="373.9" y="314.5" fill="#010101" width="34.9" height="3.8"/>
<rect x="366.5" y="322.8" fill="#010101" width="52.5" height="19"/>
<rect x="357.1" y="345.1" fill="#010101" width="69" height="62.4"/>
<rect x="362.1" y="410.8" fill="#010101" width="60" height="193.9"/>
<ellipse fill="#FFFFFF" stroke="#010101" stroke-width="0.5" stroke-miterlimit="10" cx="391.8" cy="378.1" rx="21.5" ry="20.6"/>
<rect x="372.3" y="407.5" fill="#FFFFFF" width="3.6" height="203.5"/>
<rect x="390.4" y="407.5" fill="#FFFFFF" width="3.6" height="203.5"/>
<rect x="408.6" y="407.5" fill="#FFFFFF" width="3.6" height="203.5"/>
<rect x="419.6" y="555.7" width="368.5" height="55.3"/>
<rect x="1" y="555.7" width="363.8" height="55.3"/>
<rect x="435.2" y="415.5" width="36.3" height="168"/>
<rect x="507.6" y="419" width="36.3" height="168"/>
<rect x="63.7" y="499.3" width="72.6" height="75.4"/>
<rect x="21.9" y="542.2" width="41.8" height="32.7"/>
<rect x="277.4" y="488.9" width="38" height="102.3"/>
<rect x="552.1" y="488.9" width="20.9" height="86.1"/>
<rect x="635.4" y="488.9" width="19" height="86.1"/>
<rect x="572.7" y="520.5" width="67.7" height="59.7"/>
<rect x="722.3" y="515" width="15.4" height="72.1"/>
<rect x="682.5" y="531.8" width="25.3" height="51.7"/>
<polygon fill="#010101" points="306,457.8 298,488.9 312.6,488.9 "/>
<rect x="169.6" y="529.6" width="24.5" height="61.6"/>
<polygon fill="#010101" points="183.9,501.5 179.2,532.3 187.7,532.3 "/>
<rect x="620.9" y="514.7" fill="#010101" width="8.2" height="6.9"/>
<rect x="607.4" y="514.7" fill="#010101" width="8.2" height="6.9"/>
<rect x="593.6" y="514.7" fill="#010101" width="8.2" height="6.9"/>
<rect x="580.2" y="514.7" fill="#010101" width="8.2" height="6.9"/>
<polygon fill="#010101" points="562.7,458.1 558.1,488.9 566.6,488.9 "/>
<polygon fill="#010101" points="644.9,460.8 640.5,491.6 648.7,491.6 "/>
<path fill="#010101" d="M74.4,502.1c0,0,1.9-29.4,28.1-28.9c0,0,20.9-2.8,23.7,28.9"/>
<rect x="97.3" y="460.8" fill="#010101" width="7.1" height="26.9"/>
<rect x="684.4" y="526" fill="#010101" width="7.2" height="26.9"/>
<rect x="697.9" y="526" fill="#010101" width="7.1" height="26.9"/>
</svg>
