<?xml version="1.0" encoding="utf-8"?>
<!-- Generator: Adobe Illustrator 18.1.1, SVG Export Plug-In . SVG Version: 6.00 Build 0)  -->
<!DOCTYPE svg PUBLIC "-//W3C//DTD SVG 1.1//EN" "http://www.w3.org/Graphics/SVG/1.1/DTD/svg11.dtd">
<svg version="1.1" id="Layer_1" xmlns="http://www.w3.org/2000/svg" xmlns:xlink="http://www.w3.org/1999/xlink" x="0px" y="0px"
	 viewBox="0 422.1 288 153.9" enable-background="new 0 422.1 288 153.9" xml:space="preserve">
<g>
	<polygon fill="#010101" points="144.3,430.5 138.5,452.9 149,452.9 	"/>
	<polygon fill="#010101" points="105.2,516.6 102.3,527.9 107.6,527.9 	"/>
	<rect x="137.4" y="454.4" fill="#010101" width="12.7" height="8.6"/>
	<rect x="137.4" y="464.5" fill="#010101" width="12.7" height="1.4"/>
	<rect x="134.7" y="467.5" fill="#010101" width="19.1" height="6.9"/>
	<rect x="131.3" y="475.6" fill="#010101" width="25.1" height="22.7"/>
	<rect x="133.1" y="499.5" fill="#010101" width="21.8" height="70.5"/>
	<ellipse fill="#FFFFFF" stroke="#010101" stroke-width="0.5" stroke-miterlimit="10" cx="143.9" cy="487.6" rx="7.8" ry="7.5"/>
	<rect x="136.8" y="498.3" fill="#FFFFFF" width="1.3" height="74"/>
	<rect x="143.4" y="498.3" fill="#FFFFFF" width="1.3" height="74"/>
	<rect x="150" y="498.3" fill="#FFFFFF" width="1.3" height="74"/>
	<rect x="154" y="552.2" width="134" height="20.1"/>
	<rect x="1.8" y="552.2" width="132.3" height="20.1"/>
	<rect x="159.7" y="501.2" width="13.2" height="61.1"/>
	<rect x="186" y="502.5" width="13.2" height="61.1"/>
	<rect x="24.6" y="531.7" width="26.4" height="27.4"/>
	<rect x="1.8" y="542.7" width="7.6" height="16.5"/>
	<rect x="10.1" y="547.3" width="14.5" height="11.9"/>
	<rect x="102.3" y="527.9" width="13.8" height="37.2"/>
	<rect x="202.2" y="527.9" width="7.6" height="31.3"/>
	<rect x="232.5" y="527.9" width="6.9" height="31.3"/>
	<rect x="209.7" y="539.4" width="22.7" height="21.7"/>
	<rect x="264.1" y="537.4" width="5.6" height="26.2"/>
	<rect x="249.6" y="543.5" width="9.2" height="18.8"/>
	<polygon fill="#010101" points="113.8,516.6 110.9,527.9 116.2,527.9 	"/>
	<rect x="63.1" y="542.7" width="8.9" height="22.4"/>
	<polygon fill="#010101" points="68.3,532.5 66.6,543.7 69.7,543.7 	"/>
	<rect x="227.2" y="537.3" fill="#010101" width="3" height="2.5"/>
	<rect x="222.3" y="537.3" fill="#010101" width="3" height="2.5"/>
	<rect x="217.3" y="537.3" fill="#010101" width="3" height="2.5"/>
	<rect x="212.4" y="537.3" fill="#010101" width="3" height="2.5"/>
	<polygon fill="#010101" points="205.7,516.7 204,527.9 207.1,527.9 	"/>
	<polygon fill="#010101" points="236.3,517.7 234.7,528.9 237.7,528.9 	"/>
	<path fill="#010101" d="M28.5,532.7c0,0,0.7-10.7,10.2-10.5c0,0,7.6-1,8.6,10.5"/>
	<rect x="36.8" y="517.7" fill="#010101" width="2.6" height="9.8"/>
	<rect x="250.3" y="541.4" fill="#010101" width="2.6" height="9.8"/>
	<rect x="255.2" y="541.4" fill="#010101" width="2.6" height="9.8"/>
</g>
</svg>
