<?xml version="1.0" encoding="utf-8"?>
<!-- Generator: Adobe Illustrator 18.1.1, SVG Export Plug-In . SVG Version: 6.00 Build 0)  -->
<!DOCTYPE svg PUBLIC "-//W3C//DTD SVG 1.1//EN" "http://www.w3.org/Graphics/SVG/1.1/DTD/svg11.dtd">
<svg version="1.1" id="Layer_1" xmlns="http://www.w3.org/2000/svg" xmlns:xlink="http://www.w3.org/1999/xlink" x="0px" y="0px"
	 viewBox="115.2 216 350.2 576" enable-background="new 115.2 216 350.2 576" xml:space="preserve">
<rect x="117.1" y="216" fill="#FFFFFF" width="348.3" height="576"/>
<g>
	<g>
		<defs>
			<rect id="SVGID_1_" x="117.1" y="269.9" width="348.3" height="522.1"/>
		</defs>
		<clipPath id="SVGID_2_">
			<use xlink:href="#SVGID_1_"  overflow="visible"/>
		</clipPath>
		<g id="nbVllj.tif" clip-path="url(#SVGID_2_)">
			<g>
				<path d="M-4.7,363.1c3.3-1.9,4.2-4.7,3.8-8.4c-0.7-5.7,0.8-11.3-1.7-17.1c-1.5-3.5,1.6-7.2,3.5-11c2.1,5,4.8,8.7,2.3,14.7
					c-1.8,4.4-0.4,10.1-0.4,15.8c10.1-7,19.6-14.2,30.1-19.6c4.8-2.5,6.9-5.5,6-10.8c-0.7-4.3,0.4-8.7-1.7-13.1
					c-1.6-3.6,1.4-7.2,3.4-11.3c2.2,5.1,4.9,8.7,2.3,14.5c-1.8,4-0.3,9.5-0.3,15c5.9-3.4,11.8-5.9,18.7-7.3
					c-11.4-7.2-15.6-17.3-12.8-29.4c3-13.2,11.5-21.7,25-24.5c0.7-0.1,1.3-0.1,1.6-0.9c3,0,6,0,9,0c3.2,1.4,7.3-0.6,10.1,2.6
					c-1,1.2,0.3,3.3-1.5,4.2c-5.1-0.2-10-1.9-15.3-1.5c-17,1-29.3,19.6-23,34.8c3,7.2,11,12.6,18.3,12.5c3.3,0,5.1-1.2,4.9-4.7
					c-0.4-7.1,1-14.2-1.7-21.2c-1.4-3.6,0.5-7.2,2.9-10.1c0.8-1,2.1-1.2,3.1-0.2c2.8,3,4.2,6.8,2.8,10.6c-2.4,6.7-1,13.5-1.5,20.5
					c4.4-2.4,4.6-2.7,2.8-7c-1.1-2.7-0.9-5,1.5-6.6c2-1.5,4.1-1.3,5.6,0.9c0.5,1.1-1.3,1.5-0.6,2.5c-0.3,0.7,0.6,0.7,0,0.5
					c0,0,0-0.5,0.1-0.8c0.1-0.7,0.5-1.1,1.3-1.2c3.3,5,0.6,9.2-1.9,13.3c-1.4,2.3-3.6,3.9-6.2,6.4c11.9,4.8,21.5,11.8,27.8,22.8
					c-0.7-17.2,1.9-34.3-1.5-51.4c0.2-2.5,2.4-1.7,3.7-2.3c2.5-0.3,2.1-3.9,4.8-3.9c1.6,0.7,2.1,2.1,2.3,3.6
					c-5.1,17.8-1.2,36-2.5,54c6.4-10.9,15.8-18,27.8-22.7c-1.9-2.4-4.2-3.8-5.7-6c-2.9-4.2-5.4-8.5-2.5-13.7
					c1.5-0.2,1.5,0.8,1.4,1.8c0.9-1.2-0.9-1.8-0.5-2.9c1.5-2.3,3.5-2.4,5.6-1c2.1,1.5,2.9,3.8,1.6,6.2c-1.8,3.2-1.6,5.6,2.6,8.1
					c-0.2-7,1-13.3-1.1-19.5c-1.3-3.8-0.7-7.3,1.2-10.6c1.6-2.8,3.7-3,5.3-0.2c1.8,3,3.2,6.3,1.8,10c-2.8,6.9-1.1,14.2-1.4,21.2
					c-0.1,3.2,2.3,3.6,4.9,3.6c11.5,0.2,22-12.3,19.9-23.8c-3.1-17.3-18.1-26.9-35.2-22.6c-1.4,0.4-2.9,0.9-4.4,0.7
					c-2.8-0.6-0.6-3.1-1.7-4.4c2.8-3,6.8-1.1,10-2.5c3,0,6,0,9,0c6.4,2,12.7,4.2,17.7,9.1c11.5,11.1,15.4,33.3-3.5,45.6
					c6.3,1.9,12.4,3.4,18.7,7.9c-1-6.8,1.1-12.5-1.7-18.4c-1.9-3.9,1.5-7.5,3.3-12.2c2,5.3,4.5,8.7,2.6,14.5
					c-1.8,5.6-2.5,12.6,0.9,18.7c0.6,2.3-0.7,4.4-0.5,6.7c0.2,53.7,0,107.3,0.1,161c0,3.7-0.2,7.4,1.5,10.8c1.1,2.4-1.4,3.8-1.5,5.9
					c-0.1,49.8,0.1,99.6-0.1,149.4c0,5.1,1.7,8.4,6.2,10.9c8.2,4.5,15.7,10,23.5,15.2c3.5,2.3,4.1,2,4.3-2.1c0.1-1.2,0-2.3,0-3.5
					c0-46.3,0-92.6,0-138.9c0-3,0.1-6-0.7-8.9c0.3-2.6,0.4-5.1,0.7-7.7c0-52.8-0.1-105.5,0.1-158.3c0-7.3-0.2-13.9-6.8-18.5
					c-0.4-2,0.2-3.1,2.4-3c1.6,1,3.3,1.9,5.7,3.4c-1.1-6.7,1-12.8-1.7-18.9c-1.8-3.9,1.5-7.4,3.3-12c2,5.3,4.7,8.8,2.5,14.7
					c-2,5.4-0.7,12.1-0.5,18.2c0.1,1.8,2.5,2.5,3.6,3.8c1.1,2.2-0.4,3.4-1.8,4.6c-0.8,2.3-0.6,4.6-0.6,6.9c0,52.1,0,104.2,0,156.3
					c0,2.8,0,5.7,0.7,8.4c-0.7,2.1,0.1,4.3-0.5,6.4c-0.4,21.2-0.1,42.3-0.1,63.5c-0.1,28.3,0,56.7-0.1,85c0,4.1,0.5,8,3.3,11.2
					c0.8,2,1.3,4-1.3,5.3c-2.2,0.9-2,2.9-2,4.7c0,18.6,0,37.3-0.1,55.9c0,3.6,1.2,5.2,4.9,5.1c7.8-0.1,15.6-0.1,23.5,0
					c3.1,0,4.6-1.3,4.6-4.5c0-11.2,0.1-22.3-0.1-33.5c0-1.9-0.7-3.6-1.5-5.3c-0.8-2.1-0.5-4,0.9-5.7c0.8-2.3,0.6-4.6,0.6-6.9
					c0-46.6,0-93.3,0-139.9c0-4-0.1-8-0.9-11.9c2.1-3.8,2.1-7.9,2.1-12.1c-0.1-52.1,0-104.3,0-156.4c0-2.3,0.3-4.7-0.4-6.9
					c-0.7-2.1-2.7-3.4-3.5-5.4c0.1-1.5,0.7-2.5,2.5-2.1c0.7,0.1,2.1,1.5,1.9-0.5c-0.5-5.5,1-11.1-1.2-16.7
					c-1.5-3.8,1.3-7.4,3.6-11.1c2.3,4.9,4.5,8.6,2.1,14.5c-2,4.9-0.4,11.2-0.3,16.8c0,0.7,0.7,1.5,1.3,1.9c11,7.8,22,15.7,34.7,22.1
					c-1.2-7.2,1.1-13.8-1.8-20.5c-1.3-3.1,1.7-7.1,3.9-10.7c1.9,5.1,4.6,8.8,2.1,14.7c-2.1,5-0.5,11.5-0.4,17.3
					c0,1.9,1.9,2.1,3.2,2.7c10.3,4.8,21,8.6,32.8,11.6c-0.9-6.8,1.4-13.3-1.5-19.9c-1.6-3.7,1.6-7.3,3.9-11.8
					c1.6,5.5,4.9,8.9,2.1,14.9c-2.1,4.5-0.4,10.8-0.5,16.3c0,1.8,1.3,2.2,2.6,2.4c10,1.7,19.9,3.3,29.9,5c2.9,0.5,3.8-0.6,3.5-3.4
					c-0.7-5.6,0.9-11.3-1.7-17c-1.5-3.3,1.9-6.9,3.7-11.5c2,5.6,5.1,9.1,2.4,15.1c-2,4.4-0.5,10.5-0.4,15.8c0,2,1.8,1.8,3,1.8
					c3.3,0.2,6.6,0.3,10,0.4c0.1,0.6-0.1,1-0.7,1.2c-3.1,0.1-6.3,0.1-8.3,0c2.3-0.7,6,1.1,9.4-0.8c4.9-0.2,9.9-0.6,14.8,0.8
					c1.6,0,3.3,0,4.1,0c-0.5,0.1-1.8-0.1-3.1,0c-0.9-0.1-2.1,0.3-2.1-1.3c9-0.5,9.1-0.5,8.9-9.8c-0.1-3.8,0.2-7.5-1.6-11.5
					c-1.6-3.4,1.8-6.9,3.2-10.7c2.8,2.2,2.5,5.6,4.5,7.8c0,1.3,0,2.7,0,4c-1.6,2.4-1,5.2-1,7.8c0,116.8,0,233.6-0.1,350.4
					c0,2.6,0.7,5.4-1,7.8c-212,0-424,0-636,0c-1.7-2.4-1-5.2-1-7.8c0-116.8,0-233.6-0.1-350.4c0-2.6,0.6-5.4-1-7.8c0-1.3,0-2.7,0-4
					c1.2-2.4,2.4-4.9,4.4-8.8c1.1,5.6,4.8,8.4,2.3,14.4c-2.1,4.9-0.6,11.4-0.5,17.2c0,1.3,1.4,1.1,2.3,1.1c2.2,0.1,4.3,0.2,6.5,0.2
					c0.1,1.6-1.2,1.2-2,1.3c-1.3,0-2.7,0.1-3,0c0.6,0,2.3,0,3.9,0c4.9-1.5,9.8-1,14.8-0.9c3.3,2,7.1,0.1,9.4,0.9
					c-2-0.1-5.2,0.1-8.3-0.1c-0.6-0.2-0.8-0.6-0.7-1.2c4.1-0.6,9.4,1.6,12.1-1.2c2.7-2.9,0.7-8.2,0.9-12.5c0.1-2.4-0.3-4.6-1.4-7.1
					c-2-4.2,2-7.5,3.3-11.2c2.1,4.5,5.3,8,2.6,14c-2,4.3-0.4,10.1-0.4,15.3c0,1.9,1.4,1.6,2.5,1.5c10.5-1.2,21-3,31.4-5.1
					c1.5-0.3,2.4-1.1,2.2-2.8c-0.9-6.3,1.5-12.6-1.7-19c-1.7-3.5,1.8-7.1,3.6-12c1.6,5.6,5.3,8.7,2.7,14.9c-2,4.8-0.4,11.1-0.4,17.1
					c11.8-2.9,22.8-7,33.6-11.9c1.9-0.9,2.5-2,2.3-3.8c-0.8-6.4,1.4-13-1.7-19.5c-1.6-3.4,1.7-7.1,3.6-11.3
					c1.9,5.2,4.9,8.7,2.5,14.7c-1.9,4.7-0.4,10.8-0.4,16.7c12.4-6.3,23.4-14.1,34.4-22c0.6-0.4,1.4-1.3,1.3-1.9
					c-0.7-6.5,1.5-13.1-1.4-19.5c-1.9-4.2,1.2-7.8,3.5-12.5c1.4,5.2,4.8,8.4,2.6,14.1c-1.7,4.3-0.6,9.8-0.4,14.8
					c0.1,1.4,1.2-0.1,1.8,0c1.8-0.4,2.3,0.6,2.5,2.1c-0.8,2.1-2.8,3.3-3.5,5.4c-0.6,2.1-0.3,4.3-0.3,6.5c0,52.3,0,104.5,0,156.8
					c0,4.2,0,8.3,2.1,12.1c-0.8,3.9-0.9,7.9-0.9,11.9c0,46.5,0,93,0,139.5c0,2.5-0.3,5,0.6,7.4c1.4,1.7,1.7,3.7,0.8,5.7
					c-1.2,2.3-1.5,4.7-1.5,7.3c0,10,0,20,0,30c0,5.4,0.5,5.8,5.6,5.9c7.3,0.1,14.7-0.1,22,0.1c3.7,0.1,5.4-1.2,5.4-5.1
					c-0.1-18.6,0-37.3-0.1-55.9c0-1.8,0.2-3.8-2.1-4.6c-2.5-1.3-2.1-3.2-1.2-5.3c2.1-2.7,3.3-5.7,3.3-9.2c0-49.2,0-98.3-0.1-147.5
					c0-1-0.1-2-0.2-3c-0.5-2.1,0.2-4.3-0.5-6.3c0.7-3,0.7-6,0.7-9c0-51.8,0-103.6,0-155.4c0-2.5,0.2-5-0.7-7.4
					C-4.3,366.5-5.7,365.2-4.7,363.1z"/>
				<path fill="#FEFEFE" d="M435.3,781.9c0-120,0-240,0-360.1c0-2.1-1.2-4.8,2-5.9c0,120.7,0,241.3-0.1,362
					C437.2,779.1,439.3,782.2,435.3,781.9z"/>
				<path fill="#FEFEFE" d="M-202.7,415.9c3.2,1.1,2,3.9,2,5.9c0.1,78.7,0,157.5,0,236.2c0,41.3,0,82.6,0,123.8c-0.6-0.4-2.1,1-2-1
					c0.1-1.2,0-2.3,0-3.5C-202.7,656.9-202.7,536.4-202.7,415.9z"/>
				<path fill="#FEFEFE" d="M120.4,290.9c-0.7,1.6-1.3,3.2-2.3,4.7c-1.2,1.9-1.6,0.3-2-0.7c-0.8-0.4-1.4-0.9-1.8-1.6
					c-4-8.3-10.2-14.4-18.4-18.4c-0.8-0.4-1.2-1.1-1.6-1.8c-3-2.1-6.8-1.5-10-3.1c22,0,44,0,66,0c-3.2,1.5-7,1.1-10,3.1
					c-0.5,1.1-1.4,1.8-2.4,2.3c-6.4,3.1-11.5,7.7-15.3,13.6C122.1,289.8,121.3,290.5,120.4,290.9z"/>
				<path fill="#050505" d="M238.2,365.9c0.3-0.9,0.7-1.9,1-2.8c10.3,7.3,20.4,14.7,30.2,22.8c-0.7,0.6-1.4,1.3-2.1,1.9
					c-1.5,0.8-2.5-0.3-3.5-1.1c-7.9-5.8-15.7-11.7-23.5-17.6C239.3,368.3,238,367.6,238.2,365.9z"/>
				<path fill="#050505" d="M226.4,353.8c-1,0.4-1.7,1-2.1,2c-1.9,0.8-3.2-0.6-4.5-1.5c-7.9-5.4-16.2-10.4-24.5-15.3
					c1.4-1,0.3-3.1,1.9-4C207.5,340.5,217.3,346.7,226.4,353.8z"/>
				<path fill="#0A0A0A" d="M422.3,436.1c0.7,0.3,1.3,0.6,2,0.9c0.3,0.2,0.4,0.4,0.3,0.6s-0.2,0.3-0.3,0.3c-5.3-1.1-10.6-1-16-1l0,0
					c0-0.3,0-0.6,0-0.8C413,436.1,417.6,436.1,422.3,436.1z"/>
				<path fill="#050505" d="M-32.7,387.8c-0.7-0.6-1.4-1.3-2.1-1.9c9.7-8,19.9-15.5,30.2-22.7c0.4,0.9,0.7,1.9,1.1,2.8
					c0.3,1.7-1.1,2.4-2.1,3.1c-7.8,6-15.6,11.9-23.5,17.6C-30.2,387.4-31.2,388.6-32.7,387.8z"/>
				<path fill="#0A0A0A" d="M-189.7,436.9c0.7-0.3,1.3-0.6,2-0.9c4.7,0,9.4,0,14,0c0,0.3,0,0.6,0,0.8l0,0c-5.4,0-10.7-0.1-16,1
					c-0.3-0.2-0.4-0.4-0.3-0.6C-189.9,437-189.8,436.9-189.7,436.9z"/>
				<path fill="#FEFEFE" d="M195.4,339.1c2.1-1.1,3.4,0.7,4.8,1.5c8.1,5,16.1,10.1,24.1,15.2c6.7,3.3,7.7,8.8,7.7,15.9
					c-0.3,52.8-0.2,105.6-0.1,158.4c0,1.8,0.2,3.6,0.3,5.5c-1.6,1.7-3.1,0.5-4.4-0.3c-9.3-6.2-18.5-12.5-28-18.3
					c-0.7-0.4-1.2-1.1-1.6-1.9c-2.9-1.2-2.7-3.8-2.7-6.3c0-54.8,0-109.5,0-164.3C195.6,342.7,195.5,340.9,195.4,339.1z"/>
				<path fill="#FEFEFE" d="M7.3,533.9c-1.3,0.7-2.5,1.5-3.7,2.2c-1.5-1.1-0.7-2.6-0.7-3.8c0-55.3,0-110.6-0.1-165.8
					c0-3.8,1.3-6,4.3-8.1c9.2-6.4,18.6-12.6,28.3-18.4c2.8-1.7,3.8-1.7,3.8,2.1C39,398,39,454,39,509.9c0,2.7-1,4.1-3.3,5.4
					c-5.3,3-10.4,6.3-15.5,9.5C16.7,529,12.5,532.2,7.3,533.9z"/>
				<path fill="#FEFEFE" d="M-80.7,418.8c0,34,0,67.3,0,100.6c0,23.7-0.1,47.3,0.1,71c0,3.1-0.9,4.6-3.8,5.8
					c-9,3.8-18.1,7-27.3,10.1c-4.8,1.6-4.9,0-4.9-3.9c0.1-55.3,0.1-110.6,0-165.9c0-3.4,0.5-5.1,4.4-6.1
					C-101.7,427.8-91.4,423.8-80.7,418.8z"/>
				<path fill="#FEFEFE" d="M315.3,418.8c11.3,5.1,22.2,9.4,33.6,12.1c3,0.7,2.3,2.7,2.3,4.6c0,21,0,42,0,63
					c0,34.8-0.1,69.6,0.1,104.4c0,3.8-0.5,4.8-4.5,3.5c-9.6-3.1-19.1-6.4-28.2-10.5c-1.9-0.8-3.3-1.4-3.3-4.1
					C315.4,534.4,315.3,476.9,315.3,418.8z"/>
				<path fill="#FEFEFE" d="M238.2,365.9c9.7,7.3,19.4,14.6,29.1,21.8c1.3,1,2.7,2.1,4,3.1c0.9,1.6,0.4,3.3,0.4,4.9
					c0,55,0,110,0,165c0,1.7,1,4.1-0.9,5s-3.8-0.7-5.4-1.9c-8.3-6.2-16.5-12.4-24.8-18.6c-1.5-1.1-2.6-2.6-3.4-4.2
					c-1.8-1.2-1.8-3-1.8-4.8c0-56,0-112,0-167.9C235.5,366.7,234.5,363.5,238.2,365.9z"/>
				<path fill="#FEFEFE" d="M-32.7,387.8c9.7-7.3,19.4-14.6,29.1-21.8c1.1-0.3,2.8-2.6,2.7,0.9c0,0.8,0,1.7,0,2.5
					c0,55.3,0,110.6,0,166c0,2.1,0.5,4.4-1.8,5.8c-0.3,0.6-0.5,1.3-1,1.7c-9.3,8.4-19.5,15.5-29.8,22.6c-3.1,2.2-3.8-0.3-3.7-3.1
					c0.1-15.8,0-31.7,0-47.5c0-39.5,0-79,0-118.5c0-1.8-0.4-3.7,0.4-5.4C-35.4,389.9-34,388.8-32.7,387.8z"/>
				<path fill="#FEFEFE" d="M-40.8,394.3c0,57.9,0,114.9,0,171.9c0,1.4,0.4,2.9-1.2,4c-11.1,7.8-22.1,15.6-34.7,22.2
					c0-2.1,0-3.5,0-5c0-55.3,0-110.6-0.1-165.9c0-3.4,1-5.2,4.1-6.8c9.6-4.9,18.4-11.1,27.2-17.3C-44.2,396.3-42.9,395.5-40.8,394.3
					z"/>
				<path fill="#FEFEFE" d="M275.4,394.1c11.8,8.1,22.5,15.9,34.3,21.9c2.4,1.2,1.6,3.4,1.6,5.3c0,40.8,0,81.6,0,122.4
					c0,16,0,32,0,48.4c-7.4-3.1-13.5-7.5-19.8-11.7c-5.4-3.6-12.5-6.4-15.3-11.5c-2.6-4.7-0.8-12-0.8-18.2c0-50.3,0-100.6,0-150.9
					C275.4,398.3,275.4,396.7,275.4,394.1z"/>
				<path fill="#FEFEFE" d="M42.6,675.2c0-52.6,0-104.5,0-156.3c0-2.5,0.7-3.9,3-5c9.4-4.8,19.3-8.6,29.3-12c3.2-1.1,4.1-0.6,4.1,3
					c-0.2,17.2-0.1,34.3-0.1,51.5c0,33.3,0,66.7,0.1,100c0,3.3-0.6,4.8-4.2,5.8C63.8,665.2,53.4,669.7,42.6,675.2z"/>
				<path fill="#FEFEFE" d="M192,675.1c-11.3-5.5-22.1-10.4-33.6-13.3c-1.8-0.5-3-1.3-2.7-3.5c0.1-0.7,0-1.3,0-2
					c0-50.2,0.1-100.3-0.1-150.5c0-4.7,1.4-4.9,5.1-3.6c9.7,3.3,19.2,7,28.3,11.7c2,1,2.9,2.1,2.9,4.5
					C192,570.4,192,622.4,192,675.1z"/>
				<path fill="#FEFEFE" d="M22.5,527c5.2-3,10.5-6.1,15.6-9.1c1.5,0.9,0.8,2.2,0.8,3.2c0,50.5,0,100.9,0.1,151.4
					c0,3.5-1.1,5.3-4.1,7c-11,6-21.3,13.3-31.6,20.5c-1.3-1.5-0.6-3.1-0.6-4.4c0-49,0-97.9-0.1-146.9c0-5.2,0.6-9.4,5.6-11.9
					C12.1,532.1,17,529.2,22.5,527z"/>
				<path fill="#FEFEFE" d="M230.3,539.7c1.6,1.1,1.5,2.8,1.5,4.5c0,51.8,0,103.5,0,155.6c-2-0.2-3.3-1.5-4.7-2.5
					c-8.8-6.2-17.7-12.3-27.1-17.4c-3.3-1.8-4.5-3.8-4.5-7.7c0.2-49.3,0.1-98.6,0.1-147.9c0-2-0.1-4-0.2-6c1.5-1.9,3.1-0.5,4.4,0.2
					c9.8,5.4,18.8,11.9,28.1,18.2C229,537.3,229.8,538.4,230.3,539.7z"/>
				<path fill="#FEFEFE" d="M319.3,760.1c-2.2-1.1-4-2-4-5.3c0.2-51.3,0.1-102.6,0.1-153.9c0-0.6,0.1-1.2,0.2-2.3
					c9.7,4.1,19,8.3,29,10.6c5.3,1.2,7,3.3,7,9.1c-0.3,49.3-0.2,98.6-0.1,147.9c0,4.4-0.8,5.5-5.1,3.8c-4.4-1.7-9.1-2.8-13.7-4.2
					C327.7,764.9,322.9,763.9,319.3,760.1z"/>
				<path fill="#FEFEFE" d="M-98,765.7c-4.9,1.5-9.9,2.7-14.6,4.5c-3.6,1.4-4.1,0.4-4.1-3.1c0.1-22.8,0.1-45.6,0.1-68.5
					c0-27.8,0-55.6,0.1-83.4c0-1.5-1.4-3.7,1.5-4.5c11.6-3.1,22.8-7.2,34.4-12.4c0,2.3,0,3.9,0,5.5c0,49.8,0,99.6,0.1,149.4
					c0,3.3-0.3,5.9-4,6.8C-88.3,763.9-93.1,764.9-98,765.7z"/>
				<path fill="#FEFEFE" d="M269.3,568.7c1.7,1.1,2.2,2.6,2.2,4.6c-0.1,51.1,0,102.3-0.1,153.4c0,1,1.3,4-2,2.1
					c-1.8-0.3-3.3-1.2-4.8-2.3c-7-5.3-14-10.6-21.1-15.8c-1.4-1-2.6-2.1-3.2-3.7c-4-2.4-4.9-5.8-4.9-10.4
					c0.2-49.1,0.1-98.2,0.1-147.3c0-1.8-0.5-3.7,0.5-5.4c1.6,0.3,3.1,0.8,4.5,1.8c8.6,6.5,17.3,13,26,19.5
					C267.8,566.2,268.8,567.3,269.3,568.7z"/>
				<path fill="#FEFEFE" d="M-1.4,544c1,1.7,0.5,3.6,0.5,5.4c0,49.1,0,98.2,0.1,147.3c0,4.6-0.9,8-4.9,10.4c-0.7,1.8-2.1,2.9-3.6,4
					c-6.8,5-13.5,10.1-20.3,15.2c-1.6,1.2-3.2,2.3-5.2,2.6c-0.7-0.2-1.6,1.9-2.1-0.1c-0.2-1,0-2,0-3c0-50.5,0-100.9,0-151.4
					c0-2.2-0.2-4.4,2.1-5.6c9.5-9.6,20.7-17,31.9-24.4C-2.5,544.1-1.9,544.2-1.4,544z"/>
				<path fill="#FEFEFE" d="M279.3,736c-3.3-1.8-3.9-4.6-3.9-8.3c0.1-51.1,0.1-102.2,0.1-153.6c2.6,0.4,4.1,2.3,5.9,3.5
					c8.9,6.1,17.7,12.2,27.3,17.2c2,1,2.8,2.2,2.8,4.5c-0.1,51.1-0.1,102.2,0,153.3c0,2.7-0.6,3.5-3.1,2.2c-1.7-0.5-3.5-0.7-5.1-1.7
					c-7.3-4.8-14.8-9.4-21.9-14.5C280.4,738,279.7,737.1,279.3,736z"/>
				<path fill="#FEFEFE" d="M-73.7,754.9c-3.4,1.8-3.1-0.4-3.1-2.7c0-40,0-79.9,0-119.9c0-10.7,0.1-21.3-0.1-32
					c-0.1-3,0.9-4.6,3.7-6c11.1-5.8,21.3-13.2,32.3-20.8c0,2.1,0,3.5,0,4.9c0,49.8,0,99.6,0.1,149.3c0,3.6-0.6,6.5-3.9,8.3
					c-0.9,2.4-3.1,3.3-5,4.6c-5.9,4.3-12.2,7.9-18.1,12C-69.6,753.9-71.6,754.5-73.7,754.9z"/>
				<path fill="#FEFEFE" d="M121.3,495.7c9,0.2,17.8,1.7,26.6,3.2c3.2,0.5,4.2,1.9,4.2,5.2c-0.1,50.5-0.1,101,0,151.4
					c0,4.1-0.9,4.3-4.7,3.6c-7.8-1.5-15.7-2.6-23.7-2.9c-4.4-0.2-4.5-1.9-4.5-5.3c0.1-33.3,0-66.6,0.1-100c0-18.3,0-36.7,0-55
					C119.9,495.3,120.6,495.3,121.3,495.7z"/>
				<path fill="#FEFEFE" d="M115.2,496c0,52,0,104,0.1,155.9c0,3.2-0.8,4-4,4.2c-8.3,0.4-16.6,0.9-24.6,3.1
					c-4.4,1.2-4.2-0.6-4.2-3.7c0.1-13,0-26,0-39c0-37.3,0.1-74.6-0.1-112c0-3.7,1.1-5.2,4.7-5.8c8.7-1.5,17.3-2.8,26.1-3.1
					C114,495.3,114.7,495.3,115.2,496z"/>
				<path fill="#FEFEFE" d="M42.6,510.7c0-1.5,0-2.9,0-4.4c0-55.1,0.1-110.2-0.1-165.4c0-4,1.3-5.7,4.7-7.4
					c8.6-4.2,17.4-6.2,26.9-5.6c3.3,0.2,5.1,1.1,4.8,5c-0.4,6-0.1,12-0.1,18c0,1.3,0.6,3-2.1,2.7c-10.8-1.1-18.6,3.7-23.6,13
					c-5.1,9.7-4.2,19.2,2,28.1c5,7.1,11.8,11.6,20.4,13.1c2.5,0.4,3.4,1.1,3.4,3.6c-0.1,27.6,0,55.3,0,82.9c0,1.7-0.1,3-2.3,3.6
					c-11.2,3-21.9,7.3-32.2,12.7C44,510.8,43.4,510.7,42.6,510.7z"/>
				<path fill="#FEFEFE" d="M192,511.4c-11.6-5.6-22.8-10.5-34.6-13.6c-2.6-0.7-1.6-3-1.6-4.6c-0.1-24.8,0-49.6,0-74.4
					c0-1,0.1-2,0-3c-0.9-5.2,0.8-7.3,6.4-8.9c20.7-5.7,29.2-28.4,16.9-44.2c-5.1-6.5-11.9-10.1-20.3-9.1c-2.8,0.3-3-0.6-3-2.8
					c0.1-6.2,0.2-12.3,0-18.5c-0.1-3.3,1.5-4,4.1-4.2c10.9-1.1,20.9,1.9,30.5,7c2.5,1.3,1.7,3.3,1.7,5.2c0,20,0,40,0,60
					C192,436.9,192,473.7,192,511.4z"/>
				<path fill="#FEFEFE" d="M355.3,432.8c11.5,2.3,22.5,4.7,33.7,5.3c3.4,0.2,2.2,2.8,2.2,4.5c0.1,22.7,0,45.3,0,68
					c0,1.7-0.2,3.4,0,5c1.1,8.8-0.1,14.4-10.5,18.5c-18.2,7-23.2,29.8-11.5,43.8c4.8,5.7,11,9,18.6,9c2.4,0,3.6,0.2,3.5,3.1
					c-0.2,6.7-0.1,13.3,0,20c0,1.9-0.2,2.9-2.6,3.1c-10.9,0.8-21.4-2-31.9-4.2c-2.7-0.5-1.5-2.6-1.5-4c-0.1-12-0.1-24-0.1-36
					c0-43.5,0-87,0-130.4C355.3,436.7,355.3,434.9,355.3,432.8z"/>
				<path fill="#FEFEFE" d="M-120.7,521c0,27.8,0,55.6,0,83.5c0,2.8-0.3,4.5-3.6,5c-9.6,1.5-19.1,4.3-29,3.7c-2.8-0.2-3.6-1-3.5-3.8
					c0.2-6.5,0.1-13,0.1-19.5c0-1.8-0.1-3.1,2.5-3c12.5,0.4,22.3-9.3,24.8-19.1c2.7-10.6-1.8-23.8-11.2-30.9
					c-3.9-2.9-8.1-5.3-12.9-6c-2.5-0.4-3.2-1.5-3.2-3.9c0.1-28.5,0.1-57,0-85.5c0-2.6,0.8-3.4,3.4-3.6c9.6-0.4,19.1-2.1,28.4-4.4
					c4.1-1,4.3,0.1,4.3,3.5C-120.8,465-120.7,493-120.7,521z"/>
				<path fill="#FEFEFE" d="M-120.7,612.4c0,18.5,0,36.5,0,54.5c0,33.6,0,67.3,0.1,100.9c0,3.3-0.5,4.8-4.3,5.5
					c-9.4,1.7-18.8,4-28.5,3.7c-2.6-0.1-3.4-0.8-3.3-3.4c0.2-6.7,0.1-13.3,0.1-20c0-1.4-0.4-2.8,2.1-2.8
					c12.7,0.1,22.6-8.6,25.6-20.3c2.7-10.7-3.1-24.3-13.3-31.1c-3.5-2.3-7.2-4.1-11.3-4.8c-2.2-0.4-3.2-1.3-3.2-3.9
					c0.1-23.5,0.1-47,0.1-70.5c0-1.4-0.9-3.6,2.1-3.3C-143.1,617.9-132.3,614.1-120.7,612.4z"/>
				<path fill="#FEFEFE" d="M355.5,612.5c5.2,0.9,10.3,1.5,15.2,2.7c5.7,1.4,11.4,2,17.3,1.7c2.4-0.1,3.5,0.1,3.5,3
					c-0.1,23.7-0.2,47.3,0,71c0,3.3-2,3.4-3.9,3.9c-12.3,3.2-20.1,10.9-23.5,23.1c-4.4,16,7.2,32.2,23.8,32.9c3,0.1,3.5,0.9,3.4,3.6
					c-0.2,6.3-0.2,12.7,0,19c0.1,2.8-0.7,3.6-3.6,3.7c-10.4,0.5-20.4-2.3-30.4-4.1c-2.9-0.5-2-2.7-2-4.3c-0.1-12,0-24,0-36
					c0-39.1,0-78.3,0-117.4C355.3,614.4,355.4,613.5,355.5,612.5z"/>
				<path fill="#FEFEFE" d="M155.7,721.2c0-17.5,0.1-35-0.1-52.5c0-3.5,0.6-4.1,4.1-3c10.1,3.2,19.8,7.2,29.3,11.9
					c2.3,1.2,3,2.5,3,4.9c-0.1,30.5-0.1,61,0,91.5c0,3-0.7,4-3.9,3.9c-9.5-0.2-19-0.3-28.5,0c-3.6,0.1-4-1.3-4-4.3
					C155.8,756.2,155.7,738.7,155.7,721.2z"/>
				<path fill="#FEFEFE" d="M78.9,721.3c0,17.5-0.1,35,0.1,52.5c0,3.1-0.6,4.3-4.1,4.2c-9.5-0.3-19-0.2-28.5,0c-3.2,0.1-3.8-1-3.8-4
					c0.1-30.5,0.1-61,0-91.5c0-2.5,0.8-3.8,3.1-4.9c9.6-4.8,19.5-8.8,29.7-12c3.3-1,3.5-0.2,3.5,2.7
					C78.8,685.9,78.9,703.6,78.9,721.3z"/>
				<path fill="#FEFEFE" d="M115.3,719c0,18.2-0.1,36.3,0.1,54.5c0,3.4-0.6,4.6-4.3,4.5c-8.3-0.3-16.7-0.2-25,0
					c-2.8,0.1-3.7-0.8-3.7-3.6c0.1-35.8,0.1-71.6,0-107.4c0-2,0.3-3.5,2.6-4c9.1-1.7,18.3-3.1,27.6-3.4c3.7-0.1,2.5,2.4,2.5,4
					C115.3,682.1,115.3,700.6,115.3,719z"/>
				<path fill="#FEFEFE" d="M119.3,718.5c0-18.3,0.1-36.6-0.1-55c0-3.2,0.6-4.1,4.1-3.9c8.5,0.4,16.8,1.7,25.1,3.2
					c3.1,0.5,3.6,1.9,3.6,4.6c-0.1,35.5-0.1,71,0,106.4c0,3.3-0.9,4.2-4.2,4.1c-8.2-0.2-16.3-0.3-24.5,0c-3.7,0.1-4.3-1.2-4.3-4.5
					C119.4,755.2,119.3,736.9,119.3,718.5z"/>
				<path fill="#FEFEFE" d="M431.3,554.1c-7.4-14-18.4-22.3-34-24.2c-3.3-0.4-2-2.6-2-4c-0.1-16.8-0.1-33.7-0.1-50.5
					c0-11,0.1-22-0.1-33c0-2.7,0.5-3.8,3.5-3.6c9.8,0.6,19.6,1.1,29.4,0c2.2-0.2,3.2,0.3,3.2,2.9
					C431.3,479.2,431.3,516.7,431.3,554.1z"/>
				<path fill="#FEFEFE" d="M-196.7,554.2c0-1.8,0-3.6,0-5.3c0-35.2,0.1-70.3-0.1-105.5c0-3.9,1-4.9,4.7-4.4
					c9.1,1.1,18.3,0.5,27.4,0c2.7-0.1,4.1,0.1,4.1,3.5c-0.2,28-0.1,56-0.1,84c0,1.7,0.6,3.3-2.4,3.6
					C-178.5,532-189.4,540.2-196.7,554.2z"/>
				<path fill="#FEFEFE" d="M429.1,587.9c0.5-0.8,1-1.7,1.8-3.2c0,45,0,89.2,0,134.1c-0.8-1.3-1.3-2.1-1.8-2.8
					c-1.7-0.7-2.4-2.3-3.1-3.8c-3-5.6-8.7-8.5-12.7-13.2c-4.6-3.1-9.8-4.7-15.3-5c-2.2-0.1-2.8-0.8-2.8-2.9
					c0.1-24.2,0.1-48.5,0-72.7c0-2.5,1.3-2.9,3.2-3.5c4.6-1.4,9-3.1,12.8-6.1c1.1-2.6,3.6-3.8,5.6-5.5
					C422,598.9,424.7,592.7,429.1,587.9z"/>
				<path fill="#FEFEFE" d="M-194.5,715.9c-0.5,0.8-1,1.5-1.9,3c0-45,0-89.2,0-133.7c1.9,1.7,2.1,3.9,3.1,5.7
					c6.6,11.8,16.3,20,29.2,24c2.8,0.9,3.5,2,3.5,4.8c-0.1,23.5-0.1,47,0,70.5c0,2.9-0.5,3.9-3.7,4c-5.1,0.3-10,2-14.3,4.9
					C-184.6,704-189.9,709.7-194.5,715.9z"/>
				<path fill="#FEFEFE" d="M195.6,729.4c0-14.8,0-29.6,0-44.5c0-2.7,0.2-3.8,3.2-2.1c10.7,6.3,21,13.3,31.2,20.4
					c1.5,1.1,2,2.4,2,4.2c-0.1,22.3-0.1,44.6,0,66.9c0,2.9-1,3.6-3.7,3.6c-9.5-0.2-19-0.2-28.5,0c-3.3,0.1-4.2-0.8-4.2-4.1
					C195.7,759,195.6,744.2,195.6,729.4z"/>
				<path fill="#FEFEFE" d="M39,729.9c0,14.5-0.1,29,0.1,43.5c0.1,3.9-1.1,4.7-4.7,4.6c-9.3-0.3-18.7-0.2-28,0
					c-2.8,0-3.7-0.7-3.7-3.6c0.1-22.1,0.1-44.3,0-66.4c0-2.2,0.5-3.7,2.4-5c9.5-6.7,19.1-13.2,29.1-19.1c4.8-2.8,4.8-2.8,4.8,2.6
					C39,700.9,39,715.4,39,729.9z"/>
				<path fill="#FEFEFE" d="M140.3,405.7c1.8,0.7,3.7,2.1,5.5,2c6-0.4,6.4,2.7,6.3,7.6c-0.2,25.5-0.2,50.9,0,76.4
					c0,3.9-0.8,4.8-4.7,3.8c-8.1-2-16.4-2.7-24.7-2.9c-2.4-0.1-3.5-0.5-3.5-3.3c0.1-34.2,0.1-68.5,0.1-103.1c2,0.7,1.8,2.9,3.1,3.7
					C128,395.6,133.8,401,140.3,405.7z"/>
				<path fill="#FEFEFE" d="M115.3,385c0,11.6,0,21.7,0,31.8c0,23.6-0.1,47.3,0.1,70.9c0,3.4-0.5,5.1-4.4,5.1
					c-8.5,0-16.9,1-25.1,3.1c-2.6,0.6-3.4-0.3-3.4-3c0.1-27,0.1-53.9,0-80.9c0-1.9,0-3.6,2.6-3.8C99.2,406.6,108,398,115.3,385z"/>
				<path fill="#FEFEFE" d="M93.6,305.6c-1.8-2.5-3.9-2.3-5.9-0.5c-1.7,1.6-2,4-0.1,5.2c3.8,2.4,1.5,4.5,0,6.6
					c-1.1,1.6-2.4,3.2-5.2,4.2c1.1-8.2-1.5-16.1,1.7-24c1.6-4-1.2-7.6-3.3-12c-2.2,4.9-5.9,8.6-2.2,13.9c0.6,0.8,0.4,2.2,0.4,3.4
					c0,4.5,0,9,0,13.5c0,8.3-2.1,9.9-10.4,7.5c-9.3-2.7-15.2-8.9-16.7-18.4c-1.5-10.1,2.5-18.6,10.3-25c7.7-6.3,16.7-7.6,26.2-5.2
					c1.6,0.4,3.2,0.8,4.8,1.1c8.9,1.7,18.4,11.3,20.1,20.1c3.4,10.2,1.7,20.7,2,31.1c0.2,8.3,0,16.7,0,26.7
					c-7.4-14.4-17.6-23.6-32.1-27.9C89.7,320.5,96.5,315.5,93.6,305.6l-0.3,0.3L93.6,305.6z"/>
				<path fill="#FEFEFE" d="M141,305.6c-2.5,6.2,0.9,10.7,4.3,15.1c1.5,2,3.6,3.4,6.5,5c-14.6,4.7-25.2,13.4-32.5,26.6
					c0-9.5-0.2-19,0.1-28.6c0.2-7.8-1.1-15.6,0.9-23.3c0.6-2.2,1.3-4.4,2-6.6c3.2-9.4,9.6-15.4,19.1-18c10.8-3.2,21.2-3.7,30.6,3.8
					c7.9,6.3,12.1,14.7,10.8,24.8c-1.2,9.4-7,15.8-16.3,18.8c-2.8,0.9-5.6,0.5-8.4,0.6c-1.4,0.1-2.4-0.6-2.4-2
					c-0.1-7.5-1.7-15.5,0.5-22.3c1.8-5.9-0.4-9.3-2.2-14.7c-2.7,5.4-4.4,9.1-2.6,15c2,6.3,0.4,13.8,0.4,21.3
					c-3.5-1.6-5.2-4.3-6.9-7.1c-1.1-1.9,0.3-2.1,1.2-2.9c2.1-1.8,2.6-3.9,0.5-6C144.9,303.2,142.8,303.1,141,305.6l0.2,0.3
					L141,305.6z"/>
				<path fill="#FEFEFE" d="M-4.6,709.9c1.3-0.1,1.8-2.4,3.3-1.5c1.1,0.6,0.4,2.1,0.4,3.2c0,20.8,0,41.6,0.1,62.3
					c0,2.8-0.4,4.1-3.7,4.1c-9.6-0.2-19.3-0.2-28.9,0c-3.1,0.1-3.4-1.1-3.4-3.7c0.1-12,0.2-23.9,0-35.9c-0.1-3,0.8-5.1,3.2-6.6
					c0.7-1.8,2.1-2.9,3.6-4c6.8-5,13.5-10.1,20.3-15.2C-8.3,711.3-6.7,710.2-4.6,709.9z"/>
				<path fill="#FEFEFE" d="M268.3,731.7c2.4,1.5,3.3,3.6,3.2,6.6c-0.2,11.8-0.2,23.6,0,35.4c0,3-0.4,4.3-3.9,4.2
					c-9.3-0.3-18.6-0.2-27.9,0c-3.2,0.1-4.3-0.7-4.2-4.1c0.2-20.8,0.1-41.6,0.1-62.3c0-1.1-0.7-2.6,0.4-3.2c1.5-0.8,1.9,1.5,3.3,1.6
					c1.8,0.3,3.3,1.2,4.8,2.3c7,5.3,14,10.6,21.1,15.8C266.5,729,267.7,730.1,268.3,731.7z"/>
				<path fill="#FEFEFE" d="M-160.7,611.9c-20.3-5.7-33.5-20.9-34.4-41.3c-0.9-18.8,13.1-34,30.5-36.7c2.7-0.4,4.5-0.1,4,3.4
					c-0.3,1.6-0.2,3.3,0,5c0.4,4.3-0.3,7-5.1,9.3c-12.6,6.2-11.9,24.5,1.2,32c3.4,2,4.1,4,4,7.4
					C-160.8,597.9-160.7,604.7-160.7,611.9z"/>
				<path fill="#FEFEFE" d="M408.2,606.9c-4,1.9-7.9,3.9-12.9,5.2c0-8.4,0.1-16.5,0-24.5c0-2.6,2.2-2.7,3.6-3.5
					c11.7-7.1,14.1-21.7,4.9-30.3c-0.8-0.8-2-1.2-2.8-2.1c-1.6-1.7-5.2-0.7-5.5-3.3c-0.5-4.4-0.7-9.1,0.1-13.4
					c0.4-2.5,3.8-1.2,5.5-0.8c12.3,3.1,21.3,10.4,26.2,22.2c3.9,9.4,2.7,18.8-0.1,28.1C424.3,594.9,418.3,602.6,408.2,606.9z"/>
				<path fill="#FEFEFE" d="M-177.5,702c4.6-1.8,9-3.9,14-4.5c2.4-0.3,3,0.4,2.9,2.5c-0.1,2-0.1,4,0,6c0.2,4.2,0,7-5.1,9.4
					c-12.6,6-11.7,24.7,1.1,32c3.3,1.9,4.2,3.8,4.1,7.3c-0.3,6.9-0.1,13.9-0.1,20.9c-20.2-4.1-41.9-28.2-31.9-56.5
					C-190.3,711-185.1,705.4-177.5,702z"/>
				<path fill="#FEFEFE" d="M427.2,719.1c10.1,28.4-12,52.6-31.9,56.4c0-8,0.1-15.9-0.1-23.9c-0.1-2.9,2.2-3,3.7-3.9
					c11.3-6.7,13.9-21.4,5.1-30c-0.9-0.9-2.1-1.6-3.1-2.5c-1.6-1.5-5.3-0.6-5.5-3.4c-0.4-4.4-0.2-9,0-13.5c0.1-1.8,1.6-1,2.7-0.9
					c5,0.3,9.4,2.6,14,4.4C419.8,705.4,424.9,711,427.2,719.1z"/>
				<path fill="#FEFEFE" d="M84.3,356.1c-0.8-0.6-1.7-1.1-1.7-2.2c0-7.3,0-14.7,0-22c0-1.5,0.4-2.2,2-1.6
					c14.3,5.1,27.2,17.4,29.6,34.4c2.3,16.1-6.5,31.3-21,37.7c-9.9,4.4-10.5,4-10.7-6.5c0-3.8,0.3-6.4,4.4-8.6
					c7.4-3.9,9.7-13.1,6.3-21.3C90,362.8,87.3,359.3,84.3,356.1z"/>
				<path fill="#FEFEFE" d="M125.4,388.7c-14.6-27.2,4.4-50.7,22.9-57.8c2.9-1.1,4-1.1,3.9,2.6c-0.3,6.1-0.1,12.3-0.1,18.4
					c0,1.7,0.1,3.3-1.8,4.2c-3,3.2-5.7,6.7-8.9,9.8c-3.4,8.3-0.9,17.4,6.6,21.6c3.3,1.8,4.2,3.7,4.1,7.2
					c-0.2,10.8-0.1,10.8-10.6,8.1C133.8,400.8,128.5,396,125.4,388.7z"/>
				<path fill="#FEFEFE" d="M-43.7,738.9c1,0,2.8-2.7,2.8,0.8c0,12,0,24,0,35.9c0,2.3-1.3,2.3-2.9,2.3c-10.2,0-20.3-0.1-30.5,0
					c-2.3,0-2.7-0.9-2.7-2.9c0.1-3.3,0.3-6.7,0-10c-0.4-3.6,0.6-6.1,4.1-7.3c0.8-1.8,2.5-2.6,4.1-3.6c6.8-4,13.4-8.1,19.6-12.8
					C-47.4,740.1-45.7,739.2-43.7,738.9z"/>
				<path fill="#FEFEFE" d="M307.3,757.7c3.5,1.2,4.5,3.7,4.1,7.3c-0.4,4.1,1.3,9.5-0.8,12c-2.2,2.7-7.8,0.7-11.9,0.8
					c-6.7,0.1-13.3-0.1-20,0.1c-2.6,0.1-3.4-0.6-3.4-3.3c0.1-11.3,0.1-22.6,0-33.9c0-2.6,0.4-3.5,2.9-1.8c1.6,0.4,3.2,0.8,4.5,1.9
					c6.8,5.2,14,9.6,21.3,13.9C305.4,755.5,306.7,756.3,307.3,757.7z"/>
				<path fill="#FDFDFD" d="M72.4,384.1c4.1-4.4,3.7-9-0.6-10.1c-1.9-0.5-3.7-0.2-5,1.3c-1.6,1.7-1.9,3.7-1,6
					c1.9,4.8,5.6,7.4,10.3,8.4c2.4,0.5,3,1.4,2.8,3.5c-0.1,1.3,0,2.7,0,4c0,8.8-0.3,9.2-8.5,5.4c-9.3-4.3-15.6-11.4-16.7-21.8
					c-0.9-8.1,2.5-14.9,9.1-19.8c1.6-1.2,3.3-2.2,5.1-2.9c8.3-3.3,11-1.5,11,7.2c0,5.2,0,10.3,0,15.5
					C78.9,387.1,78.6,387.3,72.4,384.1z"/>
				<path fill="#FDFDFD" d="M161.8,384.2c-5.7,3.1-6.1,2.9-6.1-3.5c0-6.5,0.1-13-0.1-19.5c-0.1-3.2,0.8-4.3,4.2-4.4
					c15.1-0.4,26,17.3,19.1,31.5c-4.1,8.5-10.9,13.9-20.3,15.9c-2.3,0.5-3.1,0.4-2.9-2c0.1-1.2,0.1-2.3,0-3.5
					c-0.3-4.9-0.8-9.7,6.4-10.5c3-0.3,5.1-3.4,6.4-6.5c1.3-2.8,1-5.2-1.5-7c-2.4-1.7-4.8-1.4-6.7,0.8c-2,2.3-1.7,4.9,0.4,7.2
					C161.2,383.2,161.9,383.4,161.8,384.2z"/>
				<path fill="#FEFEFE" d="M-149.8,720.4c-2.9,1.6-5.2,3.3-4.3,6.7c0.5,2,1.7,3.5,4,3.9c3.9,0.5,6.9-2.5,6-6.4
					c-1.1-5-3.8-9.1-8.8-10.6c-3.2-1-4.3-2.4-3.9-5.5c0.2-1.8,0-3.7,0-5.5c0-6,0.3-6.2,6-4c12.8,4.8,20.5,18,17.9,30.8
					c-1.8,9.1-11.2,17-20.1,17.2c-2.9,0.1-4.1-0.5-4-3.7c0.3-7.3,0-14.7,0.1-22c0-1.4-0.8-3.3,0.6-4.1c1.4-0.9,2.7,0.7,4,1.4
					C-151.3,718.9-150.8,719.6-149.8,720.4z"/>
				<path fill="#FEFEFE" d="M384.6,720.4c0.5-0.5,0.9-1.1,1.4-1.5c1.4-0.9,2.8-2.5,4.4-1.9c1.9,0.8,0.8,2.9,0.8,4.4
					c0.1,7.2-0.2,14.3,0.1,21.5c0.2,3.5-1.2,4.1-4.2,4c-13.5-0.3-23.7-15.4-19.5-29.2c3.1-10.1,10.1-16.5,20.1-19.6
					c2.5-0.8,3.8-0.4,3.5,2.6c-0.2,1.3-0.2,2.7,0,4c0.6,4.9,0.1,8.7-5.8,10.3c-3.8,1.1-5.5,4.9-6.7,8.8c-0.9,3.1,0.1,5.5,2.7,6.7
					c2.3,1.1,5,0.7,6.5-1.9c1.6-2.7,1-5.1-1.5-6.9C385.9,721.3,385.2,720.9,384.6,720.4z"/>
				<path fill="#FEFEFE" d="M391.3,534.1c0,4.3-0.1,8.6,0,12.9c0.1,2.3-1.3,2.5-3.1,3c-4.9,1.6-8,4.9-9.3,10
					c-0.9,3.3-0.3,5.6,2.8,6.9c2.6,1.2,5.1,0.6,6.4-2c1.5-3,1.1-5.8-2.5-7.3c-0.4-0.2-0.7-0.7-1.1-1.1c1.8-1.8,3.8-3,6.8-3.7
					c0,9.5-0.1,18.6,0.1,27.6c0.1,2.9-1.6,2.7-3.5,2.8c-9.1,0.1-18.7-7.9-20.6-17.2C364.3,551.1,374.9,536.6,391.3,534.1z"/>
				<path fill="#FEFEFE" d="M-156.7,553c3.9,1.2,3.9,1.2,6.6,3.6c-0.3,0.9-1.3,0.9-1.9,1.4c-2.5,1.9-2.9,4.5-1.5,7
					c1.3,2.2,3.5,2.9,6,2c3-1.1,4-3.3,3.4-6.2c-1.2-5.4-4.2-9.5-9.7-10.8c-2.7-0.7-3-1.9-3-4.1c0.1-3.2,0.1-6.3,0-9.5
					c0-1.8,0.1-2.7,2.5-2.2c14.2,2.7,24.5,18,21.5,32c-1.9,9.1-11.1,16.8-20.2,17.1c-2.4,0.1-4-0.1-3.9-3.4
					C-156.5,571.1-156.7,562.3-156.7,553z"/>
				<path fill="#FDFDFD" d="M403.2,777.9c12.8-6.4,22-15.7,28-28.9c0,9.1,0,18.2,0,27.3c0,1.4-0.9,1.6-2,1.6
					C420.6,777.9,411.9,777.9,403.2,777.9z"/>
				<path fill="#FDFDFD" d="M-196.7,749.1c6,13,15.2,22.4,28.1,28.8c-8.7,0-17.3,0-26,0c-2.4,0-2.1-1.5-2.1-3
					C-196.7,766.3-196.7,757.7-196.7,749.1z"/>
				<path fill="#050505" d="M117.9,496.6c0,52.9,0,105.7,0,158.6c-0.3,0-0.7,0-1,0c0-52.9,0-105.7,0-158.6
					C117.2,496.6,117.5,496.6,117.9,496.6z"/>
				<path fill="#FDFDFD" d="M329.3,767.7c5.9,2.6,12.1,4.3,18.3,6.2c1.5,0.4,3.7,0.1,3.7,2.5c-0.1,2.8-2.5,1.4-3.8,1.5
					c-9.5,0.1-19,0-28.5,0.1c-2.7,0-4-0.6-3.6-3.5c0.5-4.1-0.7-8.3,0.6-12.4C320.8,763,325.6,764.1,329.3,767.7z"/>
				<path fill="#FDFDFD" d="M-81.3,762.1c1.3,4.6,0.3,9.2,0.6,13.9c0.1,2-1.2,2-2.6,2c-10.3,0-20.7,0-31,0c-1.1,0-2.4,0.4-2.4-1.5
					s1.7-2,2.8-2.3c6.6-1.7,13-3.7,19.2-6.4C-91,764.1-86.2,763-81.3,762.1z"/>
				<path fill="#050505" d="M269.3,568.7c-11.1-8.2-22.2-16.5-33.3-24.7c1.3-0.6-0.9-2.7,1.2-2.9c11.2,8.2,22.3,16.5,33.4,24.6
					c0.3-0.3,0.7-0.5,0.7-0.7c0-58,0-116.1-0.1-174.1c1.5,1.3,1,3.1,1,4.7c0,55.5,0,110.9,0.1,166.4
					C272.4,565,271.3,566.9,269.3,568.7z"/>
				<path fill="#050505" d="M-1.4,544c-11.1,8.2-22.2,16.5-33.3,24.7c-2.3-1.9-3.1-4.2-3.1-7.3c0.1-55.1,0.1-110.3,0.1-165.4
					c0-1.7-0.7-3.7,1-5.2c0,58.2,0,116.4,0,175.3c11.6-8.5,22.8-16.8,34.1-25.1C-0.5,541.3-2.7,543.4-1.4,544z"/>
				<path fill="#050505" d="M117.9,660.6c0,38.9,0,77.7,0,116.6c-0.3,0-0.7,0-1,0c0-38.9,0-77.7,0-116.6
					C117.2,660.6,117.5,660.6,117.9,660.6z"/>
				<path fill="#FDFDFD" d="M-160.9,717.3c0,9.1,0,18.2,0,27.3c-5.5-1.4-10.1-7.6-10.4-13.9C-171.4,724.4-167.7,719.5-160.9,717.3z"
					/>
				<path fill="#FDFDFD" d="M395.3,581.7c0-8.9,0.1-17,0-25.2c-0.1-3.8,1.3-3.2,3.7-1.8c4.9,2.8,7.1,7.2,6.8,12.3
					C405.3,573.5,402,578.5,395.3,581.7z"/>
				<path fill="#FDFDFD" d="M-161,553.8c0.1,0.5,0.3,0.9,0.3,1.4c0,8.6,0,17.2,0,25.9c-6-1.8-10.7-8.3-10.6-14.5
					C-171.1,560.2-167.3,555.3-161,553.8z"/>
				<path fill="#FDFDFD" d="M395.3,716.9c6.8,2.5,10.4,6.9,10.4,13.3c0,6.7-3.5,11.8-10.4,15.4c0-5.2,0-9.8,0-14.3
					C395.3,726.6,395.3,722,395.3,716.9z"/>
				<path fill="#050505" d="M117.9,387.6c0,34.5,0,69,0,103.6c-0.3,0-0.7,0-1,0c0-34.5,0-69,0-103.6
					C117.2,387.6,117.5,387.6,117.9,387.6z"/>
				<path fill="#040404" d="M392.8,529.2c0-29.9,0-59.7,0-89.6c0.3,0,0.7,0,1,0c0,29.9,0,59.7,0,89.6
					C393.4,529.2,393.1,529.2,392.8,529.2z"/>
				<path fill="#040404" d="M-158.1,439.6c0,29.9,0,59.7,0,89.6c-0.3,0-0.7,0-1,0c0-29.9,0-59.7,0-89.6
					C-158.8,439.6-158.5,439.6-158.1,439.6z"/>
				<path fill="#121212" d="M0.4,538.6c0-58.4,0-116.9,0-175.3c0.2,0,0.3,0,0.5,0c0,58.5,0,117,0,175.5
					C0.8,538.7,0.6,538.6,0.4,538.6z"/>
				<path fill="#121212" d="M233.4,538.6c0-58.4,0-116.9,0-175.3c0.2,0,0.3,0,0.5,0c0,58.5,0,117,0,175.5
					C233.8,538.7,233.6,538.6,233.4,538.6z"/>
				<path fill="#121212" d="M40.4,511.6c0-58.1,0-116.2,0-174.3c0.2,0,0.3,0,0.5,0c0,58.2,0,116.4,0,174.5
					C40.8,511.7,40.6,511.6,40.4,511.6z"/>
				<path fill="#121212" d="M194.2,337.2c0,58.1,0,116.2,0,174.3c-0.2,0-0.3,0-0.5,0c0-58.2,0-116.3,0-174.5
					C193.8,337.1,194,337.2,194.2,337.2z"/>
				<path fill="#070707" d="M354,434.2c0,57.5,0,115.1,0,172.6c-0.2,0-0.3,0-0.5,0c0-57.6,0-115.2,0-172.7
					C353.7,434.1,353.9,434.2,354,434.2z"/>
				<path fill="#070707" d="M-118.8,434.2c0,57.4,0,114.9,0,172.3c-0.2,0-0.3,0-0.5,0c0-57.5,0-115,0-172.5
					C-119.2,434.1-119,434.2-118.8,434.2z"/>
				<path fill="#0F0F0F" d="M-38.8,395.2c0,57.4,0,114.9,0,172.3c-0.2,0-0.3,0-0.5,0c0-57.5,0-115,0-172.5
					C-39.2,395.1-39,395.2-38.8,395.2z"/>
				<path fill="#0F0F0F" d="M273.6,567.6c0-57.6,0-115.1,0-172.7c0.2,0,0.3,0,0.5,0c0,57.6,0,115.2,0,172.7
					C273.9,567.7,273.7,567.7,273.6,567.6z"/>
				<path fill="#0B0B0B" d="M314.2,420.2c0,57.1,0,114.2,0,171.3c-0.2,0-0.3,0-0.5,0c0-57.2,0-114.4,0-171.5
					C313.8,420.1,314,420.2,314.2,420.2z"/>
				<path fill="#0B0B0B" d="M-78.8,420.2c0,57.1,0,114.2,0,171.3c-0.2,0-0.3,0-0.5,0c0-57.2,0-114.4,0-171.5
					C-79.2,420.1-79,420.2-78.8,420.2z"/>
				<path fill="#F8F8F8" d="M91.3,370c0.4,5.6-1.1,10.5-5.7,14c-1.9,1.4-3.1,1.7-3.1-1.5c0.1-7.4,0-14.9-0.1-22.3
					c3.7-0.2,7.6,3.1,8.5,7C91.1,368,90.5,369.1,91.3,370z"/>
				<path fill="#F8F8F8" d="M152.2,360.1c0,7.4-0.2,14.9-0.1,22.3c0,3.2-1.2,3-3.1,1.5c-4.7-3.5-6.2-8.3-5.7-14c0.1-3.9,2-6.9,5-9.2
					C149.5,359.9,150.7,358.7,152.2,360.1z"/>
				<path fill="#121212" d="M1.1,542c0,53.2,0,106.5,0,159.7c-0.2,0-0.3,0-0.5,0c0-53.2,0-106.5,0-159.7C0.8,542,0.9,542,1.1,542z"
					/>
				<path fill="#121212" d="M234.2,542.2c0,53.1,0,106.2,0,159.3c-0.2,0-0.3,0-0.5,0c0-53.2,0-106.4,0-159.5
					C233.8,542.1,234,542.2,234.2,542.2z"/>
				<path fill="#121212" d="M194.2,517.2c0,52.8,0,105.6,0,158.3c-0.2,0-0.3,0-0.5,0c0-52.8,0-105.7,0-158.5
					C193.8,517.1,194,517.2,194.2,517.2z"/>
				<path fill="#121212" d="M40.6,675.6c0-52.9,0-105.8,0-158.7c0.2,0,0.3,0,0.5,0c0,52.9,0,105.8,0,158.7
					C40.9,675.6,40.7,675.6,40.6,675.6z"/>
				<path fill="#121212" d="M81.2,502.2c0,52.4,0,104.9,0,157.3c-0.2,0-0.3,0-0.5,0c0-52.5,0-105,0-157.5
					C80.8,502.1,81,502.1,81.2,502.2z"/>
				<path fill="#121212" d="M153.4,659.6c0-52.4,0-104.9,0-157.3c0.2,0,0.3,0,0.5,0c0,52.5,0,105,0,157.5
					C153.8,659.7,153.6,659.6,153.4,659.6z"/>
				<path fill="#0F0F0F" d="M-39.6,731.6c0-52.1,0-104.2,0-156.3c0.2,0,0.3,0,0.5,0c0,52.2,0,104.4,0,156.6
					C-39.2,731.7-39.4,731.6-39.6,731.6z"/>
				<path fill="#0F0F0F" d="M274.2,575.2c0,52.1,0,104.2,0,156.3c-0.2,0-0.3,0-0.5,0c0-52.2,0-104.4,0-156.5
					C273.8,575.1,274,575.2,274.2,575.2z"/>
				<path fill="#0B0B0B" d="M-78.8,600.2c0,52.1,0,104.2,0,156.3c-0.2,0-0.3,0-0.5,0c0-52.2,0-104.4,0-156.5
					C-79.2,600.1-79,600.2-78.8,600.2z"/>
				<path fill="#0B0B0B" d="M313.4,756.6c0-52.1,0-104.2,0-156.3c0.2,0,0.3,0,0.5,0c0,52.2,0,104.4,0,156.6
					C313.8,756.7,313.6,756.6,313.4,756.6z"/>
				<path fill="#070707" d="M-118.8,614.2c0,52.1,0,104.2,0,156.3c-0.2,0-0.3,0-0.5,0c0-52.2,0-104.4,0-156.5
					C-119.2,614.1-119,614.2-118.8,614.2z"/>
				<path fill="#070707" d="M353.4,770.6c0-52.1,0-104.2,0-156.3c0.2,0,0.3,0,0.5,0c0,52.2,0,104.4,0,156.5
					C353.8,770.7,353.6,770.6,353.4,770.6z"/>
				<path fill="#040404" d="M-159.3,693.2c0-25.5,0-50.9,0-76.4c0.3,0,0.6,0,0.9,0c0,25.5,0,50.9,0,76.4
					C-158.7,693.2-159,693.2-159.3,693.2z"/>
				<path fill="#040404" d="M392.8,693.2c0-25.5,0-50.9,0-76.4c0.3,0,0.7,0,1,0c0,25.4,0,50.9,0,76.3
					C393.5,693.2,393.1,693.2,392.8,693.2z"/>
				<path fill="#060606" d="M230.3,539.7c-10.2-6.8-20.2-14.1-31-20.1c-1.2-0.7-2.2-2-3.9-1.4c0.1-1.8,1.9-2,2.8-3.1
					c10.5,5.4,20,12.3,29.7,18.9c1.2,0.8,2.2,2.8,4.2,1.6C230.8,536.6,232,538.8,230.3,539.7z"/>
				<path fill="#070707" d="M-198.6,716.6c0-43.1,0-86.2,0-129.3c0.2,0,0.3,0,0.5,0c0,43.2,0,86.4,0,129.5
					C-198.2,716.7-198.4,716.6-198.6,716.6z"/>
				<path fill="#070707" d="M432.4,716.6c0-43.1,0-86.2,0-129.3c0.2,0,0.3,0,0.5,0c0,43.2,0,86.4,0,129.5
					C432.8,716.7,432.6,716.6,432.4,716.6z"/>
				<path fill="#070707" d="M307.3,757.7c-10.3-5.3-19.8-11.8-29.1-18.8c0.3-1,0.7-1.9,1-2.9c9.7,6.3,19.4,12.6,29.1,18.8
					C308.5,756,308.5,757.1,307.3,757.7z"/>
				<path fill="#070707" d="M-43.7,738.9c-9.2,7-18.8,13.5-29.1,18.8c-1.1-0.7-1.1-1.7-1-2.9c9.7-6.3,19.4-12.6,29.1-18.8
					C-44.3,737-44,738-43.7,738.9z"/>
				<path fill="#050505" d="M268.3,731.7c-10-6.9-19.6-14.3-29.1-21.8c0.3-0.9,0.7-1.9,1-2.8c9.7,7.3,19.4,14.5,29.1,21.8
					C269,729.8,268.7,730.8,268.3,731.7z"/>
				<path fill="#050505" d="M-4.6,709.9c-9.5,7.6-19.1,14.9-29.1,21.8c-0.3-0.9-0.7-1.9-1-2.8c9.7-7.3,19.4-14.5,29.1-21.8
					C-5.3,708-5,709-4.6,709.9z"/>
				<path fill="#070707" d="M-198.6,552.6c0-37.4,0-74.9,0-112.3c0.2,0,0.3,0,0.5,0c0,37.5,0,75,0,112.5
					C-198.2,552.7-198.4,552.6-198.6,552.6z"/>
				<path fill="#070707" d="M432.4,552.6c0-37.4,0-74.9,0-112.3c0.2,0,0.3,0,0.5,0c0,37.5,0,75,0,112.5
					C432.8,552.7,432.6,552.6,432.4,552.6z"/>
				<path fill="#121212" d="M153.6,776.8c0-37.2,0-74.5,0-111.7c0.1,0,0.3,0,0.4,0c0,37.2,0,74.5,0,111.7
					C153.8,776.8,153.7,776.8,153.6,776.8z"/>
				<path fill="#121212" d="M81.1,665c0,37.2,0,74.5,0,111.7c-0.2,0-0.3,0-0.5,0c0-37.2,0-74.5,0-111.7C80.8,665,80.9,665,81.1,665z
					"/>
				<path fill="#050505" d="M113.2,296.1c-4.4-9-11.1-15.7-20.1-20.1c0.8-0.8-0.8-2.5,1.1-2.9c10.5,4,17.8,11.4,21.8,21.9
					C115.8,296.9,114,295.1,113.2,296.1z"/>
				<path fill="#050505" d="M408.2,606.9c8.5-5.6,14.6-13.2,18.9-22.3c0.7,1.1,1.3,2.2,2,3.3c-3.7,8.9-9.6,15.9-17.8,20.9
					C410.3,608.1,409.3,607.5,408.2,606.9z"/>
				<path fill="#121212" d="M41.2,680.2c0,32.1,0,64.2,0,96.3c-0.2,0-0.3,0-0.5,0c0-32.2,0-64.4,0-96.6
					C40.8,680.1,41,680.2,41.2,680.2z"/>
				<path fill="#121212" d="M193.6,776.6c0-32.2,0-64.4,0-96.6c0.2,0,0.3,0,0.5,0c0,32.2,0,64.5,0,96.7
					C193.9,776.7,193.7,776.6,193.6,776.6z"/>
				<path fill="#060606" d="M141.5,276c-8.3,4-14.6,10.1-19.1,18c-0.6-1-1.3-2-1.9-3.1c4.3-8.6,11-14.5,19.9-17.9
					C142.3,273.4,140.6,275.2,141.5,276z"/>
				<path fill="#121212" d="M154.2,410.2c0,28.5,0,56.9,0,85.4c-0.2,0-0.3,0-0.5,0c0-28.5,0-57,0-85.5
					C153.8,410.1,154,410.1,154.2,410.2z"/>
				<path fill="#121212" d="M81,409.9c0,28.6,0,57.1,0,85.7c-0.1,0-0.3,0-0.4,0c0-28.6,0-57.1,0-85.7
					C80.8,409.9,80.9,409.9,81,409.9z"/>
				<path fill="#090909" d="M427.2,719.1c-3.6-7-8.7-12.6-15.1-17.1c1.3-0.7,0.2-2.2,1.1-3c7.3,3.8,12.6,9.4,15.9,16.9
					C428.5,717,427.9,718,427.2,719.1z"/>
				<path fill="#090909" d="M-177.5,702c-6.4,4.5-11.5,10.2-15.1,17.1c-0.6-1.1-1.3-2.1-1.9-3.2c3.3-7.5,8.6-13.2,15.9-16.9
					C-177.7,699.8-178.8,701.3-177.5,702z"/>
				<path fill="#050505" d="M117.8,309.6c0,13.9,0,27.7,0,41.6c-0.3,0-0.6,0-0.9,0c0-13.9,0-27.7,0-41.6
					C117.2,309.6,117.5,309.6,117.8,309.6z"/>
				<path fill="#050505" d="M125.4,388.7c4.4,5.9,9.7,10.6,16.2,14.1c-1.2,0.6,0.9,2.7-1.2,2.9c-7.9-3.1-13.8-8.5-17.9-15.8
					C122.8,388,124.6,389.6,125.4,388.7z"/>
				<path fill="#121212" d="M1.2,706.2c0,23.4,0,46.9,0,70.3c-0.2,0-0.3,0-0.5,0c0-23.5,0-47,0-70.6C0.8,706.1,1,706.2,1.2,706.2z"
					/>
				<path fill="#121212" d="M233.4,776.6c0-23.4,0-46.9,0-70.3c0.2,0,0.3,0,0.5,0c0,23.5,0,47,0,70.5
					C233.8,776.7,233.6,776.6,233.4,776.6z"/>
				<path fill="#040404" d="M-159.4,745.8c-0.5-9.3-0.4-18.6-0.1-27.9c0.5,0,0.9,0,1.4,0c0,9.3,0,18.6,0,27.9
					C-158.5,745.8-159,745.8-159.4,745.8z"/>
				<path fill="#040404" d="M392.6,745.9c0-9.4,0-18.7,0-28.1c0.6,0,1.2,0,1.7,0C394.1,727.2,395,736.5,392.6,745.9z"/>
				<path fill="#040404" d="M393.6,554.6c0,9.1,0,18.1,0,27.2c-0.3,0-0.6,0-1,0c0-9.1,0-18.1,0-27.2
					C393,554.6,393.3,554.6,393.6,554.6z"/>
				<path fill="#040404" d="M-159.4,581.9c-0.6-9.1-0.2-18.2-0.2-27.3c0.5,0,1,0,1.4,0c0,9.1,0,18.2,0,27.3
					C-158.6,581.9-159,581.9-159.4,581.9z"/>
				<path fill="#0B0B0B" d="M22.5,527c-4.7,3.3-9.5,6.5-14.2,9.8c-0.3-1-0.7-1.9-1-2.9c4.3-3,8.7-6.1,13-9.1
					C20.7,525.9,21.4,526.6,22.5,527z"/>
				<path fill="#0C0C0C" d="M152.2,360.1c-5.6,1-6.6,6-8.9,9.9c-0.2-1.5-0.7-3-1.9-4c1.7-4.5,4.6-7.8,8.9-9.8
					C151.9,357,150.9,359.1,152.2,360.1z"/>
				<path fill="#0C0C0C" d="M91.3,370c-2.3-3.9-3.4-8.9-8.9-9.9c1.3-1,0.3-3.1,1.9-4c4.3,2.1,7.3,5.4,8.9,9.8
					C92,367,91.5,368.4,91.3,370z"/>
				<path fill="#040404" d="M-159.2,611.9c0-8.4,0-16.7,0-25.1c2.1,8.3,1.1,16.8,1.5,25.2C-158.2,612-158.7,612-159.2,611.9z"/>
				<path fill="#040404" d="M393.2,612c-0.5-8.4-1.5-16.9,0.4-25.2C394.2,595.2,394.6,603.6,393.2,612z"/>
				<path fill="#040404" d="M-159,750.8c2,8.3,1,16.7,0.7,25C-160.4,767.6-159.4,759.2-159,750.8z"/>
				<path fill="#040404" d="M394.3,750.8c-0.3,8.3,0.6,16.7-1.5,24.9c0-8.3,0-16.6,0-24.9C393.3,750.8,393.8,750.8,394.3,750.8z"/>
				<path fill="#0A0A0A" d="M-81.3,762.1c-4.3,2.4-8.7,4.3-13.4,5.7c-1.1-0.7-2.2-1.3-3.3-2c4.5-1.9,8.9-3.8,13.4-5.6
					C-83.6,760.8-82.4,761.4-81.3,762.1z"/>
				<path fill="#0A0A0A" d="M329.3,767.7c-4.7-1.4-9.1-3.3-13.4-5.7c1.1-0.7,2.2-1.3,3.3-2c4.5,1.9,8.9,3.8,13.4,5.6
					C331.5,766.4,330.4,767.1,329.3,767.7z"/>
				<path fill="#0F0F0F" d="M-39.5,776.8c0-12.6,0-25.2,0-37.8c0.2,0,0.3,0,0.5,0c0,12.6,0,25.2,0,37.8
					C-39.2,776.8-39.3,776.8-39.5,776.8z"/>
				<path fill="#0F0F0F" d="M274.2,739.2c0,12.5,0,24.9,0,37.4c-0.2,0-0.3,0-0.5,0c0-12.5,0-25,0-37.6
					C273.8,739.1,274,739.2,274.2,739.2z"/>
				<path fill="#040404" d="M-159.2,434.2c0-5.9,0-11.7,0-17.6c0.3,0,0.6,0,1,0c0,5.9,0,11.7,0,17.6
					C-158.6,434.2-158.9,434.2-159.2,434.2z"/>
				<path fill="#040404" d="M393.8,416.6c0,5.9,0,11.7,0,17.6c-0.3,0-0.6,0-0.9,0c0-5.9,0-11.7,0-17.6
					C393.2,416.6,393.5,416.6,393.8,416.6z"/>
				<path fill="#050505" d="M-82,779.6c-11.2,0-22.4,0-33.6,0c0-0.2,0-0.3,0-0.5c11.2,0,22.5,0,33.7,0
					C-81.9,779.3-81.9,779.5-82,779.6z"/>
				<path fill="#050505" d="M350,779.8c-11.1,0-22.2,0-33.3,0c0-0.2,0-0.3,0-0.5c11.2,0,22.4,0,33.5,0
					C350.1,779.4,350,779.6,350,779.8z"/>
				<path fill="#050505" d="M44.5,779.1c10.9,0,21.8,0,32.7,0c0,0.2,0,0.3,0,0.5c-10.9,0-21.8,0-32.6,0
					C44.6,779.5,44.5,779.3,44.5,779.1z"/>
				<path fill="#050505" d="M4.6,779.2c10.9,0,21.7,0,32.6,0c0,0.2,0,0.3,0,0.5c-10.9,0-21.8,0-32.7,0
					C4.5,779.5,4.6,779.3,4.6,779.2z"/>
				<path fill="#050505" d="M-35.5,779.1c10.9,0,21.8,0,32.7,0c0,0.2,0,0.3,0,0.5c-10.9,0-21.8,0-32.7,0
					C-35.5,779.5-35.5,779.3-35.5,779.1z"/>
				<path fill="#050505" d="M-42.8,779.6c-10.9,0-21.7,0-32.6,0c0-0.1,0-0.2,0-0.4c10.9,0,21.7,0,32.6,0
					C-42.8,779.4-42.8,779.5-42.8,779.6z"/>
				<path fill="#050505" d="M157.6,779c10.8,0,21.6,0,32.3,0c0,0.2,0,0.3,0,0.5c-10.8,0-21.7,0-32.5,0
					C157.5,779.4,157.6,779.2,157.6,779z"/>
				<path fill="#050505" d="M277.6,779c10.8,0,21.6,0,32.3,0c0,0.2,0,0.3,0,0.5c-10.8,0-21.7,0-32.5,0
					C277.5,779.4,277.6,779.2,277.6,779z"/>
				<path fill="#050505" d="M237.4,779.1c10.9,0,21.8,0,32.7,0c0,0.1,0,0.3,0,0.4c-10.9,0-21.8,0-32.7,0
					C237.4,779.4,237.4,779.3,237.4,779.1z"/>
				<path fill="#050505" d="M230,779.6c-10.9,0-21.8,0-32.7,0c0-0.2,0-0.3,0-0.5c10.9,0,21.8,0,32.7,0
					C230.1,779.3,230.1,779.5,230,779.6z"/>
				<path fill="#050505" d="M84.4,779.1c9.9,0,19.8,0,29.7,0c0,0.2,0,0.3,0,0.5c-9.9,0-19.8,0-29.7,0
					C84.4,779.4,84.4,779.3,84.4,779.1z"/>
				<path fill="#050505" d="M120.4,779.1c9.9,0,19.8,0,29.7,0c0,0.1,0,0.3,0,0.4c-9.9,0-19.8,0-29.7,0
					C120.4,779.4,120.4,779.3,120.4,779.1z"/>
				<path fill="#040404" d="M-158.1,698.6c0,4.5,0,9.1,0,13.6c-1.9-4.5-1.5-9-1.4-13.6C-159.1,698.6-158.6,698.6-158.1,698.6z"/>
				<path fill="#040404" d="M393.6,712.2c-1.7-4.5-1.3-9,0-13.6C393.6,703.1,393.6,707.6,393.6,712.2z"/>
				<path fill="#040404" d="M-158.9,534.9c1.5,4.4,1.2,8.9,0.3,13.3C-160.2,543.8-159.5,539.3-158.9,534.9z"/>
				<path fill="#040404" d="M393.3,548.2c-1.1-4.5-1.3-8.9,0.2-13.3C394.4,539.3,394.5,543.8,393.3,548.2z"/>
				<path fill="#070707" d="M-197.9,751.1c0,8.6,0,17.2,0,25.7c-0.2,0-0.3,0-0.5,0c0-8.5,0-17.1,0-25.6
					C-198.3,751.1-198.1,751.1-197.9,751.1z"/>
				<path fill="#070707" d="M432.6,776.6c0-8.5,0-17.1,0-25.6c0.2,0,0.3,0,0.5,0c0,8.6,0,17.2,0,25.7
					C432.9,776.7,432.7,776.6,432.6,776.6z"/>
				<path fill="#111111" d="M81.1,359.1c0,8.6,0,17.2,0,25.7c-0.2,0-0.3,0-0.5,0c0-8.5,0-17.1,0-25.6
					C80.7,359.2,80.9,359.1,81.1,359.1z"/>
				<path fill="#111111" d="M154,359c0,8.5,0,17.1,0,25.6c-0.1,0-0.2,0-0.4,0c0-8.5,0-17.1,0-25.6C153.8,359,153.9,359,154,359z"/>
				<path fill="#050505" d="M-170.8,779.7c-8.2,0-16.5,0-24.7,0c0-0.2,0-0.3,0-0.5c8.2,0,16.4,0,24.6,0
					C-171,779.3-170.9,779.5-170.8,779.7z"/>
				<path fill="#050505" d="M430.3,779.6c-8.2,0-16.5,0-24.7,0c0-0.1,0-0.3,0-0.4c8.2,0,16.5,0,24.7,0
					C430.2,779.4,430.3,779.5,430.3,779.6z"/>
				<path fill="#111111" d="M153.6,353.6c0-7.9,0-15.8,0-23.7c0.2,0,0.3,0,0.5,0c0,7.9,0,15.8,0,23.7
					C153.9,353.7,153.7,353.7,153.6,353.6z"/>
				<path fill="#111111" d="M80.5,353.8c0-7.9,0-15.8,0-23.7c0.2,0,0.3,0,0.5,0c0,7.9,0,15.8,0,23.7
					C80.8,353.8,80.7,353.8,80.5,353.8z"/>
				<path fill="#111111" d="M81,300.2c0,7.2,0,14.4,0,21.6c-0.2,0-0.3,0-0.5,0c0-7.3,0-14.5,0-21.8C80.7,300.1,80.9,300.1,81,300.2z
					"/>
				<path fill="#111111" d="M154.1,299.9c0,7.3,0,14.5,0,21.8c-0.1,0-0.3,0-0.4,0c0-7.3,0-14.5,0-21.8
					C153.8,299.9,153.9,299.9,154.1,299.9z"/>
				<path fill="#060606" d="M170.8,326.3c-4.4,0-9.2,0-14,0C161.6,326.3,166.6,323.9,170.8,326.3z"/>
				<path fill="#060606" d="M77.7,325.9c-4.7,1.5-9.4,0.8-14.2,0.3c2.4-0.3,5.1-1.5,7.1-0.8C73.1,326.2,75.3,324.7,77.7,325.9z"/>
				<path fill="#111111" d="M234,340.9c0,5.9,0,11.8,0,17.7c-0.1,0-0.3,0-0.4,0c0-5.9,0-11.8,0-17.7
					C233.8,340.9,233.9,340.9,234,340.9z"/>
				<path fill="#111111" d="M0.6,358.6c0-5.9,0-11.7,0-17.6c0.2,0,0.3,0,0.5,0c0,5.9,0,11.8,0,17.7C0.9,358.7,0.8,358.6,0.6,358.6z"
					/>
				<path fill="#0B0B0B" d="M-78.9,395.9c0,5.9,0,11.8,0,17.7c-0.1,0-0.3,0-0.4,0c0-5.9,0-11.8,0-17.7
					C-79.2,395.9-79.1,395.9-78.9,395.9z"/>
				<path fill="#0B0B0B" d="M313.5,413.8c0-5.9,0-11.8,0-17.7c0.2,0,0.3,0,0.5,0c0,5.9,0,11.8,0,17.7
					C313.8,413.8,313.7,413.8,313.5,413.8z"/>
				<path fill="#070707" d="M433.1,418c0,5.6,0,11.2,0,16.7c-0.2,0-0.3,0-0.5,0c0-5.6,0-11.2,0-16.7C432.8,418,432.9,418,433.1,418z
					"/>
				<path fill="#070707" d="M-198.5,434.8c0-5.6,0-11.2,0-16.7c0.2,0,0.3,0,0.5,0c0,5.6,0,11.2,0,16.7
					C-198.2,434.8-198.3,434.8-198.5,434.8z"/>
				<path fill="#070707" d="M354,410.9c0,5.6,0,11.1,0,16.7c-0.1,0-0.3,0-0.4,0c0-5.6,0-11.1,0-16.7
					C353.8,410.9,353.9,410.9,354,410.9z"/>
				<path fill="#070707" d="M-119.4,427.6c0-5.6,0-11.1,0-16.7c0.2,0,0.3,0,0.5,0c0,5.6,0,11.1,0,16.7
					C-119.1,427.6-119.3,427.6-119.4,427.6z"/>
				<path fill="#0E0E0E" d="M-39,371.9c0,5.6,0,11.1,0,16.7c-0.1,0-0.3,0-0.4,0c0-5.6,0-11.1,0-16.7
					C-39.2,371.9-39.1,371.9-39,371.9z"/>
				<path fill="#0E0E0E" d="M273.5,388.7c0-5.6,0-11.2,0-16.7c0.2,0,0.3,0,0.5,0c0,5.5,0,11.1,0,16.6
					C273.9,388.6,273.7,388.7,273.5,388.7z"/>
				<path fill="#111111" d="M40.5,332.8c0-5.2,0-10.5,0-15.7c0.2,0,0.3,0,0.5,0c0,5.2,0,10.5,0,15.7
					C40.8,332.8,40.7,332.8,40.5,332.8z"/>
				<path fill="#111111" d="M194,316.9c0,5.2,0,10.5,0,15.7c-0.1,0-0.3,0-0.4,0c0-5.2,0-10.5,0-15.7
					C193.8,316.9,193.9,316.9,194,316.9z"/>
				<path fill="#0B0B0B" d="M-79.5,776.7c0-4.2,0-8.5,0-12.7c0.2,0,0.3,0,0.5,0c0,4.2,0,8.4,0,12.7
					C-79.1,776.6-79.3,776.7-79.5,776.7z"/>
				<path fill="#121212" d="M80.4,403.6c0-4.1,0-8.2,0-12.4c0.2,0,0.3,0,0.5,0c0,4.2,0,8.4,0,12.6C80.8,403.7,80.6,403.6,80.4,403.6
					z"/>
				<path fill="#0B0B0B" d="M313.5,776.4c0-4.1,0-8.2,0-12.3c0.2,0,0.3,0,0.5,0c0,4.3,0,8.5,0,12.8
					C313.8,776.7,313.7,776.6,313.5,776.4z"/>
				<path fill="#121212" d="M154.1,391c0,4.2,0,8.4,0,12.6c-0.1,0-0.3,0-0.4,0c0-4.1,0-8.3,0-12.4C153.8,391.1,154,391.1,154.1,391z
					"/>
				<path fill="#090909" d="M121.3,495.7c-0.7,0.1-1.3,0.2-2,0.3c2.6-4.6,6.6-1,9.9-1.9C126.8,495.8,123.7,493.8,121.3,495.7z"/>
				<path fill="#090909" d="M115.2,496c-0.7-0.1-1.3-0.2-2-0.3c-2.4-2-5.5,0.1-7.9-1.6C108.6,495.1,112.6,491.4,115.2,496z"/>
				<path fill="#0A0A0A" d="M-173.7,436.9c3.6,0,7.1,0,10.7,0C-166.6,437.4-170.2,438.9-173.7,436.9L-173.7,436.9z"/>
				<path fill="#0A0A0A" d="M408.3,436.9c-3.5,2.1-7.2,0.6-10.9,0C401.1,436.9,404.7,436.9,408.3,436.9L408.3,436.9z"/>
				<path fill="#D9D9D9" d="M-126.8,777.7c0.2-0.3,0.3-0.6,0.4-0.6c1.9,0.2,3.5-2,5.5-0.7c0.2,0.1,0.2,0.8,0.1,0.9
					C-122.7,778.5-124.7,777.9-126.8,777.7z"/>
				<path fill="#D9D9D9" d="M362.6,777.4c-3.3,0.5-5.4,1.3-7.2-0.3c-0.1-0.1,0.1-0.8,0.2-0.9C357.8,775.5,359.4,777,362.6,777.4z"/>
				<path fill="#0D0D0D" d="M77.2,355.3c-2.3,1-4.6,0.5-6.9,0.2C72.6,354.5,74.9,355,77.2,355.3z"/>
				<path fill="#101010" d="M49.5,304.7c0-2.2,0-4.4,0-6.6c0.2,0,0.3,0,0.5,0c0,2.2,0,4.4,0,6.6C49.8,304.7,49.6,304.7,49.5,304.7z"
					/>
				<path fill="#111111" d="M185,298c0,2.3,0,4.6,0,6.9c-0.2,0-0.3,0-0.5,0c0-2.3,0-4.6,0-6.9C184.7,298,184.9,298,185,298z"/>
				<path fill="#080808" d="M-196.9,566c0,2.2,0,4.4,0,6.6c-0.2,0-0.3,0-0.5,0c0-2.2,0-4.4,0-6.6C-197.2,566.1-197,566.1-196.9,566z
					"/>
				<path fill="#080808" d="M432,565.9c0,2.3,0,4.6,0,6.9c-0.2,0-0.3,0-0.5,0c0-2.3,0-4.6,0-6.9C431.7,565.9,431.9,565.9,432,565.9z
					"/>
				<path fill="#090909" d="M432.1,730.1c0,2.2,0,4.4,0,6.6c-0.2,0-0.3,0-0.5,0c0-2.2,0-4.4,0-6.6
					C431.8,730.1,432,730.1,432.1,730.1z"/>
				<path fill="#090909" d="M-196.9,730.1c0,2.2,0,4.4,0,6.6c-0.2,0-0.3,0-0.5,0c0-2.2,0-4.5,0-6.7
					C-197.2,730.1-197,730.1-196.9,730.1z"/>
				<path fill="#0F0F0F" d="M92.9,376.8c-0.9-2.9-0.7-4.8,0-6.7C92.9,371.9,92.9,373.8,92.9,376.8z"/>
				<path fill="#0F0F0F" d="M142,369c0,3.2,0,5.1,0,7C141.1,373.9,141,371.9,142,369z"/>
				<path fill="#111111" d="M52.1,376c0,1.9,0,3.8,0,6.4C50.7,379.9,51.7,378,52.1,376z"/>
				<path fill="#111111" d="M183.1,376.1c0,1.9,0,3.8,0,5.6c-0.2,0-0.3,0-0.5,0c0-1.9,0-3.8,0-5.7
					C182.8,376.1,183,376.1,183.1,376.1z"/>
				<path fill="#070707" d="M117.3,302.5c0.9,0.1,0.9,0.8,0.9,1.5c0,0.6,0,1.4-0.9,1.4s-0.9-0.8-0.9-1.4
					C116.4,303.2,116.4,302.6,117.3,302.5z"/>
				<path fill="#0C0C0C" d="M-147.9,615.7c-1.2,0-2.5,0-4.1,0C-150.4,614.3-149.1,615.3-147.9,615.7z"/>
				<path fill="#080808" d="M93.6,305.6c-0.1,1.4-0.3,2.8-0.4,4.3C92.9,308.4,90.2,306.7,93.6,305.6l-0.2,0.3L93.6,305.6z"/>
				<path fill="#080808" d="M141,305.6c3.1,0.7,0.8,2.7,1.2,4.5C140.7,308.6,141.6,306.9,141,305.6l0.2,0.2L141,305.6z"/>
				<path fill="#101010" d="M-130.5,726.9c0-1.3,0-2.5,0-4.1C-129.1,724.2-129.8,725.5-130.5,726.9z"/>
				<path fill="#101010" d="M364.6,722.1c0.9,2.2,0.8,3.4,0.4,4.8C363.7,725.6,364.4,724.3,364.6,722.1z"/>
				<path fill="#101010" d="M364.5,562.8c0-1.3,0-2.5,0-4.6C365.6,560.2,365.4,561.5,364.5,562.8z"/>
				<path fill="#0C0C0C" d="M-189.7,436.9c0,0.3,0,0.6,0,1c-1.6,0-3.2,0-4.8,0c0-0.3,0-0.6,0-1C-193,436.9-191.3,436.9-189.7,436.9z
					"/>
				<path fill="#101010" d="M-130.5,563.6c-0.1-2.3-0.5-3.6,0.4-4.9C-129.5,560.2-129.4,561.6-130.5,563.6z"/>
				<path fill="#0C0C0C" d="M424.3,437.9c0-0.3,0-0.6,0-1c1.6,0,3.2,0,4.8,0c0,0.3,0,0.6,0,1C427.6,437.9,425.9,437.9,424.3,437.9z"
					/>
				<path fill="#0D0D0D" d="M382.9,615.4c1.5-0.7,2.5-0.7,3.6,0C385.4,616.1,384.4,616,382.9,615.4z"/>
				<path fill="#0F0F0F" d="M105.5,658.4c-1,0.7-2.1,0.6-3.4,0C103.4,657.7,104.4,657.7,105.5,658.4z"/>
				<path fill="#0F0F0F" d="M129.5,657.9c0.9,0.1,2.5,0.1,2.5,0.3c0.2,1.2-0.9,0.6-1.5,0.7c-0.4,0.1-0.9-0.2-1.3-0.3
					C129.3,658.4,129.4,658.1,129.5,657.9z"/>
			</g>
		</g>
	</g>
</g>
</svg>
