<?xml version="1.0" encoding="utf-8"?>
<!-- Generator: Adobe Illustrator 18.1.1, SVG Export Plug-In . SVG Version: 6.00 Build 0)  -->
<!DOCTYPE svg PUBLIC "-//W3C//DTD SVG 1.1//EN" "http://www.w3.org/Graphics/SVG/1.1/DTD/svg11.dtd">
<svg version="1.1" id="Layer_1" xmlns="http://www.w3.org/2000/svg" xmlns:xlink="http://www.w3.org/1999/xlink" x="0px" y="0px"
	 viewBox="184.3 264.1 477.7 474.1" enable-background="new 184.3 264.1 477.7 474.1" xml:space="preserve">
<g>
	<rect x="184.3" y="264.1" width="11.1" height="472.7"/>
	<rect x="217.7" y="275.1" width="11" height="461.7"/>
	<rect x="251" y="275.1" width="11" height="461.7"/>
	<rect x="284.2" y="276.5" width="11" height="461.7"/>
	<rect x="317.7" y="276.5" width="11" height="461.7"/>
	<rect x="350.9" y="275.1" width="11" height="461.7"/>
	<rect x="384.3" y="275.1" width="11" height="461.7"/>
	<rect x="417.6" y="276.5" width="11" height="461.7"/>
	<rect x="451" y="276.5" width="11" height="461.7"/>
	<rect x="484.3" y="275.1" width="11" height="461.7"/>
	<rect x="517.6" y="276.5" width="11" height="461.7"/>
	<rect x="551" y="275.1" width="11" height="461.7"/>
	<rect x="584.3" y="276.5" width="11" height="461.7"/>
	<rect x="617.7" y="276.5" width="11" height="461.7"/>
	<rect x="651" y="275.1" width="11" height="461.7"/>
	<rect x="184.3" y="724.8" width="477.7" height="17.2"/>
	<rect x="189.8" y="275.1" width="472.2" height="5.5"/>
	<path d="M421.2,474.5"/>
</g>
</svg>
