<?xml version="1.0" encoding="utf-8"?>
<!-- Generator: Adobe Illustrator 18.1.1, SVG Export Plug-In . SVG Version: 6.00 Build 0)  -->
<!DOCTYPE svg PUBLIC "-//W3C//DTD SVG 1.1//EN" "http://www.w3.org/Graphics/SVG/1.1/DTD/svg11.dtd">
<svg version="1.1" id="Layer_1" xmlns="http://www.w3.org/2000/svg" xmlns:xlink="http://www.w3.org/1999/xlink" x="0px" y="0px"
	 viewBox="0 0 612 792" enable-background="new 0 0 612 792" xml:space="preserve">
<g>
	<rect x="594.9" y="151.2" fill="#4D4D4D" width="14.2" height="600.8"/>
	<rect x="552.6" y="165.2" fill="#4D4D4D" width="14" height="586.8"/>
	<rect x="510.3" y="165.2" fill="#4D4D4D" width="14" height="586.8"/>
	<rect x="468" y="166.9" fill="#4D4D4D" width="14" height="586.8"/>
	<rect x="425.5" y="166.9" fill="#4D4D4D" width="14" height="586.8"/>
	<rect x="383.3" y="165.2" fill="#4D4D4D" width="14" height="586.8"/>
	<rect x="340.8" y="165.2" fill="#4D4D4D" width="14" height="586.8"/>
	<rect x="298.5" y="166.9" fill="#4D4D4D" width="14" height="586.8"/>
	<rect x="256" y="166.9" fill="#4D4D4D" width="14" height="586.8"/>
	<rect x="213.7" y="165.2" fill="#4D4D4D" width="14" height="586.8"/>
	<rect x="171.4" y="166.9" fill="#4D4D4D" width="14" height="586.8"/>
	<rect x="129" y="165.2" fill="#4D4D4D" width="14" height="586.8"/>
	<rect x="86.7" y="166.9" fill="#4D4D4D" width="14" height="586.8"/>
	<rect x="44.2" y="166.9" fill="#4D4D4D" width="14" height="586.8"/>
	<rect x="1.9" y="165.2" fill="#4D4D4D" width="14" height="586.8"/>
	<rect x="1.9" y="736.6" fill="#4D4D4D" width="607.1" height="21.8"/>
	<rect x="1.9" y="165.2" fill="#4D4D4D" width="600.1" height="7"/>
	<path fill="#4D4D4D" d="M307.9,418.6"/>
</g>
</svg>
