<?xml version="1.0" encoding="utf-8"?>
<!-- Generator: Adobe Illustrator 18.1.1, SVG Export Plug-In . SVG Version: 6.00 Build 0)  -->
<!DOCTYPE svg PUBLIC "-//W3C//DTD SVG 1.1//EN" "http://www.w3.org/Graphics/SVG/1.1/DTD/svg11.dtd">
<svg version="1.1" id="Layer_1" xmlns="http://www.w3.org/2000/svg" xmlns:xlink="http://www.w3.org/1999/xlink" x="0px" y="0px"
	 viewBox="0 117 72 69" enable-background="new 0 117 72 69" xml:space="preserve">
<g>
	<rect x="70" y="115.2" fill="#4D4D4D" width="1.7" height="70.7"/>
	<rect x="65" y="116.8" fill="#4D4D4D" width="1.6" height="69"/>
	<rect x="60" y="116.8" fill="#4D4D4D" width="1.6" height="69"/>
	<rect x="55.1" y="117" fill="#4D4D4D" width="1.6" height="69"/>
	<rect x="50.1" y="117" fill="#4D4D4D" width="1.6" height="69"/>
	<rect x="45.1" y="116.8" fill="#4D4D4D" width="1.6" height="69"/>
	<rect x="40.1" y="116.8" fill="#4D4D4D" width="1.6" height="69"/>
	<rect x="35.1" y="117" fill="#4D4D4D" width="1.6" height="69"/>
	<rect x="30.1" y="117" fill="#4D4D4D" width="1.6" height="69"/>
	<rect x="25.1" y="116.8" fill="#4D4D4D" width="1.6" height="69"/>
	<rect x="20.2" y="117" fill="#4D4D4D" width="1.6" height="69"/>
	<rect x="15.2" y="116.8" fill="#4D4D4D" width="1.6" height="69"/>
	<rect x="10.2" y="117" fill="#4D4D4D" width="1.6" height="69"/>
	<rect x="5.2" y="117" fill="#4D4D4D" width="1.6" height="69"/>
	<rect x="0.2" y="116.8" fill="#4D4D4D" width="1.6" height="69"/>
	<rect x="0.2" y="184.1" fill="#4D4D4D" width="71.4" height="2.6"/>
	<rect x="0.2" y="116.8" fill="#4D4D4D" width="70.6" height="0.8"/>
	<path fill="#4D4D4D" d="M36.2,146.7"/>
</g>
</svg>
