<?xml version="1.0" encoding="utf-8"?>
<!-- Generator: Adobe Illustrator 18.1.1, SVG Export Plug-In . SVG Version: 6.00 Build 0)  -->
<!DOCTYPE svg PUBLIC "-//W3C//DTD SVG 1.1//EN" "http://www.w3.org/Graphics/SVG/1.1/DTD/svg11.dtd">
<svg version="1.1" id="Layer_1" xmlns="http://www.w3.org/2000/svg" xmlns:xlink="http://www.w3.org/1999/xlink" x="0px" y="0px"
	 viewBox="117.1 216 350.2 576" enable-background="new 117.1 216 350.2 576" xml:space="preserve">
<rect x="117.1" y="216" fill="#FFFFFF" width="348.3" height="576"/>
<g>
	<defs>
		<rect id="SVGID_1_" x="117.1" y="269.9" width="348.3" height="522.1"/>
	</defs>
	<clipPath id="SVGID_2_">
		<use xlink:href="#SVGID_1_"  overflow="visible"/>
	</clipPath>
	<g id="nbVllj.tif" clip-path="url(#SVGID_2_)">
		<g>
			<path d="M587.3,363.1c-3.3-1.9-4.2-4.7-3.8-8.4c0.7-5.7-0.8-11.3,1.7-17.1c1.5-3.5-1.6-7.2-3.5-11c-2.1,5-4.8,8.7-2.3,14.7
				c1.8,4.4,0.4,10.1,0.4,15.8c-10.1-7-19.6-14.2-30.1-19.6c-4.8-2.5-6.9-5.5-6-10.8c0.7-4.3-0.4-8.7,1.7-13.1
				c1.6-3.6-1.4-7.2-3.4-11.3c-2.2,5.1-4.9,8.7-2.3,14.5c1.8,4,0.3,9.5,0.3,15c-5.9-3.4-11.8-5.9-18.7-7.3
				c11.4-7.2,15.6-17.3,12.8-29.4c-3-13.2-11.5-21.7-25-24.5c-0.7-0.1-1.3-0.1-1.6-0.9c-3,0-6,0-9,0c-3.2,1.4-7.3-0.6-10.1,2.6
				c1,1.2-0.3,3.3,1.5,4.2c5.1-0.2,10-1.9,15.3-1.5c17,1,29.3,19.6,23,34.8c-3,7.2-11,12.6-18.3,12.5c-3.3,0-5.1-1.2-4.9-4.7
				c0.4-7.1-1-14.2,1.7-21.2c1.4-3.6-0.5-7.2-2.9-10.1c-0.8-1-2.1-1.2-3.1-0.2c-2.8,3-4.2,6.8-2.8,10.6c2.4,6.7,1,13.5,1.5,20.5
				c-4.4-2.4-4.6-2.7-2.8-7c1.1-2.7,0.9-5-1.5-6.6c-2-1.5-4.1-1.3-5.6,0.9c-0.5,1.1,1.3,1.5,0.6,2.5c0.3,0.7-0.6,0.7,0,0.5
				c0,0,0-0.5-0.1-0.8c-0.1-0.7-0.5-1.1-1.3-1.2c-3.3,5-0.6,9.2,1.9,13.3c1.4,2.3,3.6,3.9,6.2,6.4c-11.9,4.8-21.5,11.8-27.8,22.8
				c0.7-17.2-1.9-34.3,1.5-51.4c-0.2-2.5-2.4-1.7-3.7-2.3c-2.5-0.3-2.1-3.9-4.8-3.9c-1.6,0.7-2.1,2.1-2.3,3.6
				c5.1,17.8,1.2,36,2.5,54c-6.4-10.9-15.8-18-27.8-22.7c1.9-2.4,4.2-3.8,5.7-6c2.9-4.2,5.4-8.5,2.5-13.7c-1.5-0.2-1.5,0.8-1.4,1.8
				c-0.9-1.2,0.9-1.8,0.5-2.9c-1.5-2.3-3.5-2.4-5.6-1c-2.1,1.5-2.9,3.8-1.6,6.2c1.8,3.2,1.6,5.6-2.6,8.1c0.2-7-1-13.3,1.1-19.5
				c1.3-3.8,0.7-7.3-1.2-10.6c-1.6-2.8-3.7-3-5.3-0.2c-1.8,3-3.2,6.3-1.8,10c2.8,6.9,1.1,14.2,1.4,21.2c0.1,3.2-2.3,3.6-4.9,3.6
				c-11.5,0.2-22-12.3-19.9-23.8c3.1-17.3,18.1-26.9,35.2-22.6c1.4,0.4,2.9,0.9,4.4,0.7c2.8-0.6,0.6-3.1,1.7-4.4
				c-2.8-3-6.8-1.1-10-2.5c-3,0-6,0-9,0c-6.4,2-12.7,4.2-17.7,9.1c-11.5,11.1-15.4,33.3,3.5,45.6c-6.3,1.9-12.4,3.4-18.7,7.9
				c1-6.8-1.1-12.5,1.7-18.4c1.9-3.9-1.5-7.5-3.3-12.2c-2,5.3-4.5,8.7-2.6,14.5c1.8,5.6,2.5,12.6-0.9,18.7c-0.6,2.3,0.7,4.4,0.5,6.7
				c-0.2,53.7,0,107.3-0.1,161c0,3.7,0.2,7.4-1.5,10.8c-1.1,2.4,1.4,3.8,1.5,5.9c0.1,49.8-0.1,99.6,0.1,149.4
				c0,5.1-1.7,8.4-6.2,10.9c-8.2,4.5-15.7,10-23.5,15.2c-3.5,2.3-4.1,2-4.3-2.1c-0.1-1.2,0-2.3,0-3.5c0-46.3,0-92.6,0-138.9
				c0-3-0.1-6,0.7-8.9c-0.3-2.6-0.4-5.1-0.7-7.7c0-52.8,0.1-105.5-0.1-158.3c0-7.3,0.2-13.9,6.8-18.5c0.4-2-0.2-3.1-2.4-3
				c-1.6,1-3.3,1.9-5.7,3.4c1.1-6.7-1-12.8,1.7-18.9c1.8-3.9-1.5-7.4-3.3-12c-2,5.3-4.7,8.8-2.5,14.7c2,5.4,0.7,12.1,0.5,18.2
				c-0.1,1.8-2.5,2.5-3.6,3.8c-1.1,2.2,0.4,3.4,1.8,4.6c0.8,2.3,0.6,4.6,0.6,6.9c0,52.1,0,104.2,0,156.3c0,2.8,0,5.7-0.7,8.4
				c0.7,2.1-0.1,4.3,0.5,6.4c0.4,21.2,0.1,42.3,0.1,63.5c0.1,28.3,0,56.7,0.1,85c0,4.1-0.5,8-3.3,11.2c-0.8,2-1.3,4,1.3,5.3
				c2.2,0.9,2,2.9,2,4.7c0,18.6,0,37.3,0.1,55.9c0,3.6-1.2,5.2-4.9,5.1c-7.8-0.1-15.6-0.1-23.5,0c-3.1,0-4.6-1.3-4.6-4.5
				c0-11.2-0.1-22.3,0.1-33.5c0-1.9,0.7-3.6,1.5-5.3c0.8-2.1,0.5-4-0.9-5.7c-0.8-2.3-0.6-4.6-0.6-6.9c0-46.6,0-93.3,0-139.9
				c0-4,0.1-8,0.9-11.9c-2.1-3.8-2.1-7.9-2.1-12.1c0.1-52.1,0-104.3,0-156.4c0-2.3-0.3-4.7,0.4-6.9c0.7-2.1,2.7-3.4,3.5-5.4
				c-0.1-1.5-0.7-2.5-2.5-2.1c-0.7,0.1-2.1,1.5-1.9-0.5c0.5-5.5-1-11.1,1.2-16.7c1.5-3.8-1.3-7.4-3.6-11.1
				c-2.3,4.9-4.5,8.6-2.1,14.5c2,4.9,0.4,11.2,0.3,16.8c0,0.7-0.7,1.5-1.3,1.9c-11,7.8-22,15.7-34.7,22.1c1.2-7.2-1.1-13.8,1.8-20.5
				c1.3-3.1-1.7-7.1-3.9-10.7c-1.9,5.1-4.6,8.8-2.1,14.7c2.1,5,0.5,11.5,0.4,17.3c0,1.9-1.9,2.1-3.2,2.7c-10.3,4.8-21,8.6-32.8,11.6
				c0.9-6.8-1.4-13.3,1.5-19.9c1.6-3.7-1.6-7.3-3.9-11.8c-1.6,5.5-4.9,8.9-2.1,14.9c2.1,4.5,0.4,10.8,0.5,16.3
				c0,1.8-1.3,2.2-2.6,2.4c-10,1.7-19.9,3.3-29.9,5c-2.9,0.5-3.8-0.6-3.5-3.4c0.7-5.6-0.9-11.3,1.7-17c1.5-3.3-1.9-6.9-3.7-11.5
				c-2,5.6-5.1,9.1-2.4,15.1c2,4.4,0.5,10.5,0.4,15.8c0,2-1.8,1.8-3,1.8c-3.3,0.2-6.6,0.3-10,0.4c-0.1,0.6,0.1,1,0.7,1.2
				c3.1,0.1,6.3,0.1,8.3,0c-2.3-0.7-6,1.1-9.4-0.8c-4.9-0.2-9.9-0.6-14.8,0.8c-1.6,0-3.3,0-4.1,0c0.5,0.1,1.8-0.1,3.1,0
				c0.9-0.1,2.1,0.3,2.1-1.3c-9-0.5-9.1-0.5-8.9-9.8c0.1-3.8-0.2-7.5,1.6-11.5c1.6-3.4-1.8-6.9-3.2-10.7c-2.8,2.2-2.5,5.6-4.5,7.8
				c0,1.3,0,2.7,0,4c1.6,2.4,1,5.2,1,7.8c0,116.8,0,233.6,0.1,350.4c0,2.6-0.7,5.4,1,7.8c212,0,424,0,636,0c1.7-2.4,1-5.2,1-7.8
				c0-116.8,0-233.6,0.1-350.4c0-2.6-0.6-5.4,1-7.8c0-1.3,0-2.7,0-4c-1.2-2.4-2.4-4.9-4.4-8.8c-1.1,5.6-4.8,8.4-2.3,14.4
				c2.1,4.9,0.6,11.4,0.5,17.2c0,1.3-1.4,1.1-2.3,1.1c-2.2,0.1-4.3,0.2-6.5,0.2c-0.1,1.6,1.2,1.2,2,1.3c1.3,0,2.7,0.1,3,0
				c-0.6,0-2.3,0-3.9,0c-4.9-1.5-9.8-1-14.8-0.9c-3.3,2-7.1,0.1-9.4,0.9c2-0.1,5.2,0.1,8.3-0.1c0.6-0.2,0.8-0.6,0.7-1.2
				c-4.1-0.6-9.4,1.6-12.1-1.2c-2.7-2.9-0.7-8.2-0.9-12.5c-0.1-2.4,0.3-4.6,1.4-7.1c2-4.2-2-7.5-3.3-11.2c-2.1,4.5-5.3,8-2.6,14
				c2,4.3,0.4,10.1,0.4,15.3c0,1.9-1.4,1.6-2.5,1.5c-10.5-1.2-21-3-31.4-5.1c-1.5-0.3-2.4-1.1-2.2-2.8c0.9-6.3-1.5-12.6,1.7-19
				c1.7-3.5-1.8-7.1-3.6-12c-1.6,5.6-5.3,8.7-2.7,14.9c2,4.8,0.4,11.1,0.4,17.1c-11.8-2.9-22.8-7-33.6-11.9c-1.9-0.9-2.5-2-2.3-3.8
				c0.8-6.4-1.4-13,1.7-19.5c1.6-3.4-1.7-7.1-3.6-11.3c-1.9,5.2-4.9,8.7-2.5,14.7c1.9,4.7,0.4,10.8,0.4,16.7
				c-12.4-6.3-23.4-14.1-34.4-22c-0.6-0.4-1.4-1.3-1.3-1.9c0.7-6.5-1.5-13.1,1.4-19.5c1.9-4.2-1.2-7.8-3.5-12.5
				c-1.4,5.2-4.8,8.4-2.6,14.1c1.7,4.3,0.6,9.8,0.4,14.8c-0.1,1.4-1.2-0.1-1.8,0c-1.8-0.4-2.3,0.6-2.5,2.1c0.8,2.1,2.8,3.3,3.5,5.4
				c0.6,2.1,0.3,4.3,0.3,6.5c0,52.3,0,104.5,0,156.8c0,4.2,0,8.3-2.1,12.1c0.8,3.9,0.9,7.9,0.9,11.9c0,46.5,0,93,0,139.5
				c0,2.5,0.3,5-0.6,7.4c-1.4,1.7-1.7,3.7-0.8,5.7c1.2,2.3,1.5,4.7,1.5,7.3c0,10,0,20,0,30c0,5.4-0.5,5.8-5.6,5.9
				c-7.3,0.1-14.7-0.1-22,0.1c-3.7,0.1-5.4-1.2-5.4-5.1c0.1-18.6,0-37.3,0.1-55.9c0-1.8-0.2-3.8,2.1-4.6c2.5-1.3,2.1-3.2,1.2-5.3
				c-2.1-2.7-3.3-5.7-3.3-9.2c0-49.2,0-98.3,0.1-147.5c0-1,0.1-2,0.2-3c0.5-2.1-0.2-4.3,0.5-6.3c-0.7-3-0.7-6-0.7-9
				c0-51.8,0-103.6,0-155.4c0-2.5-0.2-5,0.7-7.4C586.9,366.5,588.3,365.2,587.3,363.1z"/>
			<path fill="#FEFEFE" d="M147.3,781.9c0-120,0-240,0-360.1c0-2.1,1.2-4.8-2-5.9c0,120.7,0,241.3,0.1,362
				C145.4,779.1,143.3,782.2,147.3,781.9z"/>
			<path fill="#FEFEFE" d="M785.3,415.9c-3.2,1.1-2,3.9-2,5.9c-0.1,78.7,0,157.5,0,236.2c0,41.3,0,82.6,0,123.8c0.6-0.4,2.1,1,2-1
				c-0.1-1.2,0-2.3,0-3.5C785.3,656.9,785.3,536.4,785.3,415.9z"/>
			<path fill="#FEFEFE" d="M462.2,290.9c0.7,1.6,1.3,3.2,2.3,4.7c1.2,1.9,1.6,0.3,2-0.7c0.8-0.4,1.4-0.9,1.8-1.6
				c4-8.3,10.2-14.4,18.4-18.4c0.8-0.4,1.2-1.1,1.6-1.8c3-2.1,6.8-1.5,10-3.1c-22,0-44,0-66,0c3.2,1.5,7,1.1,10,3.1
				c0.5,1.1,1.4,1.8,2.4,2.3c6.4,3.1,11.5,7.7,15.3,13.6C460.5,289.8,461.3,290.5,462.2,290.9z"/>
			<path fill="#050505" d="M344.4,365.9c-0.3-0.9-0.7-1.9-1-2.8c-10.3,7.3-20.4,14.7-30.2,22.8c0.7,0.6,1.4,1.3,2.1,1.9
				c1.5,0.8,2.5-0.3,3.5-1.1c7.9-5.8,15.7-11.7,23.5-17.6C343.3,368.3,344.6,367.6,344.4,365.9z"/>
			<path fill="#050505" d="M356.2,353.8c1,0.4,1.7,1,2.1,2c1.9,0.8,3.2-0.6,4.5-1.5c7.9-5.4,16.2-10.4,24.5-15.3
				c-1.4-1-0.3-3.1-1.9-4C375.1,340.5,365.3,346.7,356.2,353.8z"/>
			<path fill="#0A0A0A" d="M160.3,436.1c-0.7,0.3-1.3,0.6-2,0.9c-0.3,0.2-0.4,0.4-0.3,0.6c0.1,0.2,0.2,0.3,0.3,0.3
				c5.3-1.1,10.6-1,16-1l0,0c0-0.3,0-0.6,0-0.8C169.6,436.1,165,436.1,160.3,436.1z"/>
			<path fill="#050505" d="M615.3,387.8c0.7-0.6,1.4-1.3,2.1-1.9c-9.7-8-19.9-15.5-30.2-22.7c-0.4,0.9-0.7,1.9-1.1,2.8
				c-0.3,1.7,1.1,2.4,2.1,3.1c7.8,6,15.6,11.9,23.5,17.6C612.8,387.4,613.8,388.6,615.3,387.8z"/>
			<path fill="#0A0A0A" d="M772.3,436.9c-0.7-0.3-1.3-0.6-2-0.9c-4.7,0-9.4,0-14,0c0,0.3,0,0.6,0,0.8l0,0c5.4,0,10.7-0.1,16,1
				c0.3-0.2,0.4-0.4,0.3-0.6C772.5,437,772.4,436.9,772.3,436.9z"/>
			<path fill="#FEFEFE" d="M387.2,339.1c-2.1-1.1-3.4,0.7-4.8,1.5c-8.1,5-16.1,10.1-24.1,15.2c-6.7,3.3-7.7,8.8-7.7,15.9
				c0.3,52.8,0.2,105.6,0.1,158.4c0,1.8-0.2,3.6-0.3,5.5c1.6,1.7,3.1,0.5,4.4-0.3c9.3-6.2,18.5-12.5,28-18.3
				c0.7-0.4,1.2-1.1,1.6-1.9c2.9-1.2,2.7-3.8,2.7-6.3c0-54.8,0-109.5,0-164.3C387,342.7,387.1,340.9,387.2,339.1z"/>
			<path fill="#FEFEFE" d="M575.3,533.9c1.3,0.7,2.5,1.5,3.7,2.2c1.5-1.1,0.7-2.6,0.7-3.8c0-55.3,0-110.6,0.1-165.8
				c0-3.8-1.3-6-4.3-8.1c-9.2-6.4-18.6-12.6-28.3-18.4c-2.8-1.7-3.8-1.7-3.8,2.1c0.1,55.9,0.1,111.9,0,167.8c0,2.7,1,4.1,3.3,5.4
				c5.3,3,10.4,6.3,15.5,9.5C565.9,529,570.1,532.2,575.3,533.9z"/>
			<path fill="#FEFEFE" d="M663.3,418.8c0,34,0,67.3,0,100.6c0,23.7,0.1,47.3-0.1,71c0,3.1,0.9,4.6,3.8,5.8c9,3.8,18.1,7,27.3,10.1
				c4.8,1.6,4.9,0,4.9-3.9c-0.1-55.3-0.1-110.6,0-165.9c0-3.4-0.5-5.1-4.4-6.1C684.3,427.8,674,423.8,663.3,418.8z"/>
			<path fill="#FEFEFE" d="M267.3,418.8c-11.3,5.1-22.2,9.4-33.6,12.1c-3,0.7-2.3,2.7-2.3,4.6c0,21,0,42,0,63
				c0,34.8,0.1,69.6-0.1,104.4c0,3.8,0.5,4.8,4.5,3.5c9.6-3.1,19.1-6.4,28.2-10.5c1.9-0.8,3.3-1.4,3.3-4.1
				C267.2,534.4,267.3,476.9,267.3,418.8z"/>
			<path fill="#FEFEFE" d="M344.4,365.9c-9.7,7.3-19.4,14.6-29.1,21.8c-1.3,1-2.7,2.1-4,3.1c-0.9,1.6-0.4,3.3-0.4,4.9
				c0,55,0,110,0,165c0,1.7-1,4.1,0.9,5c1.9,0.9,3.8-0.7,5.4-1.9c8.3-6.2,16.5-12.4,24.8-18.6c1.5-1.1,2.6-2.6,3.4-4.2
				c1.8-1.2,1.8-3,1.8-4.8c0-56,0-112,0-167.9C347.1,366.7,348.1,363.5,344.4,365.9z"/>
			<path fill="#FEFEFE" d="M615.3,387.8c-9.7-7.3-19.4-14.6-29.1-21.8c-1.1-0.3-2.8-2.6-2.7,0.9c0,0.8,0,1.7,0,2.5
				c0,55.3,0,110.6,0,166c0,2.1-0.5,4.4,1.8,5.8c0.3,0.6,0.5,1.3,1,1.7c9.3,8.4,19.5,15.5,29.8,22.6c3.1,2.2,3.8-0.3,3.7-3.1
				c-0.1-15.8,0-31.7,0-47.5c0-39.5,0-79,0-118.5c0-1.8,0.4-3.7-0.4-5.4C618,389.9,616.6,388.8,615.3,387.8z"/>
			<path fill="#FEFEFE" d="M623.4,394.3c0,57.9,0,114.9,0,171.9c0,1.4-0.4,2.9,1.2,4c11.1,7.8,22.1,15.6,34.7,22.2c0-2.1,0-3.5,0-5
				c0-55.3,0-110.6,0.1-165.9c0-3.4-1-5.2-4.1-6.8c-9.6-4.9-18.4-11.1-27.2-17.3C626.9,396.3,625.5,395.5,623.4,394.3z"/>
			<path fill="#FEFEFE" d="M307.2,394.1c-11.8,8.1-22.5,15.9-34.3,21.9c-2.4,1.2-1.6,3.4-1.6,5.3c0,40.8,0,81.6,0,122.4
				c0,16,0,32,0,48.4c7.4-3.1,13.5-7.5,19.8-11.7c5.4-3.6,12.5-6.4,15.3-11.5c2.6-4.7,0.8-12,0.8-18.2c0-50.3,0-100.6,0-150.9
				C307.2,398.3,307.2,396.7,307.2,394.1z"/>
			<path fill="#FEFEFE" d="M540,675.2c0-52.6,0-104.5,0-156.3c0-2.5-0.7-3.9-3-5c-9.4-4.8-19.3-8.6-29.3-12c-3.2-1.1-4.1-0.6-4.1,3
				c0.2,17.2,0.1,34.3,0.1,51.5c0,33.3,0,66.7-0.1,100c0,3.3,0.6,4.8,4.2,5.8C518.8,665.2,529.2,669.7,540,675.2z"/>
			<path fill="#FEFEFE" d="M390.6,675.1c11.3-5.5,22.1-10.4,33.6-13.3c1.8-0.5,3-1.3,2.7-3.5c-0.1-0.7,0-1.3,0-2
				c0-50.2-0.1-100.3,0.1-150.5c0-4.7-1.4-4.9-5.1-3.6c-9.7,3.3-19.2,7-28.3,11.7c-2,1-2.9,2.1-2.9,4.5
				C390.6,570.4,390.6,622.4,390.6,675.1z"/>
			<path fill="#FEFEFE" d="M560.1,527c-5.2-3-10.5-6.1-15.6-9.1c-1.5,0.9-0.8,2.2-0.8,3.2c0,50.5,0,100.9-0.1,151.4
				c0,3.5,1.1,5.3,4.1,7c11,6,21.3,13.3,31.6,20.5c1.3-1.5,0.6-3.1,0.6-4.4c0-49,0-97.9,0.1-146.9c0-5.2-0.6-9.4-5.6-11.9
				C570.5,532.1,565.6,529.2,560.1,527z"/>
			<path fill="#FEFEFE" d="M352.3,539.7c-1.6,1.1-1.5,2.8-1.5,4.5c0,51.8,0,103.5,0,155.6c2-0.2,3.3-1.5,4.7-2.5
				c8.8-6.2,17.7-12.3,27.1-17.4c3.3-1.8,4.5-3.8,4.5-7.7c-0.2-49.3-0.1-98.6-0.1-147.9c0-2,0.1-4,0.2-6c-1.5-1.9-3.1-0.5-4.4,0.2
				c-9.8,5.4-18.8,11.9-28.1,18.2C353.6,537.3,352.8,538.4,352.3,539.7z"/>
			<path fill="#FEFEFE" d="M263.3,760.1c2.2-1.1,4-2,4-5.3c-0.2-51.3-0.1-102.6-0.1-153.9c0-0.6-0.1-1.2-0.2-2.3
				c-9.7,4.1-19,8.3-29,10.6c-5.3,1.2-7,3.3-7,9.1c0.3,49.3,0.2,98.6,0.1,147.9c0,4.4,0.8,5.5,5.1,3.8c4.4-1.7,9.1-2.8,13.7-4.2
				C254.9,764.9,259.7,763.9,263.3,760.1z"/>
			<path fill="#FEFEFE" d="M680.6,765.7c4.9,1.5,9.9,2.7,14.6,4.5c3.6,1.4,4.1,0.4,4.1-3.1c-0.1-22.8-0.1-45.6-0.1-68.5
				c0-27.8,0-55.6-0.1-83.4c0-1.5,1.4-3.7-1.5-4.5c-11.6-3.1-22.8-7.2-34.4-12.4c0,2.3,0,3.9,0,5.5c0,49.8,0,99.6-0.1,149.4
				c0,3.3,0.3,5.9,4,6.8C670.9,763.9,675.7,764.9,680.6,765.7z"/>
			<path fill="#FEFEFE" d="M313.3,568.7c-1.7,1.1-2.2,2.6-2.2,4.6c0.1,51.1,0,102.3,0.1,153.4c0,1-1.3,4,2,2.1
				c1.8-0.3,3.3-1.2,4.8-2.3c7-5.3,14-10.6,21.1-15.8c1.4-1,2.6-2.1,3.2-3.7c4-2.4,4.9-5.8,4.9-10.4c-0.2-49.1-0.1-98.2-0.1-147.3
				c0-1.8,0.5-3.7-0.5-5.4c-1.6,0.3-3.1,0.8-4.5,1.8c-8.6,6.5-17.3,13-26,19.5C314.8,566.2,313.8,567.3,313.3,568.7z"/>
			<path fill="#FEFEFE" d="M584,544c-1,1.7-0.5,3.6-0.5,5.4c0,49.1,0,98.2-0.1,147.3c0,4.6,0.9,8,4.9,10.4c0.7,1.8,2.1,2.9,3.6,4
				c6.8,5,13.5,10.1,20.3,15.2c1.6,1.2,3.2,2.3,5.2,2.6c0.7-0.2,1.6,1.9,2.1-0.1c0.2-1,0-2,0-3c0-50.5,0-100.9,0-151.4
				c0-2.2,0.2-4.4-2.1-5.6c-9.5-9.6-20.7-17-31.9-24.4C585.1,544.1,584.5,544.2,584,544z"/>
			<path fill="#FEFEFE" d="M303.3,736c3.3-1.8,3.9-4.6,3.9-8.3c-0.1-51.1-0.1-102.2-0.1-153.6c-2.6,0.4-4.1,2.3-5.9,3.5
				c-8.9,6.1-17.7,12.2-27.3,17.2c-2,1-2.8,2.2-2.8,4.5c0.1,51.1,0.1,102.2,0,153.3c0,2.7,0.6,3.5,3.1,2.2c1.7-0.5,3.5-0.7,5.1-1.7
				c7.3-4.8,14.8-9.4,21.9-14.5C302.2,738,302.9,737.1,303.3,736z"/>
			<path fill="#FEFEFE" d="M656.3,754.9c3.4,1.8,3.1-0.4,3.1-2.7c0-40,0-79.9,0-119.9c0-10.7-0.1-21.3,0.1-32c0.1-3-0.9-4.6-3.7-6
				c-11.1-5.8-21.3-13.2-32.3-20.8c0,2.1,0,3.5,0,4.9c0,49.8,0,99.6-0.1,149.3c0,3.6,0.6,6.5,3.9,8.3c0.9,2.4,3.1,3.3,5,4.6
				c5.9,4.3,12.2,7.9,18.1,12C652.2,753.9,654.2,754.5,656.3,754.9z"/>
			<path fill="#FEFEFE" d="M461.3,495.7c-9,0.2-17.8,1.7-26.6,3.2c-3.2,0.5-4.2,1.9-4.2,5.2c0.1,50.5,0.1,101,0,151.4
				c0,4.1,0.9,4.3,4.7,3.6c7.8-1.5,15.7-2.6,23.7-2.9c4.4-0.2,4.5-1.9,4.5-5.3c-0.1-33.3,0-66.6-0.1-100c0-18.3,0-36.7,0-55
				C462.7,495.3,462,495.3,461.3,495.7z"/>
			<path fill="#FEFEFE" d="M467.4,496c0,52,0,104-0.1,155.9c0,3.2,0.8,4,4,4.2c8.3,0.4,16.6,0.9,24.6,3.1c4.4,1.2,4.2-0.6,4.2-3.7
				c-0.1-13,0-26,0-39c0-37.3-0.1-74.6,0.1-112c0-3.7-1.1-5.2-4.7-5.8c-8.7-1.5-17.3-2.8-26.1-3.1
				C468.6,495.3,467.9,495.3,467.4,496z"/>
			<path fill="#FEFEFE" d="M540,510.7c0-1.5,0-2.9,0-4.4c0-55.1-0.1-110.2,0.1-165.4c0-4-1.3-5.7-4.7-7.4
				c-8.6-4.2-17.4-6.2-26.9-5.6c-3.3,0.2-5.1,1.1-4.8,5c0.4,6,0.1,12,0.1,18c0,1.3-0.6,3,2.1,2.7c10.8-1.1,18.6,3.7,23.6,13
				c5.1,9.7,4.2,19.2-2,28.1c-5,7.1-11.8,11.6-20.4,13.1c-2.5,0.4-3.4,1.1-3.4,3.6c0.1,27.6,0,55.3,0,82.9c0,1.7,0.1,3,2.3,3.6
				c11.2,3,21.9,7.3,32.2,12.7C538.6,510.8,539.2,510.7,540,510.7z"/>
			<path fill="#FEFEFE" d="M390.6,511.4c11.6-5.6,22.8-10.5,34.6-13.6c2.6-0.7,1.6-3,1.6-4.6c0.1-24.8,0-49.6,0-74.4c0-1-0.1-2,0-3
				c0.9-5.2-0.8-7.3-6.4-8.9c-20.7-5.7-29.2-28.4-16.9-44.2c5.1-6.5,11.9-10.1,20.3-9.1c2.8,0.3,3-0.6,3-2.8
				c-0.1-6.2-0.2-12.3,0-18.5c0.1-3.3-1.5-4-4.1-4.2c-10.9-1.1-20.9,1.9-30.5,7c-2.5,1.3-1.7,3.3-1.7,5.2c0,20,0,40,0,60
				C390.6,436.9,390.6,473.7,390.6,511.4z"/>
			<path fill="#FEFEFE" d="M227.3,432.8c-11.5,2.3-22.5,4.7-33.7,5.3c-3.4,0.2-2.2,2.8-2.2,4.5c-0.1,22.7,0,45.3,0,68
				c0,1.7,0.2,3.4,0,5c-1.1,8.8,0.1,14.4,10.5,18.5c18.2,7,23.2,29.8,11.5,43.8c-4.8,5.7-11,9-18.6,9c-2.4,0-3.6,0.2-3.5,3.1
				c0.2,6.7,0.1,13.3,0,20c0,1.9,0.2,2.9,2.6,3.1c10.9,0.8,21.4-2,31.9-4.2c2.7-0.5,1.5-2.6,1.5-4c0.1-12,0.1-24,0.1-36
				c0-43.5,0-87,0-130.4C227.3,436.7,227.3,434.9,227.3,432.8z"/>
			<path fill="#FEFEFE" d="M703.3,521c0,27.8,0,55.6,0,83.5c0,2.8,0.3,4.5,3.6,5c9.6,1.5,19.1,4.3,29,3.7c2.8-0.2,3.6-1,3.5-3.8
				c-0.2-6.5-0.1-13-0.1-19.5c0-1.8,0.1-3.1-2.5-3c-12.5,0.4-22.3-9.3-24.8-19.1c-2.7-10.6,1.8-23.8,11.2-30.9
				c3.9-2.9,8.1-5.3,12.9-6c2.5-0.4,3.2-1.5,3.2-3.9c-0.1-28.5-0.1-57,0-85.5c0-2.6-0.8-3.4-3.4-3.6c-9.6-0.4-19.1-2.1-28.4-4.4
				c-4.1-1-4.3,0.1-4.3,3.5C703.4,465,703.3,493,703.3,521z"/>
			<path fill="#FEFEFE" d="M703.3,612.4c0,18.5,0,36.5,0,54.5c0,33.6,0,67.3-0.1,100.9c0,3.3,0.5,4.8,4.3,5.5
				c9.4,1.7,18.8,4,28.5,3.7c2.6-0.1,3.4-0.8,3.3-3.4c-0.2-6.7-0.1-13.3-0.1-20c0-1.4,0.4-2.8-2.1-2.8c-12.7,0.1-22.6-8.6-25.6-20.3
				c-2.7-10.7,3.1-24.3,13.3-31.1c3.5-2.3,7.2-4.1,11.3-4.8c2.2-0.4,3.2-1.3,3.2-3.9c-0.1-23.5-0.1-47-0.1-70.5
				c0-1.4,0.9-3.6-2.1-3.3C725.7,617.9,714.9,614.1,703.3,612.4z"/>
			<path fill="#FEFEFE" d="M227.2,612.5c-5.2,0.9-10.3,1.5-15.2,2.7c-5.7,1.4-11.4,2-17.3,1.7c-2.4-0.1-3.5,0.1-3.5,3
				c0.1,23.7,0.2,47.3,0,71c0,3.3,2,3.4,3.9,3.9c12.3,3.2,20.1,10.9,23.5,23.1c4.4,16-7.2,32.2-23.8,32.9c-3,0.1-3.5,0.9-3.4,3.6
				c0.2,6.3,0.2,12.7,0,19c-0.1,2.8,0.7,3.6,3.6,3.7c10.4,0.5,20.4-2.3,30.4-4.1c2.9-0.5,2-2.7,2-4.3c0.1-12,0-24,0-36
				c0-39.1,0-78.3,0-117.4C227.3,614.4,227.2,613.5,227.2,612.5z"/>
			<path fill="#FEFEFE" d="M426.9,721.2c0-17.5-0.1-35,0.1-52.5c0-3.5-0.6-4.1-4.1-3c-10.1,3.2-19.8,7.2-29.3,11.9
				c-2.3,1.2-3,2.5-3,4.9c0.1,30.5,0.1,61,0,91.5c0,3,0.7,4,3.9,3.9c9.5-0.2,19-0.3,28.5,0c3.6,0.1,4-1.3,4-4.3
				C426.8,756.2,426.9,738.7,426.9,721.2z"/>
			<path fill="#FEFEFE" d="M503.7,721.3c0,17.5,0.1,35-0.1,52.5c0,3.1,0.6,4.3,4.1,4.2c9.5-0.3,19-0.2,28.5,0c3.2,0.1,3.8-1,3.8-4
				c-0.1-30.5-0.1-61,0-91.5c0-2.5-0.8-3.8-3.1-4.9c-9.6-4.8-19.5-8.8-29.7-12c-3.3-1-3.5-0.2-3.5,2.7
				C503.8,685.9,503.7,703.6,503.7,721.3z"/>
			<path fill="#FEFEFE" d="M467.3,719c0,18.2,0.1,36.3-0.1,54.5c0,3.4,0.6,4.6,4.3,4.5c8.3-0.3,16.7-0.2,25,0
				c2.8,0.1,3.7-0.8,3.7-3.6c-0.1-35.8-0.1-71.6,0-107.4c0-2-0.3-3.5-2.6-4c-9.1-1.7-18.3-3.1-27.6-3.4c-3.7-0.1-2.5,2.4-2.5,4
				C467.3,682.1,467.3,700.6,467.3,719z"/>
			<path fill="#FEFEFE" d="M463.3,718.5c0-18.3-0.1-36.6,0.1-55c0-3.2-0.6-4.1-4.1-3.9c-8.5,0.4-16.8,1.7-25.1,3.2
				c-3.1,0.5-3.6,1.9-3.6,4.6c0.1,35.5,0.1,71,0,106.4c0,3.3,0.9,4.2,4.2,4.1c8.2-0.2,16.3-0.3,24.5,0c3.7,0.1,4.3-1.2,4.3-4.5
				C463.2,755.2,463.3,736.9,463.3,718.5z"/>
			<path fill="#FEFEFE" d="M151.3,554.1c7.4-14,18.4-22.3,34-24.2c3.3-0.4,2-2.6,2-4c0.1-16.8,0.1-33.7,0.1-50.5c0-11-0.1-22,0.1-33
				c0-2.7-0.5-3.8-3.5-3.6c-9.8,0.6-19.6,1.1-29.4,0c-2.2-0.2-3.2,0.3-3.2,2.9C151.3,479.2,151.3,516.7,151.3,554.1z"/>
			<path fill="#FEFEFE" d="M779.3,554.2c0-1.8,0-3.6,0-5.3c0-35.2-0.1-70.3,0.1-105.5c0-3.9-1-4.9-4.7-4.4c-9.1,1.1-18.3,0.5-27.4,0
				c-2.7-0.1-4.1,0.1-4.1,3.5c0.2,28,0.1,56,0.1,84c0,1.7-0.6,3.3,2.4,3.6C761.1,532,772,540.2,779.3,554.2z"/>
			<path fill="#FEFEFE" d="M153.5,587.9c-0.5-0.8-1-1.7-1.8-3.2c0,45,0,89.2,0,134.1c0.8-1.3,1.3-2.1,1.8-2.8
				c1.7-0.7,2.4-2.3,3.1-3.8c3-5.6,8.7-8.5,12.7-13.2c4.6-3.1,9.8-4.7,15.3-5c2.2-0.1,2.8-0.8,2.8-2.9c-0.1-24.2-0.1-48.5,0-72.7
				c0-2.5-1.3-2.9-3.2-3.5c-4.6-1.4-9-3.1-12.8-6.1c-1.1-2.6-3.6-3.8-5.6-5.5C160.6,598.9,157.9,592.7,153.5,587.9z"/>
			<path fill="#FEFEFE" d="M777.2,715.9c0.5,0.8,1,1.5,1.9,3c0-45,0-89.2,0-133.7c-1.9,1.7-2.1,3.9-3.1,5.7
				c-6.6,11.8-16.3,20-29.2,24c-2.8,0.9-3.5,2-3.5,4.8c0.1,23.5,0.1,47,0,70.5c0,2.9,0.5,3.9,3.7,4c5.1,0.3,10,2,14.3,4.9
				C767.2,704,772.5,709.7,777.2,715.9z"/>
			<path fill="#FEFEFE" d="M387,729.4c0-14.8,0-29.6,0-44.5c0-2.7-0.2-3.8-3.2-2.1c-10.7,6.3-21,13.3-31.2,20.4
				c-1.5,1.1-2,2.4-2,4.2c0.1,22.3,0.1,44.6,0,66.9c0,2.9,1,3.6,3.7,3.6c9.5-0.2,19-0.2,28.5,0c3.3,0.1,4.2-0.8,4.2-4.1
				C386.9,759,387,744.2,387,729.4z"/>
			<path fill="#FEFEFE" d="M543.6,729.9c0,14.5,0.1,29-0.1,43.5c-0.1,3.9,1.1,4.7,4.7,4.6c9.3-0.3,18.7-0.2,28,0
				c2.8,0,3.7-0.7,3.7-3.6c-0.1-22.1-0.1-44.3,0-66.4c0-2.2-0.5-3.7-2.4-5c-9.5-6.7-19.1-13.2-29.1-19.1c-4.8-2.8-4.8-2.8-4.8,2.6
				C543.6,700.9,543.6,715.4,543.6,729.9z"/>
			<path fill="#FEFEFE" d="M442.3,405.7c-1.8,0.7-3.7,2.1-5.5,2c-6-0.4-6.4,2.7-6.3,7.6c0.2,25.5,0.2,50.9,0,76.4
				c0,3.9,0.8,4.8,4.7,3.8c8.1-2,16.4-2.7,24.7-2.9c2.4-0.1,3.5-0.5,3.5-3.3c-0.1-34.2-0.1-68.5-0.1-103.1c-2,0.7-1.8,2.9-3.1,3.7
				C454.7,395.6,448.8,401,442.3,405.7z"/>
			<path fill="#FEFEFE" d="M467.3,385c0,11.6,0,21.7,0,31.8c0,23.6,0.1,47.3-0.1,70.9c0,3.4,0.5,5.1,4.4,5.1c8.5,0,16.9,1,25.1,3.1
				c2.6,0.6,3.4-0.3,3.4-3c-0.1-27-0.1-53.9,0-80.9c0-1.9,0-3.6-2.6-3.8C483.5,406.6,474.6,398,467.3,385z"/>
			<path fill="#FEFEFE" d="M489,305.6c1.8-2.5,3.9-2.3,5.9-0.5c1.7,1.6,2,4,0.1,5.2c-3.8,2.4-1.5,4.5,0,6.6c1.1,1.6,2.4,3.2,5.2,4.2
				c-1.1-8.2,1.5-16.1-1.7-24c-1.6-4,1.2-7.6,3.3-12c2.2,4.9,5.9,8.6,2.2,13.9c-0.6,0.8-0.4,2.2-0.4,3.4c0,4.5,0,9,0,13.5
				c0,8.3,2.1,9.9,10.4,7.5c9.3-2.7,15.2-8.9,16.7-18.4c1.5-10.1-2.5-18.6-10.3-25c-7.7-6.3-16.7-7.6-26.2-5.2
				c-1.6,0.4-3.2,0.8-4.8,1.1c-8.9,1.7-18.4,11.3-20.1,20.1c-3.4,10.2-1.7,20.7-2,31.1c-0.2,8.3,0,16.7,0,26.7
				c7.4-14.4,17.6-23.6,32.1-27.9C492.9,320.5,486.1,315.5,489,305.6l0.3,0.3L489,305.6z"/>
			<path fill="#FEFEFE" d="M441.6,305.6c2.5,6.2-0.9,10.7-4.3,15.1c-1.5,2-3.6,3.4-6.5,5c14.6,4.7,25.2,13.4,32.5,26.6
				c0-9.5,0.2-19-0.1-28.6c-0.2-7.8,1.1-15.6-0.9-23.3c-0.6-2.2-1.3-4.4-2-6.6c-3.2-9.4-9.6-15.4-19.1-18
				c-10.8-3.2-21.2-3.7-30.6,3.8c-7.9,6.3-12.1,14.7-10.8,24.8c1.2,9.4,7,15.8,16.3,18.8c2.8,0.9,5.6,0.5,8.4,0.6
				c1.4,0.1,2.4-0.6,2.4-2c0.1-7.5,1.7-15.5-0.5-22.3c-1.8-5.9,0.4-9.3,2.2-14.7c2.7,5.4,4.4,9.1,2.6,15c-2,6.3-0.4,13.8-0.4,21.3
				c3.5-1.6,5.2-4.3,6.9-7.1c1.1-1.9-0.3-2.1-1.2-2.9c-2.1-1.8-2.6-3.9-0.5-6C437.7,303.2,439.8,303.1,441.6,305.6l-0.2,0.3
				L441.6,305.6z"/>
			<path fill="#FEFEFE" d="M587.2,709.9c-1.3-0.1-1.8-2.4-3.3-1.5c-1.1,0.6-0.4,2.1-0.4,3.2c0,20.8,0,41.6-0.1,62.3
				c0,2.8,0.4,4.1,3.7,4.1c9.6-0.2,19.3-0.2,28.9,0c3.1,0.1,3.4-1.1,3.4-3.7c-0.1-12-0.2-23.9,0-35.9c0.1-3-0.8-5.1-3.2-6.6
				c-0.7-1.8-2.1-2.9-3.6-4c-6.8-5-13.5-10.1-20.3-15.2C590.9,711.3,589.3,710.2,587.2,709.9z"/>
			<path fill="#FEFEFE" d="M314.3,731.7c-2.4,1.5-3.3,3.6-3.2,6.6c0.2,11.8,0.2,23.6,0,35.4c0,3,0.4,4.3,3.9,4.2
				c9.3-0.3,18.6-0.2,27.9,0c3.2,0.1,4.3-0.7,4.2-4.1c-0.2-20.8-0.1-41.6-0.1-62.3c0-1.1,0.7-2.6-0.4-3.2c-1.5-0.8-1.9,1.5-3.3,1.6
				c-1.8,0.3-3.3,1.2-4.8,2.3c-7,5.3-14,10.6-21.1,15.8C316.1,729,314.9,730.1,314.3,731.7z"/>
			<path fill="#FEFEFE" d="M743.3,611.9c20.3-5.7,33.5-20.9,34.4-41.3c0.9-18.8-13.1-34-30.5-36.7c-2.7-0.4-4.5-0.1-4,3.4
				c0.3,1.6,0.2,3.3,0,5c-0.4,4.3,0.3,7,5.1,9.3c12.6,6.2,11.9,24.5-1.2,32c-3.4,2-4.1,4-4,7.4C743.4,597.9,743.3,604.7,743.3,611.9
				z"/>
			<path fill="#FEFEFE" d="M174.4,606.9c4,1.9,7.9,3.9,12.9,5.2c0-8.4-0.1-16.5,0-24.5c0-2.6-2.2-2.7-3.6-3.5
				c-11.7-7.1-14.1-21.7-4.9-30.3c0.8-0.8,2-1.2,2.8-2.1c1.6-1.7,5.2-0.7,5.5-3.3c0.5-4.4,0.7-9.1-0.1-13.4
				c-0.4-2.5-3.8-1.2-5.5-0.8c-12.3,3.1-21.3,10.4-26.2,22.2c-3.9,9.4-2.7,18.8,0.1,28.1C158.3,594.9,164.3,602.6,174.4,606.9z"/>
			<path fill="#FEFEFE" d="M760.1,702c-4.6-1.8-9-3.9-14-4.5c-2.4-0.3-3,0.4-2.9,2.5c0.1,2,0.1,4,0,6c-0.2,4.2,0,7,5.1,9.4
				c12.6,6,11.7,24.7-1.1,32c-3.3,1.9-4.2,3.8-4.1,7.3c0.3,6.9,0.1,13.9,0.1,20.9c20.2-4.1,41.9-28.2,31.9-56.5
				C772.9,711,767.8,705.4,760.1,702z"/>
			<path fill="#FEFEFE" d="M155.4,719.1c-10.1,28.4,12,52.6,31.9,56.4c0-8-0.1-15.9,0.1-23.9c0.1-2.9-2.2-3-3.7-3.9
				c-11.3-6.7-13.9-21.4-5.1-30c0.9-0.9,2.1-1.6,3.1-2.5c1.6-1.5,5.3-0.6,5.5-3.4c0.4-4.4,0.2-9,0-13.5c-0.1-1.8-1.6-1-2.7-0.9
				c-5,0.3-9.4,2.6-14,4.4C162.8,705.4,157.7,711,155.4,719.1z"/>
			<path fill="#FEFEFE" d="M498.3,356.1c0.8-0.6,1.7-1.1,1.7-2.2c0-7.3,0-14.7,0-22c0-1.5-0.4-2.2-2-1.6
				c-14.3,5.1-27.2,17.4-29.6,34.4c-2.3,16.1,6.5,31.3,21,37.7c9.9,4.4,10.5,4,10.7-6.5c0-3.8-0.3-6.4-4.4-8.6
				c-7.4-3.9-9.7-13.1-6.3-21.3C492.6,362.8,495.3,359.3,498.3,356.1z"/>
			<path fill="#FEFEFE" d="M457.2,388.7c14.6-27.2-4.4-50.7-22.9-57.8c-2.9-1.1-4-1.1-3.9,2.6c0.3,6.1,0.1,12.3,0.1,18.4
				c0,1.7-0.1,3.3,1.8,4.2c3,3.2,5.7,6.7,8.9,9.8c3.4,8.3,0.9,17.4-6.6,21.6c-3.3,1.8-4.2,3.7-4.1,7.2c0.2,10.8,0.1,10.8,10.6,8.1
				C448.8,400.8,454.1,396,457.2,388.7z"/>
			<path fill="#FEFEFE" d="M626.3,738.9c-1,0-2.8-2.7-2.8,0.8c0,12,0,24,0,35.9c0,2.3,1.3,2.3,2.9,2.3c10.2,0,20.3-0.1,30.5,0
				c2.3,0,2.7-0.9,2.7-2.9c-0.1-3.3-0.3-6.7,0-10c0.4-3.6-0.6-6.1-4.1-7.3c-0.8-1.8-2.5-2.6-4.1-3.6c-6.8-4-13.4-8.1-19.6-12.8
				C630,740.1,628.3,739.2,626.3,738.9z"/>
			<path fill="#FEFEFE" d="M275.3,757.7c-3.5,1.2-4.5,3.7-4.1,7.3c0.4,4.1-1.3,9.5,0.8,12c2.2,2.7,7.8,0.7,11.9,0.8
				c6.7,0.1,13.3-0.1,20,0.1c2.6,0.1,3.4-0.6,3.4-3.3c-0.1-11.3-0.1-22.6,0-33.9c0-2.6-0.4-3.5-2.9-1.8c-1.6,0.4-3.2,0.8-4.5,1.9
				c-6.8,5.2-14,9.6-21.3,13.9C277.2,755.5,275.9,756.3,275.3,757.7z"/>
			<path fill="#FDFDFD" d="M510.2,384.1c-4.1-4.4-3.7-9,0.6-10.1c1.9-0.5,3.7-0.2,5,1.3c1.6,1.7,1.9,3.7,1,6
				c-1.9,4.8-5.6,7.4-10.3,8.4c-2.4,0.5-3,1.4-2.8,3.5c0.1,1.3,0,2.7,0,4c0,8.8,0.3,9.2,8.5,5.4c9.3-4.3,15.6-11.4,16.7-21.8
				c0.9-8.1-2.5-14.9-9.1-19.8c-1.6-1.2-3.3-2.2-5.1-2.9c-8.3-3.3-11-1.5-11,7.2c0,5.2,0,10.3,0,15.5
				C503.7,387.1,504,387.3,510.2,384.1z"/>
			<path fill="#FDFDFD" d="M420.8,384.2c5.7,3.1,6.1,2.9,6.1-3.5c0-6.5-0.1-13,0.1-19.5c0.1-3.2-0.8-4.3-4.2-4.4
				c-15.1-0.4-26,17.3-19.1,31.5c4.1,8.5,10.9,13.9,20.3,15.9c2.3,0.5,3.1,0.4,2.9-2c-0.1-1.2-0.1-2.3,0-3.5
				c0.3-4.9,0.8-9.7-6.4-10.5c-3-0.3-5.1-3.4-6.4-6.5c-1.3-2.8-1-5.2,1.5-7c2.4-1.7,4.8-1.4,6.7,0.8c2,2.3,1.7,4.9-0.4,7.2
				C421.4,383.2,420.7,383.4,420.8,384.2z"/>
			<path fill="#FEFEFE" d="M732.4,720.4c2.9,1.6,5.2,3.3,4.3,6.7c-0.5,2-1.7,3.5-4,3.9c-3.9,0.5-6.9-2.5-6-6.4
				c1.1-5,3.8-9.1,8.8-10.6c3.2-1,4.3-2.4,3.9-5.5c-0.2-1.8,0-3.7,0-5.5c0-6-0.3-6.2-6-4c-12.8,4.8-20.5,18-17.9,30.8
				c1.8,9.1,11.2,17,20.1,17.2c2.9,0.1,4.1-0.5,4-3.7c-0.3-7.3,0-14.7-0.1-22c0-1.4,0.8-3.3-0.6-4.1c-1.4-0.9-2.7,0.7-4,1.4
				C733.9,718.9,733.4,719.6,732.4,720.4z"/>
			<path fill="#FEFEFE" d="M198,720.4c-0.5-0.5-0.9-1.1-1.4-1.5c-1.4-0.9-2.8-2.5-4.4-1.9c-1.9,0.8-0.8,2.9-0.8,4.4
				c-0.1,7.2,0.2,14.3-0.1,21.5c-0.2,3.5,1.2,4.1,4.2,4c13.5-0.3,23.7-15.4,19.5-29.2c-3.1-10.1-10.1-16.5-20.1-19.6
				c-2.5-0.8-3.8-0.4-3.5,2.6c0.2,1.3,0.2,2.7,0,4c-0.6,4.9-0.1,8.7,5.8,10.3c3.8,1.1,5.5,4.9,6.7,8.8c0.9,3.1-0.1,5.5-2.7,6.7
				c-2.3,1.1-5,0.7-6.5-1.9c-1.6-2.7-1-5.1,1.5-6.9C196.7,721.3,197.4,720.9,198,720.4z"/>
			<path fill="#FEFEFE" d="M191.3,534.1c0,4.3,0.1,8.6,0,12.9c-0.1,2.3,1.3,2.5,3.1,3c4.9,1.6,8,4.9,9.3,10c0.9,3.3,0.3,5.6-2.8,6.9
				c-2.6,1.2-5.1,0.6-6.4-2c-1.5-3-1.1-5.8,2.5-7.3c0.4-0.2,0.7-0.7,1.1-1.1c-1.8-1.8-3.8-3-6.8-3.7c0,9.5,0.1,18.6-0.1,27.6
				c-0.1,2.9,1.6,2.7,3.5,2.8c9.1,0.1,18.7-7.9,20.6-17.2C218.4,551.1,207.7,536.6,191.3,534.1z"/>
			<path fill="#FEFEFE" d="M739.3,553c-3.9,1.2-3.9,1.2-6.6,3.6c0.3,0.9,1.3,0.9,1.9,1.4c2.5,1.9,2.9,4.5,1.5,7
				c-1.3,2.2-3.5,2.9-6,2c-3-1.1-4-3.3-3.4-6.2c1.2-5.4,4.2-9.5,9.7-10.8c2.7-0.7,3-1.9,3-4.1c-0.1-3.2-0.1-6.3,0-9.5
				c0-1.8-0.1-2.7-2.5-2.2c-14.2,2.7-24.5,18-21.5,32c1.9,9.1,11.1,16.8,20.2,17.1c2.4,0.1,4-0.1,3.9-3.4
				C739.1,571.1,739.3,562.3,739.3,553z"/>
			<path fill="#FDFDFD" d="M179.4,777.9c-12.8-6.4-22-15.7-28-28.9c0,9.1,0,18.2,0,27.3c0,1.4,0.9,1.6,2,1.6
				C162,777.9,170.7,777.9,179.4,777.9z"/>
			<path fill="#FDFDFD" d="M779.3,749.1c-6,13-15.2,22.4-28.1,28.8c8.7,0,17.3,0,26,0c2.4,0,2.1-1.5,2.1-3
				C779.3,766.3,779.3,757.7,779.3,749.1z"/>
			<path fill="#050505" d="M464.7,496.6c0,52.9,0,105.7,0,158.6c0.3,0,0.7,0,1,0c0-52.9,0-105.7,0-158.6
				C465.4,496.6,465.1,496.6,464.7,496.6z"/>
			<path fill="#FDFDFD" d="M253.3,767.7c-5.9,2.6-12.1,4.3-18.3,6.2c-1.5,0.4-3.7,0.1-3.7,2.5c0.1,2.8,2.5,1.4,3.8,1.5
				c9.5,0.1,19,0,28.5,0.1c2.7,0,4-0.6,3.6-3.5c-0.5-4.1,0.7-8.3-0.6-12.4C261.8,763,257,764.1,253.3,767.7z"/>
			<path fill="#FDFDFD" d="M663.9,762.1c-1.3,4.6-0.3,9.2-0.6,13.9c-0.1,2,1.2,2,2.6,2c10.3,0,20.7,0,31,0c1.1,0,2.4,0.4,2.4-1.5
				c0-1.9-1.7-2-2.8-2.3c-6.6-1.7-13-3.7-19.2-6.4C673.6,764.1,668.8,763,663.9,762.1z"/>
			<path fill="#050505" d="M313.3,568.7c11.1-8.2,22.2-16.5,33.3-24.7c-1.3-0.6,0.9-2.7-1.2-2.9c-11.2,8.2-22.3,16.5-33.4,24.6
				c-0.3-0.3-0.7-0.5-0.7-0.7c0-58,0-116.1,0.1-174.1c-1.5,1.3-1,3.1-1,4.7c0,55.5,0,110.9-0.1,166.4
				C310.2,565,311.3,566.9,313.3,568.7z"/>
			<path fill="#050505" d="M584,544c11.1,8.2,22.2,16.5,33.3,24.7c2.3-1.9,3.1-4.2,3.1-7.3c-0.1-55.1-0.1-110.3-0.1-165.4
				c0-1.7,0.7-3.7-1-5.2c0,58.2,0,116.4,0,175.3c-11.6-8.5-22.8-16.8-34.1-25.1C583.1,541.3,585.3,543.4,584,544z"/>
			<path fill="#050505" d="M464.7,660.6c0,38.9,0,77.7,0,116.6c0.3,0,0.7,0,1,0c0-38.9,0-77.7,0-116.6
				C465.4,660.6,465.1,660.6,464.7,660.6z"/>
			<path fill="#FDFDFD" d="M743.5,717.3c0,9.1,0,18.2,0,27.3c5.5-1.4,10.1-7.6,10.4-13.9C754.1,724.4,750.3,719.5,743.5,717.3z"/>
			<path fill="#FDFDFD" d="M187.3,581.7c0-8.9-0.1-17,0-25.2c0.1-3.8-1.3-3.2-3.7-1.8c-4.9,2.8-7.1,7.2-6.8,12.3
				C177.3,573.5,180.6,578.5,187.3,581.7z"/>
			<path fill="#FDFDFD" d="M743.6,553.8c-0.1,0.5-0.3,0.9-0.3,1.4c0,8.6,0,17.2,0,25.9c6-1.8,10.7-8.3,10.6-14.5
				C753.7,560.2,749.9,555.3,743.6,553.8z"/>
			<path fill="#FDFDFD" d="M187.3,716.9c-6.8,2.5-10.4,6.9-10.4,13.3c0,6.7,3.5,11.8,10.4,15.4c0-5.2,0-9.8,0-14.3
				C187.3,726.6,187.3,722,187.3,716.9z"/>
			<path fill="#050505" d="M464.7,387.6c0,34.5,0,69,0,103.6c0.3,0,0.7,0,1,0c0-34.5,0-69,0-103.6
				C465.4,387.6,465.1,387.6,464.7,387.6z"/>
			<path fill="#040404" d="M189.9,529.2c0-29.9,0-59.7,0-89.6c-0.3,0-0.7,0-1,0c0,29.9,0,59.7,0,89.6
				C189.2,529.2,189.5,529.2,189.9,529.2z"/>
			<path fill="#040404" d="M740.7,439.6c0,29.9,0,59.7,0,89.6c0.3,0,0.7,0,1,0c0-29.9,0-59.7,0-89.6
				C741.4,439.6,741.1,439.6,740.7,439.6z"/>
			<path fill="#121212" d="M582.2,538.6c0-58.4,0-116.9,0-175.3c-0.2,0-0.3,0-0.5,0c0,58.5,0,117,0,175.5
				C581.8,538.7,582,538.6,582.2,538.6z"/>
			<path fill="#121212" d="M349.2,538.6c0-58.4,0-116.9,0-175.3c-0.2,0-0.3,0-0.5,0c0,58.5,0,117,0,175.5
				C348.8,538.7,349,538.6,349.2,538.6z"/>
			<path fill="#121212" d="M542.2,511.6c0-58.1,0-116.2,0-174.3c-0.2,0-0.3,0-0.5,0c0,58.2,0,116.4,0,174.5
				C541.8,511.7,542,511.6,542.2,511.6z"/>
			<path fill="#121212" d="M388.4,337.2c0,58.1,0,116.2,0,174.3c0.2,0,0.3,0,0.5,0c0-58.2,0-116.3,0-174.5
				C388.8,337.1,388.6,337.2,388.4,337.2z"/>
			<path fill="#070707" d="M228.6,434.2c0,57.5,0,115.1,0,172.6c0.2,0,0.3,0,0.5,0c0-57.6,0-115.2,0-172.7
				C228.9,434.1,228.7,434.2,228.6,434.2z"/>
			<path fill="#070707" d="M701.4,434.2c0,57.4,0,114.9,0,172.3c0.2,0,0.3,0,0.5,0c0-57.5,0-115,0-172.5
				C701.8,434.1,701.6,434.2,701.4,434.2z"/>
			<path fill="#0F0F0F" d="M621.4,395.2c0,57.4,0,114.9,0,172.3c0.2,0,0.3,0,0.5,0c0-57.5,0-115,0-172.5
				C621.8,395.1,621.6,395.2,621.4,395.2z"/>
			<path fill="#0F0F0F" d="M309,567.6c0-57.6,0-115.1,0-172.7c-0.2,0-0.3,0-0.5,0c0,57.6,0,115.2,0,172.7
				C308.7,567.7,308.9,567.7,309,567.6z"/>
			<path fill="#0B0B0B" d="M268.4,420.2c0,57.1,0,114.2,0,171.3c0.2,0,0.3,0,0.5,0c0-57.2,0-114.4,0-171.5
				C268.8,420.1,268.6,420.2,268.4,420.2z"/>
			<path fill="#0B0B0B" d="M661.4,420.2c0,57.1,0,114.2,0,171.3c0.2,0,0.3,0,0.5,0c0-57.2,0-114.4,0-171.5
				C661.8,420.1,661.6,420.2,661.4,420.2z"/>
			<path fill="#F8F8F8" d="M491.3,370c-0.4,5.6,1.1,10.5,5.7,14c1.9,1.4,3.1,1.7,3.1-1.5c-0.1-7.4,0-14.9,0.1-22.3
				c-3.7-0.2-7.6,3.1-8.5,7C491.5,368,492.1,369.1,491.3,370z"/>
			<path fill="#F8F8F8" d="M430.4,360.1c0,7.4,0.2,14.9,0.1,22.3c0,3.2,1.2,3,3.1,1.5c4.7-3.5,6.2-8.3,5.7-14c-0.1-3.9-2-6.9-5-9.2
				C433.1,359.9,431.9,358.7,430.4,360.1z"/>
			<path fill="#121212" d="M581.5,542c0,53.2,0,106.5,0,159.7c0.2,0,0.3,0,0.5,0c0-53.2,0-106.5,0-159.7
				C581.8,542,581.7,542,581.5,542z"/>
			<path fill="#121212" d="M348.4,542.2c0,53.1,0,106.2,0,159.3c0.2,0,0.3,0,0.5,0c0-53.2,0-106.4,0-159.5
				C348.8,542.1,348.6,542.2,348.4,542.2z"/>
			<path fill="#121212" d="M388.4,517.2c0,52.8,0,105.6,0,158.3c0.2,0,0.3,0,0.5,0c0-52.8,0-105.7,0-158.5
				C388.8,517.1,388.6,517.2,388.4,517.2z"/>
			<path fill="#121212" d="M542.1,675.6c0-52.9,0-105.8,0-158.7c-0.2,0-0.3,0-0.5,0c0,52.9,0,105.8,0,158.7
				C541.7,675.6,541.9,675.6,542.1,675.6z"/>
			<path fill="#121212" d="M501.4,502.2c0,52.4,0,104.9,0,157.3c0.2,0,0.3,0,0.5,0c0-52.5,0-105,0-157.5
				C501.8,502.1,501.6,502.1,501.4,502.2z"/>
			<path fill="#121212" d="M429.2,659.6c0-52.4,0-104.9,0-157.3c-0.2,0-0.3,0-0.5,0c0,52.5,0,105,0,157.5
				C428.8,659.7,429,659.6,429.2,659.6z"/>
			<path fill="#0F0F0F" d="M622.2,731.6c0-52.1,0-104.2,0-156.3c-0.2,0-0.3,0-0.5,0c0,52.2,0,104.4,0,156.6
				C621.8,731.7,622,731.6,622.2,731.6z"/>
			<path fill="#0F0F0F" d="M308.4,575.2c0,52.1,0,104.2,0,156.3c0.2,0,0.3,0,0.5,0c0-52.2,0-104.4,0-156.5
				C308.8,575.1,308.6,575.2,308.4,575.2z"/>
			<path fill="#0B0B0B" d="M661.4,600.2c0,52.1,0,104.2,0,156.3c0.2,0,0.3,0,0.5,0c0-52.2,0-104.4,0-156.5
				C661.8,600.1,661.6,600.2,661.4,600.2z"/>
			<path fill="#0B0B0B" d="M269.2,756.6c0-52.1,0-104.2,0-156.3c-0.2,0-0.3,0-0.5,0c0,52.2,0,104.4,0,156.6
				C268.8,756.7,269,756.6,269.2,756.6z"/>
			<path fill="#070707" d="M701.4,614.2c0,52.1,0,104.2,0,156.3c0.2,0,0.3,0,0.5,0c0-52.2,0-104.4,0-156.5
				C701.8,614.1,701.6,614.2,701.4,614.2z"/>
			<path fill="#070707" d="M229.2,770.6c0-52.1,0-104.2,0-156.3c-0.2,0-0.3,0-0.5,0c0,52.2,0,104.4,0,156.5
				C228.8,770.7,229,770.6,229.2,770.6z"/>
			<path fill="#040404" d="M741.9,693.2c0-25.5,0-50.9,0-76.4c-0.3,0-0.6,0-0.9,0c0,25.5,0,50.9,0,76.4
				C741.3,693.2,741.6,693.2,741.9,693.2z"/>
			<path fill="#040404" d="M189.8,693.2c0-25.5,0-50.9,0-76.4c-0.3,0-0.7,0-1,0c0,25.4,0,50.9,0,76.3
				C189.2,693.2,189.5,693.2,189.8,693.2z"/>
			<path fill="#060606" d="M352.3,539.7c10.2-6.8,20.2-14.1,31-20.1c1.2-0.7,2.2-2,3.9-1.4c-0.1-1.8-1.9-2-2.8-3.1
				c-10.5,5.4-20,12.3-29.7,18.9c-1.2,0.8-2.2,2.8-4.2,1.6C351.8,536.6,350.6,538.8,352.3,539.7z"/>
			<path fill="#070707" d="M781.2,716.6c0-43.1,0-86.2,0-129.3c-0.2,0-0.3,0-0.5,0c0,43.2,0,86.4,0,129.5
				C780.8,716.7,781,716.6,781.2,716.6z"/>
			<path fill="#070707" d="M150.2,716.6c0-43.1,0-86.2,0-129.3c-0.2,0-0.3,0-0.5,0c0,43.2,0,86.4,0,129.5
				C149.8,716.7,150,716.6,150.2,716.6z"/>
			<path fill="#070707" d="M275.3,757.7c10.3-5.3,19.8-11.8,29.1-18.8c-0.3-1-0.7-1.9-1-2.9c-9.7,6.3-19.4,12.6-29.1,18.8
				C274.1,756,274.1,757.1,275.3,757.7z"/>
			<path fill="#070707" d="M626.3,738.9c9.2,7,18.8,13.5,29.1,18.8c1.1-0.7,1.1-1.7,1-2.9c-9.7-6.3-19.4-12.6-29.1-18.8
				C626.9,737,626.6,738,626.3,738.9z"/>
			<path fill="#050505" d="M314.3,731.7c10-6.9,19.6-14.3,29.1-21.8c-0.3-0.9-0.7-1.9-1-2.8c-9.7,7.3-19.4,14.5-29.1,21.8
				C313.6,729.8,313.9,730.8,314.3,731.7z"/>
			<path fill="#050505" d="M587.2,709.9c9.5,7.6,19.1,14.9,29.1,21.8c0.3-0.9,0.7-1.9,1-2.8c-9.7-7.3-19.4-14.5-29.1-21.8
				C587.9,708,587.6,709,587.2,709.9z"/>
			<path fill="#070707" d="M781.2,552.6c0-37.4,0-74.9,0-112.3c-0.2,0-0.3,0-0.5,0c0,37.5,0,75,0,112.5
				C780.8,552.7,781,552.6,781.2,552.6z"/>
			<path fill="#070707" d="M150.2,552.6c0-37.4,0-74.9,0-112.3c-0.2,0-0.3,0-0.5,0c0,37.5,0,75,0,112.5
				C149.8,552.7,150,552.6,150.2,552.6z"/>
			<path fill="#121212" d="M429,776.8c0-37.2,0-74.5,0-111.7c-0.1,0-0.3,0-0.4,0c0,37.2,0,74.5,0,111.7
				C428.8,776.8,428.9,776.8,429,776.8z"/>
			<path fill="#121212" d="M501.5,665c0,37.2,0,74.5,0,111.7c0.2,0,0.3,0,0.5,0c0-37.2,0-74.5,0-111.7
				C501.8,665,501.7,665,501.5,665z"/>
			<path fill="#050505" d="M469.4,296.1c4.4-9,11.1-15.7,20.1-20.1c-0.8-0.8,0.8-2.5-1.1-2.9c-10.5,4-17.8,11.4-21.8,21.9
				C466.8,296.9,468.6,295.1,469.4,296.1z"/>
			<path fill="#050505" d="M174.4,606.9c-8.5-5.6-14.6-13.2-18.9-22.3c-0.7,1.1-1.3,2.2-2,3.3c3.7,8.9,9.6,15.9,17.8,20.9
				C172.3,608.1,173.4,607.5,174.4,606.9z"/>
			<path fill="#121212" d="M541.4,680.2c0,32.1,0,64.2,0,96.3c0.2,0,0.3,0,0.5,0c0-32.2,0-64.4,0-96.6
				C541.8,680.1,541.6,680.2,541.4,680.2z"/>
			<path fill="#121212" d="M389,776.6c0-32.2,0-64.4,0-96.6c-0.2,0-0.3,0-0.5,0c0,32.2,0,64.5,0,96.7
				C388.7,776.7,388.9,776.6,389,776.6z"/>
			<path fill="#060606" d="M441.1,276c8.3,4,14.6,10.1,19.1,18c0.6-1,1.3-2,1.9-3.1c-4.3-8.6-11-14.5-19.9-17.9
				C440.4,273.4,442,275.2,441.1,276z"/>
			<path fill="#121212" d="M428.4,410.2c0,28.5,0,56.9,0,85.4c0.2,0,0.3,0,0.5,0c0-28.5,0-57,0-85.5
				C428.8,410.1,428.6,410.1,428.4,410.2z"/>
			<path fill="#121212" d="M501.6,409.9c0,28.6,0,57.1,0,85.7c0.1,0,0.3,0,0.4,0c0-28.6,0-57.1,0-85.7
				C501.8,409.9,501.7,409.9,501.6,409.9z"/>
			<path fill="#090909" d="M155.4,719.1c3.6-7,8.7-12.6,15.1-17.1c-1.3-0.7-0.2-2.2-1.1-3c-7.3,3.8-12.6,9.4-15.9,16.9
				C154.1,717,154.7,718,155.4,719.1z"/>
			<path fill="#090909" d="M760.1,702c6.4,4.5,11.5,10.2,15.1,17.1c0.6-1.1,1.3-2.1,1.9-3.2c-3.3-7.5-8.6-13.2-15.9-16.9
				C760.3,699.8,761.4,701.3,760.1,702z"/>
			<path fill="#050505" d="M464.8,309.6c0,13.9,0,27.7,0,41.6c0.3,0,0.6,0,0.9,0c0-13.9,0-27.7,0-41.6
				C465.4,309.6,465.1,309.6,464.8,309.6z"/>
			<path fill="#050505" d="M457.2,388.7c-4.4,5.9-9.7,10.6-16.2,14.1c1.2,0.6-0.9,2.7,1.2,2.9c7.9-3.1,13.8-8.5,17.9-15.8
				C459.8,388,458,389.6,457.2,388.7z"/>
			<path fill="#121212" d="M581.4,706.2c0,23.4,0,46.9,0,70.3c0.2,0,0.3,0,0.5,0c0-23.5,0-47,0-70.6
				C581.8,706.1,581.6,706.2,581.4,706.2z"/>
			<path fill="#121212" d="M349.2,776.6c0-23.4,0-46.9,0-70.3c-0.2,0-0.3,0-0.5,0c0,23.5,0,47,0,70.5
				C348.8,776.7,349,776.6,349.2,776.6z"/>
			<path fill="#040404" d="M742,745.8c0.5-9.3,0.4-18.6,0.1-27.9c-0.5,0-0.9,0-1.4,0c0,9.3,0,18.6,0,27.9
				C741.1,745.8,741.6,745.8,742,745.8z"/>
			<path fill="#040404" d="M190,745.9c0-9.4,0-18.7,0-28.1c-0.6,0-1.2,0-1.7,0C188.5,727.2,187.6,736.5,190,745.9z"/>
			<path fill="#040404" d="M189,554.6c0,9.1,0,18.1,0,27.2c0.3,0,0.6,0,1,0c0-9.1,0-18.1,0-27.2C189.6,554.6,189.3,554.6,189,554.6z
				"/>
			<path fill="#040404" d="M742,581.9c0.6-9.1,0.2-18.2,0.2-27.3c-0.5,0-1,0-1.4,0c0,9.1,0,18.2,0,27.3
				C741.2,581.9,741.6,581.9,742,581.9z"/>
			<path fill="#0B0B0B" d="M560.1,527c4.7,3.3,9.5,6.5,14.2,9.8c0.3-1,0.7-1.9,1-2.9c-4.3-3-8.7-6.1-13-9.1
				C561.9,525.9,561.2,526.6,560.1,527z"/>
			<path fill="#0C0C0C" d="M430.4,360.1c5.6,1,6.6,6,8.9,9.9c0.2-1.5,0.7-3,1.9-4c-1.7-4.5-4.6-7.8-8.9-9.8
				C430.7,357,431.7,359.1,430.4,360.1z"/>
			<path fill="#0C0C0C" d="M491.3,370c2.3-3.9,3.4-8.9,8.9-9.9c-1.3-1-0.3-3.1-1.9-4c-4.3,2.1-7.3,5.4-8.9,9.8
				C490.6,367,491.1,368.4,491.3,370z"/>
			<path fill="#040404" d="M741.8,611.9c0-8.4,0-16.7,0-25.1c-2.1,8.3-1.1,16.8-1.5,25.2C740.8,612,741.3,612,741.8,611.9z"/>
			<path fill="#040404" d="M189.4,612c0.5-8.4,1.5-16.9-0.4-25.2C188.4,595.2,188,603.6,189.4,612z"/>
			<path fill="#040404" d="M741.6,750.8c-2,8.3-1,16.7-0.7,25C743,767.6,742,759.2,741.6,750.8z"/>
			<path fill="#040404" d="M188.3,750.8c0.3,8.3-0.6,16.7,1.5,24.9c0-8.3,0-16.6,0-24.9C189.3,750.8,188.8,750.8,188.3,750.8z"/>
			<path fill="#0A0A0A" d="M663.9,762.1c4.3,2.4,8.7,4.3,13.4,5.7c1.1-0.7,2.2-1.3,3.3-2c-4.5-1.9-8.9-3.8-13.4-5.6
				C666.2,760.8,665,761.4,663.9,762.1z"/>
			<path fill="#0A0A0A" d="M253.3,767.7c4.7-1.4,9.1-3.3,13.4-5.7c-1.1-0.7-2.2-1.3-3.3-2c-4.5,1.9-8.9,3.8-13.4,5.6
				C251.1,766.4,252.2,767.1,253.3,767.7z"/>
			<path fill="#0F0F0F" d="M622.1,776.8c0-12.6,0-25.2,0-37.8c-0.2,0-0.3,0-0.5,0c0,12.6,0,25.2,0,37.8
				C621.8,776.8,621.9,776.8,622.1,776.8z"/>
			<path fill="#0F0F0F" d="M308.4,739.2c0,12.5,0,24.9,0,37.4c0.2,0,0.3,0,0.5,0c0-12.5,0-25,0-37.6
				C308.8,739.1,308.6,739.2,308.4,739.2z"/>
			<path fill="#040404" d="M741.8,434.2c0-5.9,0-11.7,0-17.6c-0.3,0-0.6,0-1,0c0,5.9,0,11.7,0,17.6
				C741.2,434.2,741.5,434.2,741.8,434.2z"/>
			<path fill="#040404" d="M188.8,416.6c0,5.9,0,11.7,0,17.6c0.3,0,0.6,0,0.9,0c0-5.9,0-11.7,0-17.6
				C189.4,416.6,189.1,416.6,188.8,416.6z"/>
			<path fill="#050505" d="M664.6,779.6c11.2,0,22.4,0,33.6,0c0-0.2,0-0.3,0-0.5c-11.2,0-22.5,0-33.7,0
				C664.5,779.3,664.6,779.5,664.6,779.6z"/>
			<path fill="#050505" d="M232.6,779.8c11.1,0,22.2,0,33.3,0c0-0.2,0-0.3,0-0.5c-11.2,0-22.4,0-33.5,0
				C232.5,779.4,232.6,779.6,232.6,779.8z"/>
			<path fill="#050505" d="M538.1,779.1c-10.9,0-21.8,0-32.7,0c0,0.2,0,0.3,0,0.5c10.9,0,21.8,0,32.6,0
				C538.1,779.5,538.1,779.3,538.1,779.1z"/>
			<path fill="#050505" d="M578,779.2c-10.9,0-21.7,0-32.6,0c0,0.2,0,0.3,0,0.5c10.9,0,21.8,0,32.7,0
				C578.1,779.5,578,779.3,578,779.2z"/>
			<path fill="#050505" d="M618.1,779.1c-10.9,0-21.8,0-32.7,0c0,0.2,0,0.3,0,0.5c10.9,0,21.8,0,32.7,0
				C618.1,779.5,618.1,779.3,618.1,779.1z"/>
			<path fill="#050505" d="M625.4,779.6c10.9,0,21.7,0,32.6,0c0-0.1,0-0.2,0-0.4c-10.9,0-21.7,0-32.6,0
				C625.4,779.4,625.4,779.5,625.4,779.6z"/>
			<path fill="#050505" d="M425,779c-10.8,0-21.6,0-32.3,0c0,0.2,0,0.3,0,0.5c10.8,0,21.7,0,32.5,0C425.1,779.4,425,779.2,425,779z"
				/>
			<path fill="#050505" d="M305,779c-10.8,0-21.6,0-32.3,0c0,0.2,0,0.3,0,0.5c10.8,0,21.7,0,32.5,0C305.1,779.4,305,779.2,305,779z"
				/>
			<path fill="#050505" d="M345.2,779.1c-10.9,0-21.8,0-32.7,0c0,0.1,0,0.3,0,0.4c10.9,0,21.8,0,32.7,0
				C345.2,779.4,345.2,779.3,345.2,779.1z"/>
			<path fill="#050505" d="M352.6,779.6c10.9,0,21.8,0,32.7,0c0-0.2,0-0.3,0-0.5c-10.9,0-21.8,0-32.7,0
				C352.5,779.3,352.5,779.5,352.6,779.6z"/>
			<path fill="#050505" d="M498.2,779.1c-9.9,0-19.8,0-29.7,0c0,0.2,0,0.3,0,0.5c9.9,0,19.8,0,29.7,0
				C498.2,779.4,498.2,779.3,498.2,779.1z"/>
			<path fill="#050505" d="M462.2,779.1c-9.9,0-19.8,0-29.7,0c0,0.1,0,0.3,0,0.4c9.9,0,19.8,0,29.7,0
				C462.2,779.4,462.2,779.3,462.2,779.1z"/>
			<path fill="#040404" d="M740.7,698.6c0,4.5,0,9.1,0,13.6c1.9-4.5,1.5-9,1.4-13.6C741.7,698.6,741.2,698.6,740.7,698.6z"/>
			<path fill="#040404" d="M189,712.2c1.7-4.5,1.3-9,0-13.6C189,703.1,189,707.6,189,712.2z"/>
			<path fill="#040404" d="M741.5,534.9c-1.5,4.4-1.2,8.9-0.3,13.3C742.8,543.8,742.1,539.3,741.5,534.9z"/>
			<path fill="#040404" d="M189.3,548.2c1.1-4.5,1.3-8.9-0.2-13.3C188.2,539.3,188.1,543.8,189.3,548.2z"/>
			<path fill="#070707" d="M780.5,751.1c0,8.6,0,17.2,0,25.7c0.2,0,0.3,0,0.5,0c0-8.5,0-17.1,0-25.6
				C780.9,751.1,780.7,751.1,780.5,751.1z"/>
			<path fill="#070707" d="M150,776.6c0-8.5,0-17.1,0-25.6c-0.2,0-0.3,0-0.5,0c0,8.6,0,17.2,0,25.7
				C149.7,776.7,149.9,776.6,150,776.6z"/>
			<path fill="#111111" d="M501.5,359.1c0,8.6,0,17.2,0,25.7c0.2,0,0.3,0,0.5,0c0-8.5,0-17.1,0-25.6
				C501.9,359.2,501.7,359.1,501.5,359.1z"/>
			<path fill="#111111" d="M428.6,359c0,8.5,0,17.1,0,25.6c0.1,0,0.2,0,0.4,0c0-8.5,0-17.1,0-25.6C428.8,359,428.7,359,428.6,359z"
				/>
			<path fill="#050505" d="M753.5,779.7c8.2,0,16.5,0,24.7,0c0-0.2,0-0.3,0-0.5c-8.2,0-16.4,0-24.6,0
				C753.6,779.3,753.5,779.5,753.5,779.7z"/>
			<path fill="#050505" d="M152.4,779.6c8.2,0,16.5,0,24.7,0c0-0.1,0-0.3,0-0.4c-8.2,0-16.5,0-24.7,0
				C152.4,779.4,152.4,779.5,152.4,779.6z"/>
			<path fill="#111111" d="M429,353.6c0-7.9,0-15.8,0-23.7c-0.2,0-0.3,0-0.5,0c0,7.9,0,15.8,0,23.7
				C428.7,353.7,428.9,353.7,429,353.6z"/>
			<path fill="#111111" d="M502.1,353.8c0-7.9,0-15.8,0-23.7c-0.2,0-0.3,0-0.5,0c0,7.9,0,15.8,0,23.7
				C501.8,353.8,501.9,353.8,502.1,353.8z"/>
			<path fill="#111111" d="M501.6,300.2c0,7.2,0,14.4,0,21.6c0.2,0,0.3,0,0.5,0c0-7.3,0-14.5,0-21.8
				C501.9,300.1,501.7,300.1,501.6,300.2z"/>
			<path fill="#111111" d="M428.5,299.9c0,7.3,0,14.5,0,21.8c0.1,0,0.3,0,0.4,0c0-7.3,0-14.5,0-21.8
				C428.8,299.9,428.7,299.9,428.5,299.9z"/>
			<path fill="#060606" d="M411.8,326.3c4.4,0,9.2,0,14,0C421,326.3,416,323.9,411.8,326.3z"/>
			<path fill="#060606" d="M504.9,325.9c4.7,1.5,9.4,0.8,14.2,0.3c-2.4-0.3-5.1-1.5-7.1-0.8C509.5,326.2,507.3,324.7,504.9,325.9z"
				/>
			<path fill="#111111" d="M348.6,340.9c0,5.9,0,11.8,0,17.7c0.1,0,0.3,0,0.4,0c0-5.9,0-11.8,0-17.7
				C348.8,340.9,348.7,340.9,348.6,340.9z"/>
			<path fill="#111111" d="M582,358.6c0-5.9,0-11.7,0-17.6c-0.2,0-0.3,0-0.5,0c0,5.9,0,11.8,0,17.7
				C581.7,358.7,581.9,358.6,582,358.6z"/>
			<path fill="#0B0B0B" d="M661.5,395.9c0,5.9,0,11.8,0,17.7c0.1,0,0.3,0,0.4,0c0-5.9,0-11.8,0-17.7
				C661.8,395.9,661.7,395.9,661.5,395.9z"/>
			<path fill="#0B0B0B" d="M269.1,413.8c0-5.9,0-11.8,0-17.7c-0.2,0-0.3,0-0.5,0c0,5.9,0,11.8,0,17.7
				C268.8,413.8,268.9,413.8,269.1,413.8z"/>
			<path fill="#070707" d="M149.5,418c0,5.6,0,11.2,0,16.7c0.2,0,0.3,0,0.5,0c0-5.6,0-11.2,0-16.7C149.8,418,149.7,418,149.5,418z"
				/>
			<path fill="#070707" d="M781.1,434.8c0-5.6,0-11.2,0-16.7c-0.2,0-0.3,0-0.5,0c0,5.6,0,11.2,0,16.7
				C780.8,434.8,780.9,434.8,781.1,434.8z"/>
			<path fill="#070707" d="M228.6,410.9c0,5.6,0,11.1,0,16.7c0.1,0,0.3,0,0.4,0c0-5.6,0-11.1,0-16.7
				C228.8,410.9,228.7,410.9,228.6,410.9z"/>
			<path fill="#070707" d="M702.1,427.6c0-5.6,0-11.1,0-16.7c-0.2,0-0.3,0-0.5,0c0,5.6,0,11.1,0,16.7
				C701.7,427.6,701.9,427.6,702.1,427.6z"/>
			<path fill="#0E0E0E" d="M621.6,371.9c0,5.6,0,11.1,0,16.7c0.1,0,0.3,0,0.4,0c0-5.6,0-11.1,0-16.7
				C621.8,371.9,621.7,371.9,621.6,371.9z"/>
			<path fill="#0E0E0E" d="M309.1,388.7c0-5.6,0-11.2,0-16.7c-0.2,0-0.3,0-0.5,0c0,5.5,0,11.1,0,16.6
				C308.7,388.6,308.9,388.7,309.1,388.7z"/>
			<path fill="#111111" d="M542.1,332.8c0-5.2,0-10.5,0-15.7c-0.2,0-0.3,0-0.5,0c0,5.2,0,10.5,0,15.7
				C541.8,332.8,541.9,332.8,542.1,332.8z"/>
			<path fill="#111111" d="M388.6,316.9c0,5.2,0,10.5,0,15.7c0.1,0,0.3,0,0.4,0c0-5.2,0-10.5,0-15.7
				C388.8,316.9,388.7,316.9,388.6,316.9z"/>
			<path fill="#0B0B0B" d="M662.1,776.7c0-4.2,0-8.5,0-12.7c-0.2,0-0.3,0-0.5,0c0,4.2,0,8.4,0,12.7
				C661.7,776.6,661.9,776.7,662.1,776.7z"/>
			<path fill="#121212" d="M502.2,403.6c0-4.1,0-8.2,0-12.4c-0.2,0-0.3,0-0.5,0c0,4.2,0,8.4,0,12.6
				C501.8,403.7,502,403.6,502.2,403.6z"/>
			<path fill="#0B0B0B" d="M269.1,776.4c0-4.1,0-8.2,0-12.3c-0.2,0-0.3,0-0.5,0c0,4.3,0,8.5,0,12.8
				C268.8,776.7,268.9,776.6,269.1,776.4z"/>
			<path fill="#121212" d="M428.5,391c0,4.2,0,8.4,0,12.6c0.1,0,0.3,0,0.4,0c0-4.1,0-8.3,0-12.4C428.8,391.1,428.7,391.1,428.5,391z
				"/>
			<path fill="#090909" d="M461.3,495.7c0.7,0.1,1.3,0.2,2,0.3c-2.6-4.6-6.6-1-9.9-1.9C455.8,495.8,458.9,493.8,461.3,495.7z"/>
			<path fill="#090909" d="M467.4,496c0.7-0.1,1.3-0.2,2-0.3c2.4-2,5.5,0.1,7.9-1.6C474,495.1,470,491.4,467.4,496z"/>
			<path fill="#0A0A0A" d="M756.3,436.9c-3.6,0-7.1,0-10.7,0C749.2,437.4,752.8,438.9,756.3,436.9
				C756.3,436.9,756.3,436.9,756.3,436.9z"/>
			<path fill="#0A0A0A" d="M174.3,436.9c3.5,2.1,7.2,0.6,10.9,0C181.5,436.9,177.9,436.9,174.3,436.9
				C174.3,436.9,174.3,436.9,174.3,436.9z"/>
			<path fill="#D9D9D9" d="M709.4,777.7c-0.2-0.3-0.3-0.6-0.4-0.6c-1.9,0.2-3.5-2-5.5-0.7c-0.2,0.1-0.2,0.8-0.1,0.9
				C705.3,778.5,707.3,777.9,709.4,777.7z"/>
			<path fill="#D9D9D9" d="M220,777.4c3.3,0.5,5.4,1.3,7.2-0.3c0.1-0.1-0.1-0.8-0.2-0.9C224.8,775.5,223.2,777,220,777.4z"/>
			<path fill="#0D0D0D" d="M505.4,355.3c2.3,1,4.6,0.5,6.9,0.2C510,354.5,507.7,355,505.4,355.3z"/>
			<path fill="#101010" d="M533.1,304.7c0-2.2,0-4.4,0-6.6c-0.2,0-0.3,0-0.5,0c0,2.2,0,4.4,0,6.6C532.8,304.7,533,304.7,533.1,304.7
				z"/>
			<path fill="#111111" d="M397.6,298c0,2.3,0,4.6,0,6.9c0.2,0,0.3,0,0.5,0c0-2.3,0-4.6,0-6.9C397.9,298,397.7,298,397.6,298z"/>
			<path fill="#080808" d="M779.5,566c0,2.2,0,4.4,0,6.6c0.2,0,0.3,0,0.5,0c0-2.2,0-4.4,0-6.6C779.8,566.1,779.6,566.1,779.5,566z"
				/>
			<path fill="#080808" d="M150.6,565.9c0,2.3,0,4.6,0,6.9c0.2,0,0.3,0,0.5,0c0-2.3,0-4.6,0-6.9
				C150.9,565.9,150.7,565.9,150.6,565.9z"/>
			<path fill="#090909" d="M150.5,730.1c0,2.2,0,4.4,0,6.6c0.2,0,0.3,0,0.5,0c0-2.2,0-4.4,0-6.6
				C150.8,730.1,150.6,730.1,150.5,730.1z"/>
			<path fill="#090909" d="M779.5,730.1c0,2.2,0,4.4,0,6.6c0.2,0,0.3,0,0.5,0c0-2.2,0-4.5,0-6.7
				C779.8,730.1,779.7,730.1,779.5,730.1z"/>
			<path fill="#0F0F0F" d="M489.7,376.8c0.9-2.9,0.7-4.8,0-6.7C489.7,371.9,489.7,373.8,489.7,376.8z"/>
			<path fill="#0F0F0F" d="M440.6,369c0,3.2,0,5.1,0,7C441.5,373.9,441.6,371.9,440.6,369z"/>
			<path fill="#111111" d="M530.5,376c0,1.9,0,3.8,0,6.4C531.9,379.9,530.9,378,530.5,376z"/>
			<path fill="#111111" d="M399.5,376.1c0,1.9,0,3.8,0,5.6c0.2,0,0.3,0,0.5,0c0-1.9,0-3.8,0-5.7
				C399.8,376.1,399.7,376.1,399.5,376.1z"/>
			<path fill="#070707" d="M465.3,302.5c-0.9,0.1-0.9,0.8-0.9,1.5c0,0.6,0,1.4,0.9,1.4c0.9,0,0.9-0.8,0.9-1.4
				C466.2,303.2,466.2,302.6,465.3,302.5z"/>
			<path fill="#0C0C0C" d="M730.5,615.7c1.2,0,2.5,0,4.1,0C733,614.3,731.7,615.3,730.5,615.7z"/>
			<path fill="#080808" d="M489.1,305.6c0.1,1.4,0.3,2.8,0.4,4.3C489.7,308.4,492.4,306.7,489.1,305.6c0,0,0.2,0.3,0.2,0.3
				S489.1,305.6,489.1,305.6z"/>
			<path fill="#080808" d="M441.6,305.6c-3.1,0.7-0.8,2.7-1.2,4.5C441.9,308.6,441,306.9,441.6,305.6c0,0-0.2,0.2-0.2,0.2
				L441.6,305.6z"/>
			<path fill="#101010" d="M713.1,726.9c0-1.3,0-2.5,0-4.1C711.7,724.2,712.5,725.5,713.1,726.9z"/>
			<path fill="#101010" d="M218,722.1c-0.9,2.2-0.8,3.4-0.4,4.8C218.9,725.6,218.2,724.3,218,722.1z"/>
			<path fill="#101010" d="M218.1,562.8c0-1.3,0-2.5,0-4.6C217,560.2,217.2,561.5,218.1,562.8z"/>
			<path fill="#0C0C0C" d="M772.3,436.9c0,0.3,0,0.6,0,1c1.6,0,3.2,0,4.8,0c0-0.3,0-0.6,0-1C775.6,436.9,773.9,436.9,772.3,436.9z"
				/>
			<path fill="#101010" d="M713.1,563.6c0.1-2.3,0.5-3.6-0.4-4.9C712.1,560.2,712,561.6,713.1,563.6z"/>
			<path fill="#0C0C0C" d="M158.3,437.9c0-0.3,0-0.6,0-1c-1.6,0-3.2,0-4.8,0c0,0.3,0,0.6,0,1C155,437.9,156.7,437.9,158.3,437.9z"/>
			<path fill="#0D0D0D" d="M199.7,615.4c-1.5-0.7-2.5-0.7-3.6,0C197.2,616.1,198.2,616,199.7,615.4z"/>
			<path fill="#0F0F0F" d="M477.1,658.4c1,0.7,2.1,0.6,3.4,0C479.3,657.7,478.2,657.7,477.1,658.4z"/>
			<path fill="#0F0F0F" d="M453.1,657.9c-0.9,0.1-2.5,0.1-2.5,0.3c-0.2,1.2,0.9,0.6,1.5,0.7c0.4,0.1,0.9-0.2,1.3-0.3
				C453.3,658.4,453.2,658.1,453.1,657.9z"/>
		</g>
	</g>
</g>
</svg>
