<?xml version="1.0" encoding="utf-8"?>
<!-- Generator: Adobe Illustrator 18.1.1, SVG Export Plug-In . SVG Version: 6.00 Build 0)  -->
<!DOCTYPE svg PUBLIC "-//W3C//DTD SVG 1.1//EN" "http://www.w3.org/Graphics/SVG/1.1/DTD/svg11.dtd">
<svg version="1.1" id="Layer_1" xmlns="http://www.w3.org/2000/svg" xmlns:xlink="http://www.w3.org/1999/xlink" x="0px" y="0px"
	 viewBox="117.1 273 350.2 344.8" enable-background="new 117.1 273 350.2 344.8" xml:space="preserve">
<g>
	<rect x="459.2" y="270.3" width="8.1" height="343.8"/>
	<rect x="435" y="278.3" width="8" height="335.8"/>
	<rect x="410.8" y="278.3" width="8" height="335.8"/>
	<rect x="386.6" y="279.3" width="8" height="335.8"/>
	<rect x="362.3" y="279.3" width="8" height="335.8"/>
	<rect x="338.1" y="278.3" width="8" height="335.8"/>
	<rect x="313.8" y="278.3" width="8" height="335.8"/>
	<rect x="289.6" y="279.3" width="8" height="335.8"/>
	<rect x="265.3" y="279.3" width="8" height="335.8"/>
	<rect x="241.1" y="278.3" width="8" height="335.8"/>
	<rect x="216.9" y="279.3" width="8" height="335.8"/>
	<rect x="192.6" y="278.3" width="8" height="335.8"/>
	<rect x="168.4" y="279.3" width="8" height="335.8"/>
	<rect x="144.1" y="279.3" width="8" height="335.8"/>
	<rect x="119.9" y="278.3" width="8" height="335.8"/>
	<rect x="119.9" y="605.3" width="347.4" height="12.5"/>
	<rect x="119.9" y="278.3" width="343.4" height="4"/>
	<path d="M295,423.3"/>
</g>
</svg>
