<?xml version="1.0" encoding="utf-8"?>
<!-- Generator: Adobe Illustrator 18.1.1, SVG Export Plug-In . SVG Version: 6.00 Build 0)  -->
<!DOCTYPE svg PUBLIC "-//W3C//DTD SVG 1.1//EN" "http://www.w3.org/Graphics/SVG/1.1/DTD/svg11.dtd">
<svg version="1.1" id="Layer_1" xmlns="http://www.w3.org/2000/svg" xmlns:xlink="http://www.w3.org/1999/xlink" x="0px" y="0px"
	 viewBox="0 110.9 72 69.4" enable-background="new 0 110.9 72 69.4" xml:space="preserve">
<g>
	<rect y="109" fill="#4D4D4D" width="1.7" height="71.2"/>
	<rect x="5" y="110.6" fill="#4D4D4D" width="1.7" height="69.6"/>
	<rect x="10.1" y="110.6" fill="#4D4D4D" width="1.7" height="69.6"/>
	<rect x="15.1" y="110.9" fill="#4D4D4D" width="1.7" height="69.6"/>
	<rect x="20.1" y="110.9" fill="#4D4D4D" width="1.7" height="69.6"/>
	<rect x="25.1" y="110.6" fill="#4D4D4D" width="1.7" height="69.6"/>
	<rect x="30.1" y="110.6" fill="#4D4D4D" width="1.7" height="69.6"/>
	<rect x="35.2" y="110.9" fill="#4D4D4D" width="1.7" height="69.6"/>
	<rect x="40.2" y="110.9" fill="#4D4D4D" width="1.7" height="69.6"/>
	<rect x="45.2" y="110.6" fill="#4D4D4D" width="1.7" height="69.6"/>
	<rect x="50.2" y="110.9" fill="#4D4D4D" width="1.7" height="69.6"/>
	<rect x="55.3" y="110.6" fill="#4D4D4D" width="1.7" height="69.6"/>
	<rect x="60.3" y="110.9" fill="#4D4D4D" width="1.7" height="69.6"/>
	<rect x="65.3" y="110.9" fill="#4D4D4D" width="1.7" height="69.6"/>
	<rect x="70.3" y="110.6" fill="#4D4D4D" width="1.7" height="69.6"/>
	<rect y="178.4" fill="#4D4D4D" width="72" height="2.6"/>
	<rect x="0.8" y="110.6" fill="#4D4D4D" width="71.2" height="0.8"/>
	<path fill="#4D4D4D" d="M35.7,140.7"/>
</g>
</svg>
